<?xml version="1.0" encoding="utf-8"?>
<!-- Generator: Adobe Illustrator 25.4.1, SVG Export Plug-In . SVG Version: 6.00 Build 0)  -->
<svg version="1.1" id="デザイン" xmlns="http://www.w3.org/2000/svg" xmlns:xlink="http://www.w3.org/1999/xlink" x="0px"
	 y="0px" viewBox="0 0 1560 1561.17" style="enable-background:new 0 0 1560 1561.17;" xml:space="preserve">
<style type="text/css">
	.st0{fill:none;}
	.st1{fill:url(#SVGID_1_);}
	.st2{fill:url(#SVGID_00000124120829259281267770000015958306883040426134_);}
	.st3{fill:url(#SVGID_00000152945699716193247930000004826867966719445427_);}
</style>
<ellipse transform="matrix(0.7071 -0.7071 0.7071 0.7071 -323.9153 780.3433)" class="st0" cx="780" cy="781.17" rx="779.88" ry="779.88"/>
<g>
	<radialGradient id="SVGID_1_" cx="580.673" cy="518.47" r="212.9581" gradientUnits="userSpaceOnUse">
		<stop  offset="0" style="stop-color:#1BA1BC"/>
		<stop  offset="1" style="stop-color:#00A290"/>
	</radialGradient>
	<path class="st1" d="M605.3,612.93c-0.9,2.98-2.25,5.15-4.04,6.5c-1.79,1.36-4.08,1.78-6.85,1.28c-2.71-0.5-5.65-1.41-8.81-2.74
		c-3.16-1.32-6.35-2.92-9.57-4.8c-3.21-1.87-6.27-3.92-9.16-6.15c-2.9-2.23-5.43-4.46-7.61-6.7l7.63-7.53
		c1.44,1.64,3.22,3.32,5.35,5.05c2.13,1.72,4.37,3.35,6.73,4.87c2.36,1.52,4.65,2.82,6.86,3.89c2.21,1.07,4.12,1.81,5.72,2.21
		c2.14,0.4,3.43-0.38,3.87-2.36c0.27-1.27,0.4-2.78,0.4-4.52c0-1.74-0.14-3.38-0.4-4.92c0.8,0.4,1.83,0.78,3.09,1.13
		c1.25,0.35,2.53,0.62,3.82,0.8c1.29,0.18,2.39,0.29,3.29,0.32c0.5,2.58,0.72,5,0.65,7.28C606.18,608.83,605.86,610.96,605.3,612.93
		z M613.73,585.11c-1.34-0.67-3.11-1.39-5.32-2.16c-2.21-0.77-4.58-1.48-7.11-2.13c-2.53-0.65-4.93-1.18-7.21-1.58
		c-2.28-0.4-4.15-0.53-5.62-0.4l2.06-9.69c1.74-0.07,3.87,0.07,6.38,0.4c2.51,0.34,5.11,0.8,7.78,1.41c2.68,0.6,5.2,1.28,7.56,2.03
		c2.36,0.75,4.26,1.51,5.7,2.28c-1.04,1.51-1.92,3.16-2.66,4.97C614.55,582.05,614.03,583.67,613.73,585.11z M668.78,565.35
		c-1.82,2.53-3.79,4.15-5.92,4.85c-2.13,0.71-4.43,0.37-6.9-1c-2.41-1.35-4.89-3.16-7.46-5.43c-2.57-2.27-5.07-4.81-7.51-7.62
		c-2.44-2.81-4.67-5.74-6.69-8.78c-2.02-3.04-3.7-5.97-5.04-8.8l9.65-4.67c0.83,2.02,1.98,4.18,3.44,6.5
		c1.46,2.32,3.06,4.58,4.8,6.78c1.74,2.2,3.49,4.17,5.23,5.89c1.75,1.73,3.32,3.04,4.71,3.94c1.9,1.07,3.37,0.74,4.42-0.99
		c0.66-1.12,1.28-2.5,1.84-4.15c0.56-1.65,0.96-3.24,1.21-4.79c0.63,0.64,1.48,1.33,2.56,2.06c1.08,0.74,2.19,1.4,3.35,1.99
		c1.16,0.59,2.16,1.05,3.01,1.37c-0.36,2.6-0.93,4.97-1.73,7.1C670.94,561.76,669.96,563.67,668.78,565.35z M685.73,541.74
		c-1.05-1.07-2.5-2.32-4.34-3.76c-1.84-1.44-3.86-2.88-6.04-4.31c-2.18-1.43-4.29-2.7-6.31-3.82c-2.02-1.11-3.76-1.84-5.19-2.19
		l5.07-8.51c1.67,0.5,3.64,1.31,5.91,2.43c2.27,1.13,4.57,2.41,6.91,3.84c2.34,1.43,4.51,2.89,6.5,4.36c1.99,1.47,3.54,2.81,4.66,4
		c-1.47,1.09-2.84,2.37-4.12,3.85C687.5,539.1,686.48,540.47,685.73,541.74z M747.17,551.34c-0.95-1.23-2.16-2.54-3.63-3.94
		c-1.47-1.4-2.94-2.5-4.42-3.28c5.73-3.18,9.91-7.1,12.52-11.73c2.61-4.64,3.66-10.4,3.16-17.3l-10.87,1.25l1.56,13.55l-10.44,1.2
		l-1.54-13.4c-3.24,0.42-6.22,0.81-8.94,1.17c-2.72,0.36-4.78,0.67-6.18,0.93l-1.21-10.51c1.04-0.07,2.97-0.25,5.8-0.52
		c2.83-0.28,5.96-0.57,9.41-0.87c-0.5-3.95-0.91-7.06-1.22-9.33c-0.31-2.27-0.64-4.13-1-5.57l11.36-1.31
		c0.02,1.43,0.13,3.33,0.34,5.72c0.2,2.38,0.53,5.51,0.97,9.36c0.9-0.06,1.78-0.14,2.65-0.23c0.87-0.1,1.68-0.19,2.43-0.28
		c0.94-0.11,1.89-0.22,2.86-0.33c0.96-0.11,1.96-0.25,2.99-0.41c-0.37-2.82-0.77-5.65-1.19-8.51c-0.42-2.86-0.84-5.45-1.25-7.79
		l11.01-1.27l1.87,16.3c3.14-0.41,6.08-0.81,8.8-1.19c2.72-0.38,4.88-0.69,6.47-0.92l1.21,10.51c-1.52,0.08-3.66,0.25-6.44,0.53
		c-2.78,0.27-5.77,0.57-8.98,0.89c0.71,8.69-0.46,16.01-3.52,21.96C758.68,541.93,753.83,547.05,747.17,551.34z M824.91,550.73
		l5.82-28.24c-7.59,3.03-14.99,5.29-22.21,6.8c-0.29-0.93-0.71-2.04-1.27-3.34c-0.55-1.3-1.17-2.59-1.85-3.86
		c-0.68-1.28-1.37-2.33-2.07-3.15c4.47-0.58,9.1-1.57,13.88-2.97c4.79-1.41,9.48-3.12,14.08-5.15c4.6-2.02,8.86-4.25,12.8-6.68
		c3.93-2.43,7.28-4.95,10.05-7.57l7.65,7.89c-2.55,2.28-5.41,4.45-8.6,6.53c-3.18,2.07-6.54,4.03-10.06,5.87l-7.45,36.1
		L824.91,550.73z M872.64,566.88c0.03-1.06-0.02-2.3-0.15-3.71c-0.13-1.41-0.34-2.81-0.62-4.19c-0.28-1.38-0.61-2.58-0.98-3.58
		c5.91,0.79,11.7,0.92,17.38,0.39c5.68-0.53,11.1-1.69,16.26-3.47c5.16-1.78,9.88-4.16,14.16-7.13c-1.78-0.79-3.58-1.6-5.41-2.45
		c-1.83-0.84-3.49-1.62-4.99-2.34c-1.5-0.72-2.68-1.31-3.56-1.78c-3.37,1.48-6.81,2.71-10.34,3.69c-3.53,0.98-7.05,1.69-10.56,2.13
		c-0.17-0.89-0.45-1.96-0.83-3.18c-0.39-1.23-0.82-2.48-1.3-3.75c-0.47-1.27-0.99-2.38-1.56-3.33c3.98-0.13,8.08-0.83,12.27-2.1
		c4.2-1.27,8.21-2.93,12.03-4.97c3.82-2.04,7.13-4.3,9.9-6.79l7.19,7.95c-0.98,0.82-2,1.63-3.07,2.43c-1.07,0.8-2.16,1.54-3.29,2.23
		c1.78,0.9,3.63,1.8,5.55,2.72c1.92,0.92,3.74,1.76,5.46,2.51c1.72,0.76,3.07,1.32,4.05,1.68l4.21,6.44
		c-5.26,5.13-11.24,9.33-17.92,12.61c-6.69,3.27-13.76,5.59-21.22,6.94C887.84,567.18,880.29,567.53,872.64,566.88z M929.09,593.57
		c0.37-1.57,0.58-3.42,0.64-5.55c0.05-2.13-0.02-4.06-0.22-5.8c4.32,1.38,8.15,2.06,11.5,2.03c3.35-0.03,6.43-0.72,9.24-2.09
		c2.81-1.37,5.54-3.35,8.17-5.94c2.63-2.59,5.39-5.76,8.28-9.5l7.82,6.64c-4.6,6.05-9.21,10.85-13.84,14.39
		c-4.63,3.54-9.5,5.81-14.63,6.8C940.93,595.55,935.28,595.22,929.09,593.57z M951.29,614.55l-0.89-7.23
		c0.6-0.4,1.71-1.35,3.32-2.86c1.61-1.51,3.61-3.43,5.99-5.76c2.38-2.34,5.01-4.94,7.9-7.82c3.55-3.54,6.33-6.37,8.33-8.5
		c1.99-2.12,3.51-3.8,4.55-5.04l7.97,8c-0.97,0.77-2.66,2.3-5.05,4.59c-2.4,2.29-5.09,4.92-8.07,7.89l-10.16,10.12
		c2.01,0.81,4.22,1.59,6.65,2.35c2.43,0.76,4.87,1.45,7.33,2.07c2.46,0.62,4.78,1.11,6.98,1.47c2.19,0.36,4.07,0.55,5.65,0.59
		c-0.84,0.84-1.79,1.88-2.84,3.13c-1.06,1.25-2.01,2.47-2.87,3.66c-0.86,1.19-1.45,2.11-1.79,2.78c-2.08-0.21-4.57-0.63-7.48-1.27
		c-2.91-0.64-5.94-1.43-9.08-2.38c-3.15-0.94-6.16-1.92-9.03-2.93C955.79,616.42,953.33,615.46,951.29,614.55z"/>
	
		<radialGradient id="SVGID_00000142897918290021145330000002090707186328017575_" cx="622.3791" cy="1013.31" r="174.7928" gradientUnits="userSpaceOnUse">
		<stop  offset="0" style="stop-color:#1BA1BC"/>
		<stop  offset="1" style="stop-color:#00A290"/>
	</radialGradient>
	<path style="fill:url(#SVGID_00000142897918290021145330000002090707186328017575_);" d="M725.93,1062.46l7.54,7.63
		c-5.24,5.44-12.59,8.83-20.74,8.83c-15.92,0-28.83-12.91-28.83-28.83c0-15.92,12.91-28.83,28.83-28.83
		c6.12,0,11.79,1.92,16.46,5.18l-6.19,8.85c-0.46-0.34-0.94-0.66-1.44-0.95c-2.65-1.48-5.67-2.28-8.83-2.28
		c-9.94,0-18.02,8.08-18.02,18.02c0,1.82,0.28,3.58,0.78,5.24c2.24,7.43,9.12,12.86,17.25,12.86c5.04,0,9.46-1.83,12.78-5.3
		L725.93,1062.46z M844.9,1062.89c-3.32,3.47-7.74,5.3-12.78,5.3c-8.12,0-15-5.43-17.25-12.86c-0.5-1.66-0.78-3.42-0.78-5.24
		c0-9.94,8.08-18.02,18.02-18.02c3.16,0,6.18,0.8,8.83,2.28c0.5,0.29,0.98,0.61,1.44,0.95l6.19-8.85
		c-4.67-3.26-10.34-5.18-16.46-5.18c-15.92,0-28.83,12.91-28.83,28.83c0,15.92,12.91,28.83,28.83,28.83
		c8.15,0,15.49-3.39,20.74-8.83l-7.54-7.63L844.9,1062.89z M650.67,1050.09c0-15.92-12.9-28.82-28.82-28.82
		c-15.92,0-28.82,12.9-28.82,28.82s12.9,28.82,28.82,28.82c8.15,0,15.5-3.38,20.74-8.81l-7.57-7.66c-3.29,3.51-7.97,5.71-13.17,5.71
		c-9.97,0-18.06-8.08-18.06-18.06c0-9.97,8.08-18.06,18.06-18.06c8.04,0,14.86,5.26,17.19,12.53l-17.2,0
		c-2.97,0-5.38,2.41-5.38,5.39c0,2.95,2.37,5.34,5.3,5.38l28.43,0C650.51,1053.63,650.67,1051.88,650.67,1050.09z M674.96,1071.63
		c0,4.38-3.55,7.94-7.94,7.94c-4.38,0-7.94-3.55-7.94-7.94c0-4.38,3.55-7.94,7.94-7.94
		C671.41,1063.69,674.96,1067.25,674.96,1071.63z M879.24,1067.46v-44.95l-11.4,0v55.18h41.35v-10.23H879.24z M796.86,1022.51
		h-13.23l-14.26,20.39l-14.26-20.39h-13.23l21.8,31.16v24.02h11.4v-24.02L796.86,1022.51z M966.97,1032.73v-10.23h-42.11v0.08v55.1
		l42.11-0.04v-10.19h-30.72v-12.02h25.83v-10.69h-25.83v-12.02H966.97z"/>
	
		<radialGradient id="SVGID_00000173128671649460302980000013220637064099909776_" cx="673.7688" cy="710.4025" r="221.5634" gradientUnits="userSpaceOnUse">
		<stop  offset="0" style="stop-color:#1BA1BC"/>
		<stop  offset="1" style="stop-color:#00A290"/>
	</radialGradient>
	<path style="fill:url(#SVGID_00000173128671649460302980000013220637064099909776_);" d="M919.86,807.02l-140.26-0.02
		c-14.49-0.22-26.17-12.01-26.17-26.55c0-14.66,11.88-26.55,26.53-26.57l84.86,0c-11.53-35.85-45.15-61.8-84.83-61.8
		c-49.2,0-89.09,39.89-89.09,89.09c0,49.2,39.89,89.09,89.09,89.09c25.63,0,48.72-10.84,64.97-28.17l37.37,37.81
		c-25.86,26.8-62.16,43.48-102.35,43.48c-78.54,0-142.21-63.67-142.21-142.21S701.46,638.96,780,638.96s142.21,63.67,142.21,142.21
		C922.21,790,921.4,798.64,919.86,807.02z M1002.89,848.26c-21.63,0-39.17,17.54-39.17,39.17c0,21.63,17.54,39.17,39.17,39.17
		c21.63,0,39.17-17.54,39.17-39.17C1042.05,865.8,1024.52,848.26,1002.89,848.26z"/>
</g>
</svg>
