<?xml version="1.0" encoding="utf-8"?>
<!-- Generator: Adobe Illustrator 25.4.1, SVG Export Plug-In . SVG Version: 6.00 Build 0)  -->
<svg version="1.1" id="デザイン" xmlns="http://www.w3.org/2000/svg" xmlns:xlink="http://www.w3.org/1999/xlink" x="0px"
	 y="0px" viewBox="0 0 1560 1561.17" style="enable-background:new 0 0 1560 1561.17;" xml:space="preserve">
<style type="text/css">
	.st0{fill:none;}
	.st1{fill:url(#SVGID_1_);}
	.st2{fill:#FFFFFF;}
	.st3{fill:url(#SVGID_00000104665304955083027740000013815356653845418163_);}
	.st4{opacity:0.65;fill:#FFFFFF;}
	.st5{opacity:0.76;fill:url(#SVGID_00000097462315893370909440000014733813656930777243_);}
	.st6{fill:url(#SVGID_00000052081344592693448050000017193024259921526405_);}
	.st7{fill:url(#SVGID_00000088094613006203859590000015949654325649734072_);}
	.st8{fill:url(#SVGID_00000121262231838349843940000004424702061196255887_);}
	.st9{fill:url(#SVGID_00000121959775742589530710000003395772733105564815_);}
	.st10{fill:url(#SVGID_00000009550321348962398440000004699362054966324655_);}
	.st11{fill:url(#SVGID_00000119813174950162431810000011762079731414716579_);}
	.st12{fill:url(#SVGID_00000092445910151012638960000004848409524924358032_);}
	.st13{fill:url(#SVGID_00000157284786963084312250000010332000277087180932_);}
	.st14{fill:url(#SVGID_00000178909582502352634180000005914852863117200552_);}
	.st15{fill:url(#SVGID_00000044160074102832411510000001260104563414502549_);}
	.st16{fill:url(#SVGID_00000011020819328099261190000009307924685966553275_);}
	.st17{fill:url(#SVGID_00000010270414971398755850000013349596643244219038_);}
	.st18{fill:url(#SVGID_00000096046840232641214700000003993666765277331890_);}
	.st19{fill:url(#SVGID_00000038380820784938655590000007295515145111702942_);}
	.st20{fill:url(#SVGID_00000036938935750823436460000018164005996433298566_);}
	.st21{fill:url(#SVGID_00000004533693001568236150000013817076275063300742_);}
	.st22{fill:url(#SVGID_00000065764295603566807180000018302682943906274987_);}
	.st23{fill:url(#SVGID_00000096033677227371755360000016785708586466850193_);}
	.st24{fill:url(#SVGID_00000148662969679524018310000014367181758178591896_);}
	.st25{fill:url(#SVGID_00000173879894515194927830000003409422768673851534_);}
	.st26{fill:url(#SVGID_00000031907384433917035380000000389974602949281708_);}
	.st27{fill:url(#SVGID_00000008835873967799357070000012706389166139468723_);}
	.st28{fill:url(#SVGID_00000057857323176288708840000000144265814144201886_);}
	.st29{fill:url(#SVGID_00000155843770184945157260000012916660615715329696_);}
	.st30{fill:url(#SVGID_00000166656145336890717820000002592849760886696616_);}
	.st31{fill:url(#SVGID_00000171713419409108059750000005034522160513892535_);}
	.st32{fill:url(#SVGID_00000021095291502494737780000018175152735285672891_);}
	.st33{fill:url(#SVGID_00000128476844143626331530000008175848731302557610_);}
	.st34{fill:url(#SVGID_00000104698547730590492560000003254870986523434686_);}
	.st35{fill:url(#SVGID_00000162309977742732022430000015019016970188687294_);}
	.st36{fill:url(#SVGID_00000069358218500209286200000001778297877285670023_);}
	.st37{fill:url(#SVGID_00000013902666471029292200000016900731802572890020_);}
	.st38{fill:url(#SVGID_00000152224848397699986140000009957157888208855966_);}
	.st39{fill:url(#SVGID_00000116201675793734005200000011507515077074494133_);}
	.st40{fill:url(#SVGID_00000086673050205838372810000002941684370532707729_);}
	.st41{fill:url(#SVGID_00000065066025649636162790000013544330063994551483_);}
	.st42{fill:url(#SVGID_00000122688742104860341700000015145623275973894034_);}
	.st43{fill:url(#SVGID_00000155831919026329446440000018367785897971320723_);}
	.st44{fill:url(#SVGID_00000108281135826603780820000000447605979127969708_);}
	.st45{fill:url(#SVGID_00000140729089927517831380000010606659144881812404_);}
	.st46{fill:url(#SVGID_00000093888404210706964490000007996435907706261694_);}
	.st47{fill:url(#SVGID_00000074420378120626838750000011368015198213788346_);}
	.st48{fill:url(#SVGID_00000072981499261716190650000014765679708365765540_);}
	.st49{fill:url(#SVGID_00000136378113750933253920000013028829214141773190_);}
	.st50{fill:url(#SVGID_00000041983137458837426350000007809120349182293912_);}
	.st51{fill:url(#SVGID_00000150067142166683958040000005737041438938346907_);}
</style>
<ellipse transform="matrix(0.7071 -0.7071 0.7071 0.7071 -323.9153 780.3433)" class="st0" cx="780" cy="781.17" rx="779.88" ry="779.88"/>
<g>
	<g>
		<radialGradient id="SVGID_1_" cx="619.1046" cy="105.4226" r="379.1788" gradientUnits="userSpaceOnUse">
			<stop  offset="0" style="stop-color:#1BA1BC"/>
			<stop  offset="1" style="stop-color:#00A290"/>
		</radialGradient>
		<circle class="st1" cx="780" cy="197.2" r="197.2"/>
		<g>
			<path class="st2" d="M661.61,181.64c-3.74-0.13-6.64-1.17-8.71-3.1c-2.07-1.94-3.08-4.33-3.03-7.19
				c0.04-1.89,0.66-3.58,1.85-5.08c1.19-1.49,2.84-2.66,4.95-3.5c2.11-0.83,4.55-1.19,7.32-1.06c0.75,0,1.46,0.03,2.14,0.1
				c0.68,0.07,1.37,0.14,2.08,0.23l-0.2-7.59c-0.75,0.04-1.51,0.07-2.28,0.07c-0.77,0-1.53,0-2.28,0c-2.64,0-4.72-0.21-6.23-0.63
				c-1.52-0.42-2.73-1.12-3.63-2.11c-0.9-0.99-1.79-2.36-2.67-4.12l6.2-3.1c0.62,1.19,1.34,1.95,2.18,2.28
				c0.83,0.33,2.26,0.49,4.29,0.49c0.66,0,1.35-0.01,2.08-0.03c0.73-0.02,1.46-0.05,2.21-0.1c-0.04-1.19-0.08-2.4-0.1-3.63
				c-0.02-1.23-0.06-2.44-0.1-3.63c-3.21,0.18-6.25,0.3-9.1,0.36c-2.86,0.07-5.08,0.08-6.66,0.03l-0.33-7.39
				c1.54,0.13,3.76,0.19,6.66,0.16c2.9-0.02,6-0.1,9.3-0.23c-0.04-1.58-0.07-3.1-0.07-4.55c0-1.45,0-2.79,0-4.02h7.65
				c0,1.19,0,2.46,0,3.83c0,1.36,0.02,2.79,0.07,4.29c2.99-0.22,5.74-0.47,8.25-0.76c2.51-0.29,4.35-0.58,5.54-0.89v7.26
				c-1.19,0.26-3.02,0.52-5.51,0.76c-2.49,0.24-5.22,0.47-8.21,0.69c0.04,1.19,0.08,2.39,0.1,3.6c0.02,1.21,0.05,2.41,0.1,3.6
				c2.59-0.26,5.06-0.58,7.39-0.96c2.33-0.37,4.18-0.78,5.54-1.22v7.72c-1.63,0.35-3.55,0.68-5.77,0.99
				c-2.22,0.31-4.56,0.57-7.03,0.79c0.09,1.76,0.14,3.45,0.17,5.08c0.02,1.63,0.05,3.15,0.1,4.55c3.25,0.88,6.33,2.02,9.24,3.43
				c2.9,1.41,5.63,2.95,8.18,4.62c-0.57,0.44-1.2,1.09-1.88,1.95c-0.68,0.86-1.31,1.73-1.88,2.61c-0.57,0.88-1.01,1.63-1.32,2.24
				c-3.69-3.12-7.74-5.58-12.14-7.39c-0.04,3.3-1.2,5.93-3.46,7.88C670.33,180.92,666.67,181.81,661.61,181.64z M661.87,174.58
				c2.29,0.09,3.94-0.24,4.95-0.99c1.01-0.75,1.52-1.74,1.52-2.97v-1.85c-0.92-0.18-1.84-0.31-2.74-0.4
				c-0.9-0.09-1.79-0.13-2.67-0.13c-1.85,0-3.26,0.31-4.22,0.92c-0.97,0.62-1.45,1.36-1.45,2.24
				C657.25,173.39,658.79,174.45,661.87,174.58z"/>
			<path class="st2" d="M733.91,181.9c-0.13-0.75-0.39-1.64-0.76-2.67c-0.37-1.03-0.8-2.05-1.29-3.03
				c-0.48-0.99-0.99-1.79-1.52-2.41c7.34,0.57,13.13,0.01,17.35-1.68c4.22-1.69,6.33-4.34,6.33-7.95c0-1.93-0.8-3.47-2.41-4.62
				c-1.61-1.14-3.64-1.72-6.1-1.72c-2.86,0-5.76,0.54-8.71,1.62c-2.95,1.08-5.61,2.89-7.98,5.44c-0.18,0.22-0.36,0.45-0.56,0.69
				c-0.2,0.24-0.41,0.47-0.63,0.69l-6.4-4.55c2.11-2.07,3.91-4.86,5.41-8.38c1.49-3.52,2.66-7.21,3.5-11.08
				c-6.11,0.22-11.33,0.22-15.64,0l-0.53-7.78c1.93,0.26,4.44,0.43,7.52,0.49c3.08,0.07,6.4,0.03,9.96-0.1
				c0.53-4.18,0.73-7.96,0.59-11.35h8.31c0,3.21-0.26,6.86-0.79,10.95c3.08-0.22,6.05-0.48,8.91-0.79c2.86-0.31,5.45-0.65,7.78-1.02
				c2.33-0.37,4.22-0.78,5.67-1.22l-0.53,7.78c-2.6,0.57-5.96,1.09-10.09,1.55c-4.13,0.46-8.47,0.82-13,1.09
				c-0.44,2.02-0.93,4.05-1.48,6.07c-0.55,2.02-1.2,3.98-1.95,5.87c1.93-1.01,3.84-1.79,5.71-2.34c1.87-0.55,3.73-0.82,5.57-0.82
				c3.12-0.04,5.9,0.48,8.35,1.58c2.44,1.1,4.36,2.67,5.77,4.72c1.41,2.05,2.11,4.5,2.11,7.36c0,5.81-2.44,10.27-7.32,13.39
				C750.21,180.8,743.15,182.21,733.91,181.9z"/>
			<path class="st2" d="M805.43,182.82v-22.43c-2.95,3.74-6.34,7.26-10.19,10.56c-3.85,3.3-8.04,6.22-12.57,8.77
				c-0.35-0.62-0.84-1.33-1.45-2.14c-0.62-0.81-1.25-1.59-1.91-2.34c-0.66-0.75-1.21-1.27-1.65-1.58c2.11-0.97,4.33-2.21,6.66-3.73
				c2.33-1.52,4.64-3.21,6.93-5.08c2.29-1.87,4.42-3.8,6.4-5.81c1.98-2,3.67-3.95,5.08-5.84h-22.17v-7.12h24.87v-7.78h-20.85v-7.19
				h20.85v-8.31h7.78v8.31h20.71v7.19h-20.71v7.78h24.87v7.12h-22.3c2.02,2.6,4.45,5.2,7.29,7.82c2.84,2.62,5.83,5,8.97,7.16
				c3.14,2.16,6.15,3.92,9,5.28c-0.62,0.4-1.29,0.98-2.01,1.75c-0.73,0.77-1.41,1.58-2.05,2.44c-0.64,0.86-1.15,1.62-1.55,2.28
				c-2.46-1.28-5.03-2.91-7.69-4.91c-2.66-2-5.25-4.24-7.75-6.73c-2.51-2.48-4.77-5.11-6.79-7.88v22.43H805.43z"/>
			<path class="st2" d="M874.7,182.82V162.5c-2.95,3.65-6.34,7.08-10.19,10.29c-3.85,3.21-8.04,6.07-12.57,8.58
				c-0.31-0.62-0.77-1.33-1.39-2.14c-0.62-0.81-1.24-1.58-1.88-2.31c-0.64-0.73-1.18-1.24-1.62-1.55c2.51-1.14,5.17-2.66,7.98-4.55
				c2.81-1.89,5.55-3.98,8.21-6.27c2.66-2.29,5-4.57,7.03-6.86h-20.85v-6.99h13.52c-0.48-1.1-1.09-2.31-1.81-3.63
				c-0.73-1.32-1.47-2.59-2.24-3.83c-0.77-1.23-1.48-2.24-2.14-3.03l6.33-3.3h-10.62v-6.99h22.23v-6.99h7.72v6.99h22.23v6.99h-11.48
				l6.66,2.64c-0.79,1.58-1.79,3.4-3,5.44c-1.21,2.05-2.39,3.95-3.53,5.71h14.32v6.99h-20.98c2.15,2.29,4.56,4.51,7.22,6.66
				c2.66,2.16,5.4,4.11,8.21,5.87c2.81,1.76,5.5,3.21,8.05,4.35c-0.62,0.44-1.28,1.05-1.98,1.81c-0.7,0.77-1.36,1.57-1.98,2.41
				c-0.62,0.83-1.1,1.6-1.45,2.31c-2.46-1.23-5.01-2.78-7.65-4.65c-2.64-1.87-5.22-3.98-7.75-6.33c-2.53-2.35-4.83-4.85-6.89-7.49
				v20.19H874.7z M866.71,150.7h7.98v-13.79h-11.08c0.88,1.1,1.79,2.35,2.74,3.76c0.95,1.41,1.82,2.79,2.64,4.16
				c0.81,1.36,1.46,2.57,1.95,3.63L866.71,150.7z M882.42,150.7h6.99c-0.66-0.35-1.33-0.7-2.01-1.06c-0.68-0.35-1.26-0.62-1.75-0.79
				c0.7-0.97,1.51-2.19,2.41-3.66c0.9-1.47,1.77-2.97,2.61-4.49c0.83-1.52,1.47-2.78,1.91-3.79h-10.16V150.7z"/>
			<path class="st2" d="M685.16,271.63l-1.12-6.99c0.88-0.04,2.05-0.12,3.5-0.23c1.45-0.11,3.03-0.23,4.75-0.36v-4.62
				c-2.46,0.97-4.97,1.88-7.52,2.74c-2.55,0.86-5.1,1.62-7.65,2.28c-0.18-0.92-0.57-2.06-1.19-3.4c-0.62-1.34-1.21-2.36-1.78-3.07
				c2.9-0.48,6.15-1.29,9.73-2.41c3.58-1.12,6.98-2.36,10.19-3.73h-18.14v-5.94h27.84v-2.7h-3.3c-0.09-0.75-0.25-1.69-0.49-2.84
				c-0.24-1.14-0.5-2.02-0.76-2.64h2.57c0.75,0,1.19-0.24,1.32-0.73c0.09-0.09,0.14-0.37,0.17-0.86c0.02-0.48,0.03-0.83,0.03-1.06
				h-5.54v9.1h-6.93v-9.1h-4.68v7.98h-6.86v-13.13h11.55v-2.31h-14.45v-5.01h3.63c-0.79-0.48-1.61-0.92-2.44-1.32
				c-0.84-0.4-1.54-0.68-2.11-0.86c0.7-0.75,1.45-1.7,2.24-2.87c0.79-1.16,1.51-2.34,2.14-3.53c0.64-1.19,1.11-2.22,1.42-3.1
				l6.6,1.72c-0.18,0.4-0.36,0.8-0.56,1.22c-0.2,0.42-0.41,0.85-0.63,1.29h4.16v-4.22h6.93v4.22h12.27v5.01h-12.27v2.44h13.79v5.01
				h-13.79v2.31h12.34v7.92c0,1.54-0.46,2.77-1.39,3.69h2.7v4.35h23.49v5.94h-8.05l3.76,3.5c-0.97,0.75-2.11,1.55-3.43,2.41
				c-1.32,0.86-2.62,1.66-3.89,2.41c1.94,1.01,4,1.94,6.2,2.77c2.2,0.84,4.51,1.54,6.93,2.11c-0.79,0.7-1.59,1.7-2.41,3
				c-0.81,1.3-1.4,2.45-1.75,3.46c-3.69-1.06-7.22-2.5-10.59-4.32c-3.36-1.82-6.42-3.97-9.17-6.43c-2.75-2.46-5.07-5.15-6.96-8.05
				c-1.85,1.19-3.83,2.31-5.94,3.36v7.26c2.73-0.31,5.3-0.62,7.72-0.92c2.42-0.31,4.31-0.62,5.67-0.92v6.4
				c-1.72,0.35-3.78,0.71-6.2,1.09c-2.42,0.37-4.96,0.74-7.62,1.09c-2.66,0.35-5.21,0.67-7.65,0.96
				C689.09,271.29,686.96,271.5,685.16,271.63z M681.86,222.61h8.97v-2.44h-7.19c-0.31,0.44-0.6,0.87-0.89,1.29
				C682.47,221.88,682.17,222.26,681.86,222.61z M717.29,256.26c0.92-0.57,1.98-1.26,3.17-2.08c1.19-0.81,2.29-1.59,3.3-2.34H712.6
				c0.7,0.79,1.45,1.55,2.24,2.28C715.64,254.84,716.45,255.55,717.29,256.26z M713.86,234.88v-21.64h7.06v21.64H713.86z
				 M721.11,243.72c-0.04-1.01-0.23-2.2-0.56-3.56c-0.33-1.36-0.67-2.46-1.02-3.3h3.76c0.88,0,1.51-0.13,1.88-0.4
				c0.37-0.26,0.56-0.81,0.56-1.65V211.4h7.12v25.93c0,2.24-0.65,3.87-1.95,4.88c-1.3,1.01-3.24,1.52-5.84,1.52H721.11z"/>
			<path class="st2" d="M753.97,271.23v-33.65c-0.97,1.32-1.95,2.55-2.94,3.69c-0.99,1.14-1.97,2.16-2.94,3.03
				c-0.7-0.79-1.61-1.65-2.71-2.57c-1.1-0.92-2.11-1.65-3.03-2.18c1.23-1.01,2.54-2.4,3.93-4.16c1.39-1.76,2.77-3.7,4.16-5.84
				c1.39-2.13,2.69-4.3,3.93-6.5c1.23-2.2,2.29-4.29,3.17-6.27c0.88-1.98,1.49-3.65,1.85-5.01l7.19,2.44
				c-1.1,3.47-2.68,7.12-4.75,10.95v12.07c1.45-1.54,2.9-3.44,4.35-5.71c1.45-2.26,2.83-4.64,4.12-7.12
				c1.3-2.48,2.41-4.89,3.33-7.22c0.92-2.33,1.56-4.35,1.91-6.07l7.32,2.18c-0.4,1.5-0.88,3.02-1.45,4.58
				c-0.57,1.56-1.21,3.13-1.91,4.72h24.67v7.32h-17.68v7.06h15.44v7.06h-15.44v7.06h15.57v7.32h-15.57v12.6h-7.85v-41.1h-2.84
				c-1.45,2.55-2.98,4.97-4.58,7.26c-1.61,2.29-3.22,4.24-4.85,5.87c-0.48-0.57-1.14-1.18-1.98-1.81c-0.84-0.64-1.69-1.22-2.57-1.75
				v31.73H753.97z"/>
			<path class="st2" d="M818.49,271.63c-0.88-0.57-2.04-1.18-3.46-1.81c-1.43-0.64-2.65-1.09-3.66-1.35
				c2.2-2.86,3.83-6.42,4.88-10.69c1.06-4.27,1.58-8.73,1.58-13.39v-18.93h23.82v22.5h-16.36c-0.22,5.06-0.91,9.52-2.08,13.39
				C822.04,265.21,820.47,268.64,818.49,271.63z M814.99,220.9v-6.73h28.04v6.73H814.99z M825.35,241.15h8.84v-8.77h-8.84V241.15z
				 M859.33,271.23v-32.72h-5.81c-0.13,5.06-0.9,9.6-2.31,13.62c-1.41,4.02-3.24,7.55-5.51,10.59c-2.27,3.03-4.78,5.63-7.55,7.78
				c-0.4-0.48-0.97-1.07-1.72-1.75c-0.75-0.68-1.54-1.35-2.38-2.01c-0.84-0.66-1.58-1.16-2.24-1.52c2.64-1.85,5-4.01,7.09-6.5
				c2.09-2.48,3.73-5.51,4.92-9.07s1.78-7.89,1.78-13v-21.24c2.68-0.13,5.51-0.43,8.48-0.89c2.97-0.46,5.84-1.03,8.61-1.72
				c2.77-0.68,5.12-1.44,7.06-2.28l4.09,6.53c-1.8,0.7-3.89,1.38-6.27,2.01c-2.38,0.64-4.78,1.19-7.22,1.65s-4.7,0.8-6.76,1.02v9.5
				h20.39v7.26h-6.99v32.72H859.33z"/>
		</g>
	</g>
	<g>
		
			<radialGradient id="SVGID_00000092433263070529410980000009897080805303574202_" cx="113.7664" cy="981.1216" r="379.1794" gradientUnits="userSpaceOnUse">
			<stop  offset="0" style="stop-color:#1BA1BC"/>
			<stop  offset="1" style="stop-color:#00A290"/>
		</radialGradient>
		<circle style="fill:url(#SVGID_00000092433263070529410980000009897080805303574202_);" cx="274.66" cy="1072.9" r="197.2"/>
		<g>
			<path class="st2" d="M234.34,997.36c-2.2,1.23-4.27,1.73-6.2,1.48c-1.94-0.24-3.65-1.48-5.15-3.73c-1.36-2.11-2.62-4.6-3.76-7.45
				c-1.14-2.86-2.12-5.89-2.94-9.1c-0.81-3.21-1.43-6.42-1.85-9.63c-0.42-3.21-0.6-6.22-0.56-9.04l8.05,0.07
				c-0.13,2.16-0.07,4.51,0.2,7.06c0.26,2.55,0.68,5.12,1.25,7.72c0.57,2.6,1.25,5,2.04,7.22c0.79,2.22,1.65,4.08,2.57,5.57
				c0.62,1.06,1.29,1.66,2.01,1.81c0.73,0.15,1.51-0.03,2.34-0.56c1.06-0.7,2.17-1.67,3.33-2.9c1.16-1.23,2.14-2.42,2.94-3.56
				c0.22,0.66,0.58,1.41,1.09,2.24c0.51,0.84,1.06,1.65,1.65,2.44s1.13,1.43,1.62,1.91c-1.19,1.76-2.54,3.39-4.06,4.88
				C237.41,995.29,235.88,996.48,234.34,997.36z M259.28,985.02c-0.44-1.28-1.12-2.86-2.05-4.75c-0.92-1.89-1.98-3.86-3.17-5.9
				s-2.38-3.94-3.56-5.67c-1.19-1.74-2.29-3.09-3.3-4.06l6.33-4.02c1.1,1.1,2.32,2.57,3.66,4.42c1.34,1.85,2.66,3.82,3.96,5.9
				c1.3,2.09,2.45,4.11,3.46,6.07c1.01,1.96,1.74,3.62,2.18,4.98c-1.36,0.26-2.74,0.68-4.12,1.25
				C261.29,983.81,260.16,984.41,259.28,985.02z"/>
			<path class="st2" d="M303.61,997.36c-2.2,1.23-4.27,1.73-6.2,1.48c-1.94-0.24-3.65-1.48-5.15-3.73c-1.36-2.11-2.62-4.6-3.76-7.45
				c-1.14-2.86-2.12-5.89-2.94-9.1c-0.81-3.21-1.43-6.42-1.85-9.63c-0.42-3.21-0.6-6.22-0.56-9.04l8.05,0.07
				c-0.13,2.16-0.07,4.51,0.2,7.06c0.26,2.55,0.68,5.12,1.25,7.72c0.57,2.6,1.25,5,2.04,7.22c0.79,2.22,1.65,4.08,2.57,5.57
				c0.62,1.06,1.29,1.66,2.01,1.81c0.73,0.15,1.51-0.03,2.34-0.56c1.06-0.7,2.17-1.67,3.33-2.9c1.16-1.23,2.14-2.42,2.94-3.56
				c0.22,0.66,0.58,1.41,1.09,2.24c0.51,0.84,1.06,1.65,1.65,2.44s1.13,1.43,1.62,1.91c-1.19,1.76-2.54,3.39-4.06,4.88
				C306.68,995.29,305.15,996.48,303.61,997.36z M328.55,985.02c-0.44-1.28-1.12-2.86-2.05-4.75c-0.92-1.89-1.98-3.86-3.17-5.9
				s-2.38-3.94-3.56-5.67c-1.19-1.74-2.29-3.09-3.3-4.06l6.33-4.02c1.1,1.1,2.32,2.57,3.66,4.42c1.34,1.85,2.66,3.82,3.96,5.9
				c1.3,2.09,2.45,4.11,3.46,6.07c1.01,1.96,1.74,3.62,2.18,4.98c-1.36,0.26-2.74,0.68-4.12,1.25
				C330.56,983.81,329.43,984.41,328.55,985.02z"/>
			<path class="st2" d="M183.55,1097.18v-17.35h-8.31v-6.73h8.31v-22.63h17.61v-4.82h-24.94v-6.4h57.99v6.4h-25.07v4.82h17.94v22.63
				h8.25v6.73h-8.25v10.42c0,2.42-0.68,4.17-2.05,5.24c-1.36,1.08-3.45,1.62-6.27,1.62h-5.74c-0.04-0.7-0.16-1.56-0.36-2.57
				c-0.2-1.01-0.41-2.01-0.63-3c-0.22-0.99-0.46-1.77-0.73-2.34h5.41c0.88,0,1.52-0.14,1.91-0.43c0.4-0.29,0.59-0.87,0.59-1.75
				v-7.19h-27.77v17.35H183.55z M191.46,1061.89h9.7v-4.88h-9.7V1061.89z M191.46,1073.1h9.7v-5.15h-9.7V1073.1z M209.14,1061.89
				h10.09v-4.88h-10.09V1061.89z M209.14,1073.1h10.09v-5.15h-10.09V1073.1z"/>
			<path class="st2" d="M247.93,1082.93v-8.25c1.45,0.13,4.18,0.21,8.18,0.23c4,0.02,8.84,0.06,14.51,0.1v-17.28
				c-2.46,0-4.83,0.02-7.09,0.07c-2.27,0.04-4.21,0.08-5.84,0.1c-1.63,0.02-2.75,0.08-3.36,0.16v-8.25
				c1.28,0.13,3.73,0.22,7.36,0.26c3.63,0.04,8.04,0.07,13.23,0.07c5.01,0,9.33-0.02,12.96-0.07c3.63-0.04,6.04-0.13,7.22-0.26v8.25
				c-0.97-0.09-2.85-0.15-5.64-0.2c-2.79-0.04-6.32-0.09-10.59-0.13v17.22c3.61,0,6.92-0.01,9.93-0.03c3.01-0.02,5.54-0.05,7.59-0.1
				c2.05-0.04,3.44-0.09,4.19-0.13v8.25c-1.41-0.13-4.39-0.22-8.94-0.26c-4.55-0.04-10.24-0.07-17.05-0.07c-2.86,0-5.72,0-8.58,0
				c-2.86,0-5.53,0.02-8.02,0.07c-2.49,0.04-4.61,0.08-6.37,0.1C249.87,1082.79,248.64,1082.85,247.93,1082.93z"/>
			<path class="st2" d="M340.23,1095.99v-19.92c-3.26,1.8-6.62,3.43-10.09,4.88c-3.47,1.45-6.91,2.75-10.29,3.89
				c-0.35-1.01-0.95-2.23-1.78-3.66c-0.84-1.43-1.65-2.65-2.44-3.66c6.6-1.76,12.92-4.14,18.97-7.16
				c6.05-3.01,11.29-6.48,15.73-10.39c-2.38,0.04-4.93,0.09-7.65,0.13c-2.73,0.04-5.34,0.1-7.85,0.17c-2.51,0.07-4.67,0.13-6.5,0.2
				c-1.83,0.07-3.02,0.12-3.6,0.17v-7.85c0.7,0.04,1.91,0.1,3.63,0.17c1.72,0.07,3.75,0.11,6.1,0.13c2.35,0.02,4.79,0.03,7.32,0.03
				c2.53,0,4.96-0.01,7.29-0.03c2.33-0.02,4.36-0.05,6.1-0.1c1.74-0.04,2.96-0.11,3.66-0.2l4.42,4.35c-2.02,2.64-4.28,5.1-6.76,7.39
				c-2.49,2.29-5.16,4.42-8.02,6.4v25.07H340.23z M350.26,1051.13c-0.66-0.35-1.74-0.85-3.23-1.48c-1.5-0.64-3.17-1.3-5.01-1.98
				c-1.85-0.68-3.61-1.31-5.28-1.88c-1.67-0.57-3.01-0.97-4.02-1.19l3.23-7.19c0.83,0.18,2.06,0.53,3.66,1.06
				c1.6,0.53,3.33,1.12,5.18,1.78c1.85,0.66,3.56,1.31,5.15,1.95c1.58,0.64,2.77,1.18,3.56,1.62L350.26,1051.13z M366.55,1086.56
				c-0.7-0.75-1.66-1.67-2.87-2.77c-1.21-1.1-2.53-2.22-3.96-3.36c-1.43-1.14-2.79-2.19-4.09-3.13c-1.3-0.95-2.36-1.62-3.2-2.01
				l4.62-6c0.92,0.48,2.08,1.18,3.46,2.08c1.39,0.9,2.83,1.88,4.32,2.94c1.5,1.06,2.87,2.09,4.12,3.1c1.25,1.01,2.21,1.87,2.87,2.57
				L366.55,1086.56z"/>
			<path class="st2" d="M179.39,1185.72c-0.26-0.84-0.73-1.9-1.39-3.2c-0.66-1.3-1.3-2.36-1.91-3.2c3.96-0.53,7.18-1.28,9.67-2.24
				c2.48-0.97,4.41-2.28,5.77-3.93c1.36-1.65,2.26-3.68,2.71-6.1h-14.65v-7.06h15.11v-6.2h-5.08v-3.5
				c-3.83,3.3-7.81,5.96-11.94,7.98c-0.26-0.48-0.66-1.08-1.19-1.78c-0.53-0.7-1.1-1.39-1.72-2.04c-0.62-0.66-1.19-1.14-1.72-1.45
				c2.02-0.88,4.03-1.97,6.04-3.27c2-1.3,3.88-2.69,5.64-4.19c-1.01-1.06-2.18-2.18-3.5-3.36s-2.49-2.11-3.5-2.77l4.55-4.49
				c1.06,0.66,2.26,1.55,3.63,2.67c1.36,1.12,2.59,2.19,3.69,3.2c1.01-1.14,1.94-2.26,2.77-3.36c0.83-1.1,1.54-2.15,2.11-3.17
				h-14.65v-6.2h21.31l3.5,2.38c-1.19,2.86-2.73,5.65-4.62,8.38c-1.89,2.73-4.02,5.3-6.4,7.72h23.75c-2.68-2.59-5.11-5.45-7.29-8.58
				c-2.18-3.12-3.97-6.4-5.38-9.83l6.14-2.44c1.06,2.38,2.46,4.84,4.22,7.39c0.83-0.62,1.73-1.33,2.67-2.14
				c0.95-0.81,1.85-1.63,2.7-2.44c0.86-0.81,1.53-1.48,2.01-2.01l4.82,4.35c-0.66,0.7-1.47,1.51-2.44,2.41
				c-0.97,0.9-1.95,1.78-2.94,2.64c-0.99,0.86-1.9,1.59-2.74,2.21c0.44,0.48,0.9,0.97,1.39,1.45c0.48,0.48,0.97,0.97,1.45,1.45
				c0.83-0.62,1.77-1.37,2.8-2.28c1.03-0.9,2.02-1.8,2.97-2.7c0.95-0.9,1.68-1.66,2.21-2.28l4.88,4.35
				c-0.62,0.66-1.38,1.43-2.28,2.31c-0.9,0.88-1.84,1.74-2.8,2.57c-0.97,0.84-1.87,1.58-2.7,2.24c3.25,2.42,6.66,4.29,10.23,5.61
				c-0.84,0.7-1.74,1.68-2.71,2.94c-0.97,1.25-1.67,2.34-2.11,3.27c-3.87-1.85-7.59-4.18-11.15-6.99v3.76h-5.87v6.2h15.04v7.06
				h-15.04v9.04c0,0.62,0.15,1.06,0.46,1.32c0.31,0.26,0.95,0.4,1.91,0.4h5.61c1.1,0,1.95-0.18,2.54-0.53
				c0.59-0.35,1.06-1.04,1.39-2.08c0.33-1.03,0.63-2.52,0.89-4.45c0.92,0.62,2.08,1.21,3.46,1.78c1.39,0.57,2.56,1.01,3.53,1.32
				c-0.66,2.99-1.35,5.28-2.08,6.86c-0.73,1.58-1.68,2.66-2.87,3.23c-1.19,0.57-2.81,0.86-4.88,0.86h-10.62
				c-2.46,0-4.22-0.4-5.28-1.19c-1.06-0.79-1.58-2.09-1.58-3.89v-12.67h-6.27c-0.84,5.37-3.06,9.56-6.66,12.57
				C191.42,1182.63,186.21,1184.67,179.39,1185.72z M202.02,1159.99h5.94v-6.2h-5.94V1159.99z"/>
			<path class="st2" d="M270.63,1153.13v-12.4h-18.47v9.1h-7.52v-14.32h25.99v-3.03h-21.97v-5.74h51.79v5.74h-22.3v3.03h25.99v14.32
				h-7.52v-9.1h-18.47v12.4H270.63z M277.62,1185.79c-2.55,0-4.35-0.39-5.41-1.15c-1.06-0.77-1.58-2.03-1.58-3.79v-4.95h-19.07
				v-20.65h45.19v20.65h-18.54v1.72c0,0.57,0.14,0.99,0.43,1.25c0.29,0.26,0.91,0.4,1.88,0.4h14.51c1.67,0,2.83-0.5,3.46-1.48
				c0.64-0.99,1.09-2.89,1.35-5.71c0.79,0.44,1.89,0.91,3.3,1.42c1.41,0.51,2.59,0.87,3.56,1.09c-0.44,3.26-1.02,5.68-1.75,7.29
				s-1.71,2.66-2.94,3.17c-1.23,0.5-2.88,0.76-4.95,0.76H277.62z M254.53,1146.8v-4.09h13.33v4.09H254.53z M254.53,1152.74v-4.02
				h13.33v4.02H254.53z M259.02,1163.29h11.61v-2.97h-11.61V1163.29z M259.02,1170.81h11.61v-2.97h-11.61V1170.81z M278.22,1163.29
				h11.15v-2.97h-11.15V1163.29z M278.22,1170.81h11.15v-2.97h-11.15V1170.81z M280.79,1146.8v-4.09h13.33v4.09H280.79z
				 M280.79,1152.74v-4.02h13.33v4.02H280.79z"/>
			<path class="st2" d="M318.33,1185.92c-0.88-0.57-2.04-1.18-3.46-1.81c-1.43-0.64-2.65-1.09-3.66-1.35
				c2.2-2.86,3.83-6.42,4.88-10.69c1.06-4.27,1.58-8.73,1.58-13.39v-18.93h23.82v22.5h-16.36c-0.22,5.06-0.91,9.52-2.08,13.39
				C321.88,1179.5,320.31,1182.93,318.33,1185.92z M314.83,1135.19v-6.73h28.04v6.73H314.83z M325.19,1155.44h8.84v-8.77h-8.84
				V1155.44z M359.16,1185.53v-32.72h-5.81c-0.13,5.06-0.9,9.6-2.31,13.62c-1.41,4.02-3.24,7.55-5.51,10.59
				c-2.27,3.03-4.78,5.63-7.55,7.78c-0.4-0.48-0.97-1.07-1.72-1.75c-0.75-0.68-1.54-1.35-2.38-2.01c-0.84-0.66-1.58-1.17-2.24-1.52
				c2.64-1.85,5-4.01,7.09-6.5c2.09-2.48,3.73-5.51,4.92-9.07s1.78-7.89,1.78-13v-21.24c2.68-0.13,5.51-0.43,8.48-0.89
				c2.97-0.46,5.84-1.03,8.61-1.72c2.77-0.68,5.12-1.44,7.06-2.28l4.09,6.53c-1.8,0.7-3.89,1.38-6.27,2.01
				c-2.38,0.64-4.78,1.19-7.22,1.65s-4.7,0.8-6.76,1.02v9.5h20.39v7.26h-6.99v32.72H359.16z"/>
		</g>
	</g>
	<g>
		<circle class="st4" cx="1285.34" cy="1072.9" r="197.2"/>
		<circle class="st2" cx="1285.34" cy="1072.9" r="197.2"/>
		<circle class="st2" cx="1285.34" cy="1072.9" r="197.2"/>
		<g>
			
				<radialGradient id="SVGID_00000155866559538370734520000015434409042258975895_" cx="1124.4424" cy="981.1216" r="379.1794" gradientUnits="userSpaceOnUse">
				<stop  offset="0" style="stop-color:#1BA1BC"/>
				<stop  offset="1" style="stop-color:#00A290"/>
			</radialGradient>
			
				<circle style="opacity:0.76;fill:url(#SVGID_00000155866559538370734520000015434409042258975895_);" cx="1285.34" cy="1072.9" r="197.2"/>
			<g>
				
					<radialGradient id="SVGID_00000023970351122184366380000012211211929049357997_" cx="-560.1233" cy="4247.3076" r="95.6593" gradientTransform="matrix(0.9767 0.2145 -0.2145 0.9767 2615.5767 -2895.1064)" gradientUnits="userSpaceOnUse">
					<stop  offset="0" style="stop-color:#1BA1BC"/>
					<stop  offset="1" style="stop-color:#00A290"/>
				</radialGradient>
				<circle style="fill:url(#SVGID_00000023970351122184366380000012211211929049357997_);" cx="1192.2" cy="1164.54" r="49.74"/>
				
					<radialGradient id="SVGID_00000097491315796406530930000008710359565580122534_" cx="-547.0482" cy="4033.6077" r="95.6593" gradientTransform="matrix(0.9767 0.2145 -0.2145 0.9767 2615.5767 -2895.1064)" gradientUnits="userSpaceOnUse">
					<stop  offset="0" style="stop-color:#1BA1BC"/>
					<stop  offset="1" style="stop-color:#00A290"/>
				</radialGradient>
				<circle style="fill:url(#SVGID_00000097491315796406530930000008710359565580122534_);" cx="1250.81" cy="958.62" r="49.74"/>
				
					<radialGradient id="SVGID_00000066486929899768322530000009088497181390061471_" cx="-463.5529" cy="4176.9834" r="79.4441" gradientTransform="matrix(0.9767 0.2145 -0.2145 0.9767 2615.5767 -2895.1064)" gradientUnits="userSpaceOnUse">
					<stop  offset="0" style="stop-color:#1BA1BC"/>
					<stop  offset="1" style="stop-color:#00A290"/>
				</radialGradient>
				<circle style="fill:url(#SVGID_00000066486929899768322530000009088497181390061471_);" cx="1295.73" cy="1111.26" r="41.31"/>
				
					<radialGradient id="SVGID_00000002358984069916543980000005665136928809378469_" cx="-411.5328" cy="4264.8101" r="79.4441" gradientTransform="matrix(0.9767 0.2145 -0.2145 0.9767 2615.5767 -2895.1064)" gradientUnits="userSpaceOnUse">
					<stop  offset="0" style="stop-color:#1BA1BC"/>
					<stop  offset="1" style="stop-color:#00A290"/>
				</radialGradient>
				<circle style="fill:url(#SVGID_00000002358984069916543980000005665136928809378469_);" cx="1327.7" cy="1208.2" r="41.31"/>
				
					<radialGradient id="SVGID_00000026163697527430355830000015079997478515142312_" cx="-613.9627" cy="4173.4473" r="79.4441" gradientTransform="matrix(0.9767 0.2145 -0.2145 0.9767 2615.5767 -2895.1064)" gradientUnits="userSpaceOnUse">
					<stop  offset="0" style="stop-color:#1BA1BC"/>
					<stop  offset="1" style="stop-color:#00A290"/>
				</radialGradient>
				<circle style="fill:url(#SVGID_00000026163697527430355830000015079997478515142312_);" cx="1149.58" cy="1075.55" r="41.31"/>
				
					<radialGradient id="SVGID_00000151531664872458736060000004607302253180175272_" cx="-428.5561" cy="4040.0283" r="79.4441" gradientTransform="matrix(0.9767 0.2145 -0.2145 0.9767 2615.5767 -2895.1064)" gradientUnits="userSpaceOnUse">
					<stop  offset="0" style="stop-color:#1BA1BC"/>
					<stop  offset="1" style="stop-color:#00A290"/>
				</radialGradient>
				<circle style="fill:url(#SVGID_00000151531664872458736060000004607302253180175272_);" cx="1359.28" cy="985" r="41.31"/>
				
					<radialGradient id="SVGID_00000094588435103153266710000006553573126430564540_" cx="-376.701" cy="4149.1484" r="79.4441" gradientTransform="matrix(0.9767 0.2145 -0.2145 0.9767 2615.5767 -2895.1064)" gradientUnits="userSpaceOnUse">
					<stop  offset="0" style="stop-color:#1BA1BC"/>
					<stop  offset="1" style="stop-color:#00A290"/>
				</radialGradient>
				<circle style="fill:url(#SVGID_00000094588435103153266710000006553573126430564540_);" cx="1386.53" cy="1102.7" r="41.31"/>
				
					<radialGradient id="SVGID_00000070806854991908250330000017209789813520990097_" cx="-433.4526" cy="4118.2148" r="41.8995" gradientTransform="matrix(0.9767 0.2145 -0.2145 0.9767 2615.5767 -2895.1064)" gradientUnits="userSpaceOnUse">
					<stop  offset="0" style="stop-color:#1BA1BC"/>
					<stop  offset="1" style="stop-color:#00A290"/>
				</radialGradient>
				<circle style="fill:url(#SVGID_00000070806854991908250330000017209789813520990097_);" cx="1324.12" cy="1048.02" r="21.79"/>
				
					<radialGradient id="SVGID_00000130633673537440165550000005316639026304583097_" cx="-335.0709" cy="4238.2153" r="41.8995" gradientTransform="matrix(0.9767 0.2145 -0.2145 0.9767 2615.5767 -2895.1064)" gradientUnits="userSpaceOnUse">
					<stop  offset="0" style="stop-color:#1BA1BC"/>
					<stop  offset="1" style="stop-color:#00A290"/>
				</radialGradient>
				<circle style="fill:url(#SVGID_00000130633673537440165550000005316639026304583097_);" cx="1394.47" cy="1186.33" r="21.79"/>
				
					<radialGradient id="SVGID_00000112605251011963290220000008055551051972136114_" cx="-452.3379" cy="3991.6702" r="41.8995" gradientTransform="matrix(0.9767 0.2145 -0.2145 0.9767 2615.5767 -2895.1064)" gradientUnits="userSpaceOnUse">
					<stop  offset="0" style="stop-color:#1BA1BC"/>
					<stop  offset="1" style="stop-color:#00A290"/>
				</radialGradient>
				<circle style="fill:url(#SVGID_00000112605251011963290220000008055551051972136114_);" cx="1332.82" cy="920.37" r="21.79"/>
				
					<radialGradient id="SVGID_00000020395183607668990630000013129999637542789010_" cx="-341.2365" cy="4049.2078" r="41.8995" gradientTransform="matrix(0.9767 0.2145 -0.2145 0.9767 2615.5767 -2895.1064)" gradientUnits="userSpaceOnUse">
					<stop  offset="0" style="stop-color:#1BA1BC"/>
					<stop  offset="1" style="stop-color:#00A290"/>
				</radialGradient>
				<circle style="fill:url(#SVGID_00000020395183607668990630000013129999637542789010_);" cx="1428.99" cy="1000.4" r="21.79"/>
				
					<radialGradient id="SVGID_00000077292976510054242510000014510807371999781254_" cx="-313.9671" cy="4097.9717" r="41.8995" gradientTransform="matrix(0.9767 0.2145 -0.2145 0.9767 2615.5767 -2895.1064)" gradientUnits="userSpaceOnUse">
					<stop  offset="0" style="stop-color:#1BA1BC"/>
					<stop  offset="1" style="stop-color:#00A290"/>
				</radialGradient>
				<circle style="fill:url(#SVGID_00000077292976510054242510000014510807371999781254_);" cx="1445.17" cy="1053.88" r="21.79"/>
				
					<radialGradient id="SVGID_00000048488277985618873210000005996150663116338604_" cx="-485.1113" cy="4124.9556" r="41.8995" gradientTransform="matrix(0.9767 0.2145 -0.2145 0.9767 2615.5767 -2895.1064)" gradientUnits="userSpaceOnUse">
					<stop  offset="0" style="stop-color:#1BA1BC"/>
					<stop  offset="1" style="stop-color:#00A290"/>
				</radialGradient>
				<circle style="fill:url(#SVGID_00000048488277985618873210000005996150663116338604_);" cx="1272.22" cy="1043.53" r="21.79"/>
				
					<radialGradient id="SVGID_00000180353918602061239470000012312840017173202335_" cx="-435.5953" cy="4324.4009" r="25.6962" gradientTransform="matrix(0.9767 0.2145 -0.2145 0.9767 2615.5767 -2895.1064)" gradientUnits="userSpaceOnUse">
					<stop  offset="0" style="stop-color:#1BA1BC"/>
					<stop  offset="1" style="stop-color:#00A290"/>
				</radialGradient>
				<circle style="fill:url(#SVGID_00000180353918602061239470000012312840017173202335_);" cx="1271.93" cy="1243.64" r="13.36"/>
				
					<radialGradient id="SVGID_00000174574750458261598980000010650368948272946347_" cx="-468.4341" cy="4323.8179" r="25.6962" gradientTransform="matrix(0.9767 0.2145 -0.2145 0.9767 2615.5767 -2895.1064)" gradientUnits="userSpaceOnUse">
					<stop  offset="0" style="stop-color:#1BA1BC"/>
					<stop  offset="1" style="stop-color:#00A290"/>
				</radialGradient>
				<circle style="fill:url(#SVGID_00000174574750458261598980000010650368948272946347_);" cx="1239.98" cy="1236.03" r="13.36"/>
				
					<radialGradient id="SVGID_00000162350880522247716780000016227560414816789391_" cx="-465.3155" cy="4246.4526" r="25.6962" gradientTransform="matrix(0.9767 0.2145 -0.2145 0.9767 2615.5767 -2895.1064)" gradientUnits="userSpaceOnUse">
					<stop  offset="0" style="stop-color:#1BA1BC"/>
					<stop  offset="1" style="stop-color:#00A290"/>
				</radialGradient>
				<circle style="fill:url(#SVGID_00000162350880522247716780000016227560414816789391_);" cx="1259.62" cy="1161.14" r="13.36"/>
				
					<radialGradient id="SVGID_00000074441394790733267750000012059313883355937717_" cx="-598.4631" cy="4247.7051" r="25.6962" gradientTransform="matrix(0.9767 0.2145 -0.2145 0.9767 2615.5767 -2895.1064)" gradientUnits="userSpaceOnUse">
					<stop  offset="0" style="stop-color:#1BA1BC"/>
					<stop  offset="1" style="stop-color:#00A290"/>
				</radialGradient>
				<circle style="fill:url(#SVGID_00000074441394790733267750000012059313883355937717_);" cx="1129.3" cy="1133.8" r="13.36"/>
				
					<radialGradient id="SVGID_00000108281595307869047780000002192059948989482132_" cx="-447.6624" cy="4295.1489" r="25.6962" gradientTransform="matrix(0.9767 0.2145 -0.2145 0.9767 2615.5767 -2895.1064)" gradientUnits="userSpaceOnUse">
					<stop  offset="0" style="stop-color:#1BA1BC"/>
					<stop  offset="1" style="stop-color:#00A290"/>
				</radialGradient>
				<circle style="fill:url(#SVGID_00000108281595307869047780000002192059948989482132_);" cx="1266.42" cy="1212.48" r="13.36"/>
				
					<radialGradient id="SVGID_00000084504752191451210110000014736952457042929549_" cx="-385.0617" cy="4215.2144" r="25.6962" gradientTransform="matrix(0.9767 0.2145 -0.2145 0.9767 2615.5767 -2895.1064)" gradientUnits="userSpaceOnUse">
					<stop  offset="0" style="stop-color:#1BA1BC"/>
					<stop  offset="1" style="stop-color:#00A290"/>
				</radialGradient>
				<circle style="fill:url(#SVGID_00000084504752191451210110000014736952457042929549_);" cx="1344.71" cy="1147.84" r="13.36"/>
				
					<radialGradient id="SVGID_00000083074891248169824040000012858716508867837606_" cx="-530.246" cy="4181.127" r="25.6962" gradientTransform="matrix(0.9767 0.2145 -0.2145 0.9767 2615.5767 -2895.1064)" gradientUnits="userSpaceOnUse">
					<stop  offset="0" style="stop-color:#1BA1BC"/>
					<stop  offset="1" style="stop-color:#00A290"/>
				</radialGradient>
				<circle style="fill:url(#SVGID_00000083074891248169824040000012858716508867837606_);" cx="1210.21" cy="1083.4" r="13.36"/>
				
					<radialGradient id="SVGID_00000018223017980187772380000000633291236645737857_" cx="-544.0503" cy="4114.6533" r="25.6962" gradientTransform="matrix(0.9767 0.2145 -0.2145 0.9767 2615.5767 -2895.1064)" gradientUnits="userSpaceOnUse">
					<stop  offset="0" style="stop-color:#1BA1BC"/>
					<stop  offset="1" style="stop-color:#00A290"/>
				</radialGradient>
				<circle style="fill:url(#SVGID_00000018223017980187772380000000633291236645737857_);" cx="1210.99" cy="1015.52" r="13.36"/>
				
					<radialGradient id="SVGID_00000136384468742314806080000009312225077526873760_" cx="-502.4652" cy="4201.6602" r="25.6962" gradientTransform="matrix(0.9767 0.2145 -0.2145 0.9767 2615.5767 -2895.1064)" gradientUnits="userSpaceOnUse">
					<stop  offset="0" style="stop-color:#1BA1BC"/>
					<stop  offset="1" style="stop-color:#00A290"/>
				</radialGradient>
				<circle style="fill:url(#SVGID_00000136384468742314806080000009312225077526873760_);" cx="1232.94" cy="1109.42" r="13.36"/>
				
					<radialGradient id="SVGID_00000070108818326509381950000005357808862357100687_" cx="-568.3568" cy="4091.5549" r="25.6962" gradientTransform="matrix(0.9767 0.2145 -0.2145 0.9767 2615.5767 -2895.1064)" gradientUnits="userSpaceOnUse">
					<stop  offset="0" style="stop-color:#1BA1BC"/>
					<stop  offset="1" style="stop-color:#00A290"/>
				</radialGradient>
				<circle style="fill:url(#SVGID_00000070108818326509381950000005357808862357100687_);" cx="1192.2" cy="987.74" r="13.36"/>
				
					<radialGradient id="SVGID_00000166639029948995818580000008166494786131193000_" cx="-578.4359" cy="4122.7588" r="25.6962" gradientTransform="matrix(0.9767 0.2145 -0.2145 0.9767 2615.5767 -2895.1064)" gradientUnits="userSpaceOnUse">
					<stop  offset="0" style="stop-color:#1BA1BC"/>
					<stop  offset="1" style="stop-color:#00A290"/>
				</radialGradient>
				<circle style="fill:url(#SVGID_00000166639029948995818580000008166494786131193000_);" cx="1175.66" cy="1016.06" r="13.36"/>
				
					<radialGradient id="SVGID_00000049207799979217033090000009082545384637161862_" cx="-499.9611" cy="4166.6323" r="25.6962" gradientTransform="matrix(0.9767 0.2145 -0.2145 0.9767 2615.5767 -2895.1064)" gradientUnits="userSpaceOnUse">
					<stop  offset="0" style="stop-color:#1BA1BC"/>
					<stop  offset="1" style="stop-color:#00A290"/>
				</radialGradient>
				<circle style="fill:url(#SVGID_00000049207799979217033090000009082545384637161862_);" cx="1242.9" cy="1075.74" r="13.36"/>
				
					<radialGradient id="SVGID_00000122678527273934919450000005467770991039583655_" cx="-518.6918" cy="4136.3306" r="25.6962" gradientTransform="matrix(0.9767 0.2145 -0.2145 0.9767 2615.5767 -2895.1064)" gradientUnits="userSpaceOnUse">
					<stop  offset="0" style="stop-color:#1BA1BC"/>
					<stop  offset="1" style="stop-color:#00A290"/>
				</radialGradient>
				<circle style="fill:url(#SVGID_00000122678527273934919450000005467770991039583655_);" cx="1231.11" cy="1042.13" r="13.36"/>
				
					<radialGradient id="SVGID_00000150813278301727812540000012302576321412526254_" cx="-355.2079" cy="4017.3904" r="25.6962" gradientTransform="matrix(0.9767 0.2145 -0.2145 0.9767 2615.5767 -2895.1064)" gradientUnits="userSpaceOnUse">
					<stop  offset="0" style="stop-color:#1BA1BC"/>
					<stop  offset="1" style="stop-color:#00A290"/>
				</radialGradient>
				<circle style="fill:url(#SVGID_00000150813278301727812540000012302576321412526254_);" cx="1416.3" cy="961.02" r="13.36"/>
				
					<radialGradient id="SVGID_00000002382699671220021180000008641700472161943727_" cx="-601.8591" cy="4101.4014" r="25.6962" gradientTransform="matrix(0.9767 0.2145 -0.2145 0.9767 2615.5767 -2895.1064)" gradientUnits="userSpaceOnUse">
					<stop  offset="0" style="stop-color:#1BA1BC"/>
					<stop  offset="1" style="stop-color:#00A290"/>
				</radialGradient>
				<circle style="fill:url(#SVGID_00000002382699671220021180000008641700472161943727_);" cx="1157.37" cy="990.17" r="13.36"/>
				
					<radialGradient id="SVGID_00000123409251285839463540000012538912144202185913_" cx="-622.0165" cy="4130.9897" r="25.6962" gradientTransform="matrix(0.9767 0.2145 -0.2145 0.9767 2615.5767 -2895.1064)" gradientUnits="userSpaceOnUse">
					<stop  offset="0" style="stop-color:#1BA1BC"/>
					<stop  offset="1" style="stop-color:#00A290"/>
				</radialGradient>
				<circle style="fill:url(#SVGID_00000123409251285839463540000012538912144202185913_);" cx="1131.33" cy="1014.75" r="13.36"/>
				
					<radialGradient id="SVGID_00000181794279218019852050000006601849990515026347_" cx="-382.7068" cy="4108.2583" r="25.6962" gradientTransform="matrix(0.9767 0.2145 -0.2145 0.9767 2615.5767 -2895.1064)" gradientUnits="userSpaceOnUse">
					<stop  offset="0" style="stop-color:#1BA1BC"/>
					<stop  offset="1" style="stop-color:#00A290"/>
				</radialGradient>
				<circle style="fill:url(#SVGID_00000181794279218019852050000006601849990515026347_);" cx="1369.95" cy="1043.87" r="13.36"/>
				
					<radialGradient id="SVGID_00000160183257072466121050000005666624310408189065_" cx="-294.1944" cy="4143.0913" r="25.6962" gradientTransform="matrix(0.9767 0.2145 -0.2145 0.9767 2615.5767 -2895.1064)" gradientUnits="userSpaceOnUse">
					<stop  offset="0" style="stop-color:#1BA1BC"/>
					<stop  offset="1" style="stop-color:#00A290"/>
				</radialGradient>
				<circle style="fill:url(#SVGID_00000160183257072466121050000005666624310408189065_);" cx="1448.93" cy="1096.88" r="13.36"/>
				
					<radialGradient id="SVGID_00000175293817742937683280000017627188423173869707_" cx="-458.0852" cy="4091.502" r="25.6962" gradientTransform="matrix(0.9767 0.2145 -0.2145 0.9767 2615.5767 -2895.1064)" gradientUnits="userSpaceOnUse">
					<stop  offset="0" style="stop-color:#1BA1BC"/>
					<stop  offset="1" style="stop-color:#00A290"/>
				</radialGradient>
				<circle style="fill:url(#SVGID_00000175293817742937683280000017627188423173869707_);" cx="1299.92" cy="1011.34" r="13.36"/>
				
					<radialGradient id="SVGID_00000173869725972501132080000012083813804576128702_" cx="-453.334" cy="4032.6509" r="17.3268" gradientTransform="matrix(0.9767 0.2145 -0.2145 0.9767 2615.5767 -2895.1064)" gradientUnits="userSpaceOnUse">
					<stop  offset="0" style="stop-color:#1BA1BC"/>
					<stop  offset="1" style="stop-color:#00A290"/>
				</radialGradient>
				<circle style="fill:url(#SVGID_00000173869725972501132080000012083813804576128702_);" cx="1314.15" cy="952.14" r="9.01"/>
				
					<radialGradient id="SVGID_00000123410893216598466060000002302514576007230138_" cx="-291.8543" cy="4173.958" r="17.3268" gradientTransform="matrix(0.9767 0.2145 -0.2145 0.9767 2615.5767 -2895.1064)" gradientUnits="userSpaceOnUse">
					<stop  offset="0" style="stop-color:#1BA1BC"/>
					<stop  offset="1" style="stop-color:#00A290"/>
				</radialGradient>
				<circle style="fill:url(#SVGID_00000123410893216598466060000002302514576007230138_);" cx="1441.56" cy="1124.79" r="9.01"/>
				
					<radialGradient id="SVGID_00000006706930103148137890000005103356413986648995_" cx="-352.7213" cy="4220.0107" r="17.3268" gradientTransform="matrix(0.9767 0.2145 -0.2145 0.9767 2615.5767 -2895.1064)" gradientUnits="userSpaceOnUse">
					<stop  offset="0" style="stop-color:#1BA1BC"/>
					<stop  offset="1" style="stop-color:#00A290"/>
				</radialGradient>
				<circle style="fill:url(#SVGID_00000006706930103148137890000005103356413986648995_);" cx="1372.23" cy="1156.72" r="9.01"/>
				
					<radialGradient id="SVGID_00000157283845462690838940000015862363237702631297_" cx="-551.7421" cy="4141.7036" r="17.3268" gradientTransform="matrix(0.9767 0.2145 -0.2145 0.9767 2615.5767 -2895.1064)" gradientUnits="userSpaceOnUse">
					<stop  offset="0" style="stop-color:#1BA1BC"/>
					<stop  offset="1" style="stop-color:#00A290"/>
				</radialGradient>
				<circle style="fill:url(#SVGID_00000157283845462690838940000015862363237702631297_);" cx="1194.64" cy="1037.55" r="9.01"/>
				
					<radialGradient id="SVGID_00000148659850591503421530000015015829709411303354_" cx="-536.6332" cy="4158.6924" r="17.3268" gradientTransform="matrix(0.9767 0.2145 -0.2145 0.9767 2615.5767 -2895.1064)" gradientUnits="userSpaceOnUse">
					<stop  offset="0" style="stop-color:#1BA1BC"/>
					<stop  offset="1" style="stop-color:#00A290"/>
				</radialGradient>
				<circle style="fill:url(#SVGID_00000148659850591503421530000015015829709411303354_);" cx="1205.75" cy="1057.38" r="9.01"/>
				
					<radialGradient id="SVGID_00000079451787548703008230000003878886270280222878_" cx="-430.1016" cy="4247.3228" r="17.3268" gradientTransform="matrix(0.9767 0.2145 -0.2145 0.9767 2615.5767 -2895.1064)" gradientUnits="userSpaceOnUse">
					<stop  offset="0" style="stop-color:#1BA1BC"/>
					<stop  offset="1" style="stop-color:#00A290"/>
				</radialGradient>
				<circle style="fill:url(#SVGID_00000079451787548703008230000003878886270280222878_);" cx="1290.79" cy="1166.8" r="9.01"/>
				
					<radialGradient id="SVGID_00000006699701842074838270000001812599725387266472_" cx="-462.7708" cy="4274.4946" r="17.3268" gradientTransform="matrix(0.9767 0.2145 -0.2145 0.9767 2615.5767 -2895.1064)" gradientUnits="userSpaceOnUse">
					<stop  offset="0" style="stop-color:#1BA1BC"/>
					<stop  offset="1" style="stop-color:#00A290"/>
				</radialGradient>
				<circle style="fill:url(#SVGID_00000006699701842074838270000001812599725387266472_);" cx="1253.06" cy="1186.33" r="9.01"/>
				
					<radialGradient id="SVGID_00000048502815714714856170000016543704513584322728_" cx="-471.428" cy="4299.5986" r="17.3268" gradientTransform="matrix(0.9767 0.2145 -0.2145 0.9767 2615.5767 -2895.1064)" gradientUnits="userSpaceOnUse">
					<stop  offset="0" style="stop-color:#1BA1BC"/>
					<stop  offset="1" style="stop-color:#00A290"/>
				</radialGradient>
				<circle style="fill:url(#SVGID_00000048502815714714856170000016543704513584322728_);" cx="1239.22" cy="1208.99" r="9.01"/>
				
					<radialGradient id="SVGID_00000003066699727811452760000004139800452110551471_" cx="-493.083" cy="4321.6372" r="17.3268" gradientTransform="matrix(0.9767 0.2145 -0.2145 0.9767 2615.5767 -2895.1064)" gradientUnits="userSpaceOnUse">
					<stop  offset="0" style="stop-color:#1BA1BC"/>
					<stop  offset="1" style="stop-color:#00A290"/>
				</radialGradient>
				<circle style="fill:url(#SVGID_00000003066699727811452760000004139800452110551471_);" cx="1213.34" cy="1225.87" r="9.01"/>
				
					<radialGradient id="SVGID_00000067916257621612384950000004342501460724098744_" cx="-488.3572" cy="3986.3667" r="25.6962" gradientTransform="matrix(0.9767 0.2145 -0.2145 0.9767 2615.5767 -2895.1064)" gradientUnits="userSpaceOnUse">
					<stop  offset="0" style="stop-color:#1BA1BC"/>
					<stop  offset="1" style="stop-color:#00A290"/>
				</radialGradient>
				<circle style="fill:url(#SVGID_00000067916257621612384950000004342501460724098744_);" cx="1292.9" cy="902.16" r="13.36"/>
				
					<radialGradient id="SVGID_00000044139014780717906900000009296332587388186296_" cx="-404.4153" cy="3994.2249" r="25.6962" gradientTransform="matrix(0.9767 0.2145 -0.2145 0.9767 2615.5767 -2895.1064)" gradientUnits="userSpaceOnUse">
					<stop  offset="0" style="stop-color:#1BA1BC"/>
					<stop  offset="1" style="stop-color:#00A290"/>
				</radialGradient>
				<circle style="fill:url(#SVGID_00000044139014780717906900000009296332587388186296_);" cx="1373.2" cy="927.84" r="13.36"/>
				
					<radialGradient id="SVGID_00000134226018120181204070000015522815001802030524_" cx="-302.3825" cy="4200.4844" r="25.6962" gradientTransform="matrix(0.9767 0.2145 -0.2145 0.9767 2615.5767 -2895.1064)" gradientUnits="userSpaceOnUse">
					<stop  offset="0" style="stop-color:#1BA1BC"/>
					<stop  offset="1" style="stop-color:#00A290"/>
				</radialGradient>
				<circle style="fill:url(#SVGID_00000134226018120181204070000015522815001802030524_);" cx="1428.62" cy="1151.18" r="13.36"/>
				
					<radialGradient id="SVGID_00000034086991272715296290000011075961410212192430_" cx="-350.6747" cy="4094.6094" r="25.6962" gradientTransform="matrix(0.9767 0.2145 -0.2145 0.9767 2615.5767 -2895.1064)" gradientUnits="userSpaceOnUse">
					<stop  offset="0" style="stop-color:#1BA1BC"/>
					<stop  offset="1" style="stop-color:#00A290"/>
				</radialGradient>
				<circle style="fill:url(#SVGID_00000034086991272715296290000011075961410212192430_);" cx="1404.16" cy="1037.41" r="13.36"/>
				
					<radialGradient id="SVGID_00000142877524751066507430000017413829985217415082_" cx="-601.0148" cy="4056.248" r="41.8995" gradientTransform="matrix(0.9767 0.2145 -0.2145 0.9767 2615.5767 -2895.1064)" gradientUnits="userSpaceOnUse">
					<stop  offset="0" style="stop-color:#1BA1BC"/>
					<stop  offset="1" style="stop-color:#00A290"/>
				</radialGradient>
				<circle style="fill:url(#SVGID_00000142877524751066507430000017413829985217415082_);" cx="1173.75" cy="951.56" r="21.79"/>
			</g>
			<g>
				<g>
					<path class="st2" d="M1239.32,1040.4c-2.52,1.41-4.89,1.98-7.1,1.7c-2.22-0.28-4.18-1.7-5.89-4.27c-1.56-2.42-3-5.26-4.31-8.54
						c-1.31-3.27-2.43-6.75-3.36-10.43c-0.93-3.68-1.64-7.36-2.12-11.03c-0.48-3.68-0.69-7.13-0.64-10.35l9.22,0.08
						c-0.15,2.47-0.08,5.16,0.23,8.09c0.3,2.92,0.78,5.87,1.44,8.84c0.65,2.97,1.44,5.73,2.34,8.28c0.91,2.54,1.89,4.67,2.95,6.39
						c0.7,1.21,1.47,1.9,2.3,2.08c0.83,0.18,1.73-0.04,2.68-0.64c1.21-0.81,2.48-1.91,3.82-3.33c1.33-1.41,2.46-2.77,3.36-4.08
						c0.25,0.76,0.67,1.61,1.25,2.57c0.58,0.96,1.21,1.89,1.89,2.8c0.68,0.91,1.3,1.64,1.85,2.19c-1.36,2.02-2.91,3.88-4.65,5.59
						C1242.83,1038.04,1241.08,1039.4,1239.32,1040.4z M1267.88,1026.27c-0.5-1.46-1.28-3.27-2.34-5.44
						c-1.06-2.17-2.27-4.42-3.63-6.76s-2.72-4.51-4.08-6.5c-1.36-1.99-2.62-3.54-3.78-4.65l7.25-4.61c1.26,1.26,2.66,2.95,4.19,5.06
						c1.54,2.12,3.05,4.37,4.53,6.76c1.49,2.39,2.81,4.71,3.97,6.95c1.16,2.24,1.99,4.14,2.49,5.71c-1.56,0.3-3.14,0.78-4.72,1.44
						C1270.19,1024.89,1268.89,1025.57,1267.88,1026.27z"/>
					<path class="st2" d="M1318.67,1040.4c-2.52,1.41-4.89,1.98-7.1,1.7c-2.22-0.28-4.18-1.7-5.89-4.27c-1.56-2.42-3-5.26-4.31-8.54
						c-1.31-3.27-2.43-6.75-3.36-10.43c-0.93-3.68-1.64-7.36-2.12-11.03c-0.48-3.68-0.69-7.13-0.64-10.35l9.22,0.08
						c-0.15,2.47-0.08,5.16,0.23,8.09c0.3,2.92,0.78,5.87,1.44,8.84c0.65,2.97,1.44,5.73,2.34,8.28c0.91,2.54,1.89,4.67,2.95,6.39
						c0.7,1.21,1.47,1.9,2.3,2.08c0.83,0.18,1.73-0.04,2.68-0.64c1.21-0.81,2.48-1.91,3.82-3.33c1.33-1.41,2.46-2.77,3.36-4.08
						c0.25,0.76,0.67,1.61,1.25,2.57c0.58,0.96,1.21,1.89,1.89,2.8c0.68,0.91,1.3,1.64,1.85,2.19c-1.36,2.02-2.91,3.88-4.65,5.59
						C1322.18,1038.04,1320.43,1039.4,1318.67,1040.4z M1347.23,1026.27c-0.5-1.46-1.28-3.27-2.34-5.44
						c-1.06-2.17-2.27-4.42-3.63-6.76s-2.72-4.51-4.08-6.5c-1.36-1.99-2.62-3.54-3.78-4.65l7.25-4.61c1.26,1.26,2.66,2.95,4.19,5.06
						c1.54,2.12,3.05,4.37,4.53,6.76c1.49,2.39,2.81,4.71,3.97,6.95c1.16,2.24,1.99,4.14,2.49,5.71c-1.56,0.3-3.14,0.78-4.72,1.44
						C1349.54,1024.89,1348.24,1025.57,1347.23,1026.27z"/>
					<path class="st2" d="M1172.59,1147.04l-2.12-8.92c1.26-0.25,2.66-0.57,4.19-0.94c1.54-0.38,3.14-0.82,4.8-1.32v-22.52h-8.16
						v-8.01h8.16v-17.31h8.77v17.31h8.01v8.01h-8.01v19.65c1.66-0.6,3.22-1.21,4.69-1.81c1.46-0.6,2.75-1.16,3.85-1.66v8.24
						c-1.26,0.66-2.91,1.42-4.95,2.3c-2.04,0.88-4.23,1.78-6.57,2.68c-2.34,0.91-4.64,1.74-6.88,2.49
						C1176.12,1145.98,1174.2,1146.59,1172.59,1147.04z M1208.86,1153.62c-2.92,0-4.99-0.45-6.2-1.36
						c-1.21-0.91-1.81-2.44-1.81-4.61v-25.39l-6.88,2.49l-3.1-7.71l9.98-3.7v-21.84h8.69v18.67l5.29-1.96v-22.14h8.39v19.04
						l10.81-4.01l3.78,1.51v25.85c0,1.86-0.47,3.36-1.4,4.5c-0.93,1.13-2.41,1.98-4.42,2.53c-0.71,0.2-1.58,0.39-2.61,0.57
						c-1.03,0.18-2.05,0.34-3.06,0.49c-0.2-1.71-0.58-3.37-1.13-4.99c-0.55-1.61-1.01-2.75-1.36-3.4h3.17
						c0.86,0,1.49-0.15,1.89-0.45c0.4-0.3,0.6-0.86,0.6-1.66v-14.51l-6.27,2.34v26.15h-8.39v-22.97l-5.29,1.96v24.49
						c0,0.76,0.19,1.3,0.57,1.62c0.38,0.33,1.12,0.49,2.23,0.49h15.11c1.31,0,2.33-0.24,3.06-0.72c0.73-0.48,1.28-1.35,1.66-2.61
						c0.38-1.26,0.67-3.07,0.87-5.44c0.96,0.5,2.29,1.05,4.01,1.62c1.71,0.58,3.22,1.02,4.53,1.32c-0.56,3.93-1.26,6.89-2.12,8.88
						c-0.86,1.99-2.02,3.31-3.48,3.97c-1.46,0.65-3.4,0.98-5.82,0.98H1208.86z"/>
					<path class="st2" d="M1251.79,1146.66l-2.34-8.62c1.21-0.25,2.58-0.58,4.12-0.98c1.54-0.4,3.11-0.83,4.72-1.28v-22.67h-7.71
						v-7.56h7.71v-16.1h8.24v16.1h6.73v7.56h-6.73v20.03c1.31-0.45,2.56-0.89,3.74-1.32c1.18-0.43,2.23-0.82,3.14-1.17v7.1
						c2.32-0.5,4.82-1.08,7.52-1.74c2.69-0.65,5.28-1.32,7.75-2c2.47-0.68,4.53-1.27,6.2-1.78v7.25c-1.11,0.45-2.6,1.01-4.46,1.66
						c-1.86,0.66-3.89,1.32-6.08,2s-4.38,1.32-6.57,1.93c-2.19,0.6-4.19,1.11-6.01,1.51l-1.74-6.5c-1.86,0.76-3.9,1.55-6.12,2.38
						c-2.22,0.83-4.38,1.61-6.5,2.34C1255.26,1145.54,1253.4,1146.16,1251.79,1146.66z M1284.58,1155.96
						c-0.5-0.96-1.22-2.09-2.15-3.4c-0.93-1.31-1.83-2.37-2.68-3.17c4.08-1.61,7.77-3.64,11.07-6.08c3.3-2.44,6.21-5.23,8.73-8.35
						c-1.01-3.68-1.81-7.88-2.42-12.62c-0.6-4.74-1.03-10.2-1.28-16.4H1274v-7.03h21.61c-0.05-2.01-0.09-4.09-0.11-6.23
						c-0.03-2.14-0.04-4.37-0.04-6.69h8.16c-0.05,4.59-0.05,8.89,0,12.92h8.31c-0.86-1.31-1.94-2.73-3.25-4.27
						c-1.31-1.54-2.47-2.78-3.48-3.74l5.44-4.31c0.76,0.66,1.61,1.47,2.57,2.46c0.96,0.98,1.89,1.96,2.8,2.95
						c0.91,0.98,1.64,1.83,2.19,2.53c-0.81,0.5-1.7,1.18-2.68,2.04c-0.98,0.86-1.83,1.64-2.53,2.34h6.73v7.03h-15.95
						c0.1,3.73,0.3,7.21,0.6,10.43c0.3,3.22,0.68,6.2,1.13,8.92c1.86-3.83,3.33-8.09,4.38-12.77l7.86,2.34
						c-1.21,4.03-2.6,7.81-4.16,11.34c-1.56,3.53-3.35,6.78-5.37,9.75c0.71,1.76,1.46,3.38,2.27,4.84c0.81,1.46,1.71,2.77,2.72,3.93
						c0.45-1.31,0.87-2.69,1.25-4.16c0.38-1.46,0.67-2.75,0.87-3.85c0.5,0.35,1.2,0.76,2.08,1.21c0.88,0.45,1.8,0.9,2.76,1.32
						c0.96,0.43,1.76,0.82,2.42,1.17c-0.4,1.76-0.98,3.8-1.74,6.12c-0.76,2.32-1.51,4.28-2.27,5.89c-0.96,2.01-2.32,3.06-4.08,3.14
						c-1.76,0.08-3.48-0.74-5.14-2.46c-1.36-1.41-2.61-2.92-3.74-4.53c-1.13-1.61-2.18-3.37-3.14-5.29
						c-2.47,2.62-5.18,4.99-8.12,7.1C1291.42,1152.48,1288.16,1154.35,1284.58,1155.96z M1274.76,1130.34v-19.42h19.42v19.42
						H1274.76z M1281.56,1123.99h5.97v-6.73h-5.97V1123.99z"/>
					<path class="st2" d="M1393.56,1140.01c-1.66-0.91-3.67-2.12-6.01-3.63s-4.84-3.19-7.48-5.03c-2.65-1.84-5.28-3.73-7.9-5.67
						c-2.62-1.94-5.06-3.82-7.33-5.63c-2.27-1.81-4.16-3.4-5.67-4.76c-0.76-0.71-1.34-1.06-1.74-1.06c-0.4,0-0.96,0.3-1.66,0.91
						c-1.56,1.46-3.38,3.04-5.44,4.72c-2.07,1.69-4.19,3.36-6.39,5.03c-2.19,1.66-4.32,3.2-6.39,4.61l-7.1-7.78
						c1.51-0.7,3.35-1.69,5.52-2.95c2.17-1.26,4.39-2.66,6.69-4.19c2.29-1.54,4.45-3.07,6.46-4.61c2.01-1.54,3.65-2.93,4.91-4.19
						c1.26-1.31,2.43-1.91,3.51-1.81c1.08,0.1,2.33,0.76,3.74,1.96c1.16,0.96,2.88,2.31,5.18,4.04c2.29,1.74,4.9,3.64,7.82,5.71
						c2.92,2.07,5.93,4.12,9.03,6.16c3.1,2.04,6.07,3.89,8.92,5.55c2.85,1.66,5.33,2.92,7.44,3.78c-0.71,0.55-1.47,1.37-2.3,2.46
						c-0.83,1.08-1.6,2.2-2.31,3.36C1394.36,1138.15,1393.86,1139.16,1393.56,1140.01z"/>
				</g>
			</g>
		</g>
	</g>
</g>
</svg>
