<?xml version="1.0" encoding="utf-8"?>
<!-- Generator: Adobe Illustrator 25.4.1, SVG Export Plug-In . SVG Version: 6.00 Build 0)  -->
<svg version="1.1" id="デザイン" xmlns="http://www.w3.org/2000/svg" xmlns:xlink="http://www.w3.org/1999/xlink" x="0px"
	 y="0px" viewBox="0 0 1560 1561.17" style="enable-background:new 0 0 1560 1561.17;" xml:space="preserve">
<style type="text/css">
	.st0{fill:none;}
	.st1{fill:url(#SVGID_1_);}
	.st2{fill:url(#SVGID_00000031899649372105754870000006163072073834694538_);}
	.st3{fill:url(#SVGID_00000098941841099223506700000016455418367353373826_);}
	.st4{fill:url(#SVGID_00000070117203434875299750000000801470562230054335_);}
	.st5{fill:url(#SVGID_00000022527564369130792910000008520896959153534378_);}
	.st6{fill:url(#SVGID_00000018940716216973563950000015770909422385678002_);}
	.st7{fill:url(#SVGID_00000067937549173662650500000014638110925338774409_);}
	
		.st8{fill:none;stroke:url(#SVGID_00000182525050372127092370000001372237781887562175_);stroke-width:12.8736;stroke-miterlimit:10;}
	
		.st9{fill:none;stroke:url(#SVGID_00000171689677663812936190000014500322669816548484_);stroke-width:12.8736;stroke-miterlimit:10;}
	.st10{fill:#00A290;}
	
		.st11{fill:none;stroke:url(#SVGID_00000087394868862381681920000017432523310858384008_);stroke-width:12.8736;stroke-miterlimit:10;}
	.st12{opacity:0.2;fill:url(#SVGID_00000003064261518620669480000014880270324362080143_);}
	.st13{fill:#FFFFFF;stroke:#009E8C;stroke-width:12.1156;stroke-miterlimit:10;}
	.st14{fill:#00A290;stroke:#009E8C;stroke-width:12.1156;stroke-miterlimit:10;}
	.st15{fill:#1BA1BC;}
	
		.st16{fill:none;stroke:url(#SVGID_00000181083900826094621680000010953526633113065652_);stroke-width:12.8736;stroke-miterlimit:10;stroke-dasharray:22.7249,11.3624;}
	
		.st17{fill:none;stroke:url(#SVGID_00000072995936888670962800000007511846399572625039_);stroke-width:12.8736;stroke-miterlimit:10;stroke-dasharray:22.7249,11.3624;}
	.st18{fill:#FFFFFF;}
</style>
<ellipse transform="matrix(0.7071 -0.7071 0.7071 0.7071 -323.9153 780.3433)" class="st0" cx="780" cy="781.17" rx="779.88" ry="779.88"/>
<g>
	<g>
		<g>
			<radialGradient id="SVGID_1_" cx="1044.4042" cy="489.7776" r="257.95" gradientUnits="userSpaceOnUse">
				<stop  offset="0" style="stop-color:#1BA1BC"/>
				<stop  offset="1" style="stop-color:#1BA1BC"/>
			</radialGradient>
			<path class="st1" d="M1024.05,431.17l2.51-5.67c0.78,0.38,1.66,0.78,2.65,1.21c0.98,0.42,2.03,0.84,3.13,1.25l9.21-12.14
				l-4.4-3.34l3.28-4.32l4.4,3.34l7.08-9.33l4.73,3.59l-7.08,9.33l4.32,3.28l-3.28,4.32l-4.32-3.28l-8.04,10.59
				c1.14,0.35,2.23,0.67,3.27,0.94c1.03,0.27,1.95,0.5,2.76,0.68l-3.37,4.44c-0.95-0.16-2.15-0.42-3.61-0.78
				c-1.46-0.36-3.01-0.77-4.64-1.24c-1.63-0.47-3.21-0.96-4.73-1.47C1026.39,432.05,1025.1,431.58,1024.05,431.17z M1040.91,449.55
				c-1.58-1.2-2.5-2.28-2.78-3.27c-0.28-0.98,0.02-2.06,0.91-3.23l10.38-13.69l-4.73-1.47l1.48-5.42l6.89,2.08l8.93-11.77l4.68,3.55
				l-7.63,10.06l3.65,1.1l9.06-11.93l4.52,3.43l-7.79,10.26l7.46,2.26l1.42,2.36l-10.57,13.93c-0.76,1-1.63,1.62-2.59,1.85
				c-0.97,0.23-2.11,0.08-3.42-0.44c-0.46-0.18-1.01-0.43-1.64-0.76c-0.63-0.33-1.25-0.66-1.85-0.99c0.59-1.01,1.07-2.06,1.43-3.15
				c0.36-1.1,0.58-1.89,0.66-2.39l1.71,1.3c0.46,0.35,0.86,0.53,1.2,0.53c0.34,0,0.68-0.21,1.01-0.65l5.93-7.82l-4.34-1.3
				l-10.69,14.09l-4.52-3.43l9.4-12.38l-3.65-1.1l-10.01,13.2c-0.31,0.41-0.43,0.78-0.36,1.11c0.07,0.33,0.4,0.72,1,1.18l8.15,6.18
				c0.71,0.54,1.35,0.82,1.94,0.86c0.59,0.04,1.24-0.2,1.96-0.73c0.72-0.52,1.62-1.38,2.69-2.58c0.31,0.66,0.81,1.5,1.49,2.51
				c0.69,1.01,1.32,1.87,1.9,2.57c-1.91,1.89-3.5,3.2-4.77,3.92c-1.28,0.72-2.44,0.96-3.5,0.72c-1.06-0.25-2.23-0.86-3.54-1.85
				L1040.91,449.55z"/>
			
				<radialGradient id="SVGID_00000020360365825046527930000003129435988559316381_" cx="1044.4042" cy="489.7776" r="257.95" gradientUnits="userSpaceOnUse">
				<stop  offset="0" style="stop-color:#1BA1BC"/>
				<stop  offset="1" style="stop-color:#1BA1BC"/>
			</radialGradient>
			<path style="fill:url(#SVGID_00000020360365825046527930000003129435988559316381_);" d="M1065.92,463.2l2.94-5.28
				c0.7,0.45,1.52,0.94,2.46,1.47c0.93,0.53,1.9,1.07,2.89,1.61l10.71-10.98l-3.73-3.64l3.57-3.66l3.73,3.64l7.61-7.79l3.99,3.89
				l-7.61,7.79l3.26,3.18l-3.57,3.66l-3.26-3.18l-9.46,9.7c0.85,0.4,1.66,0.78,2.44,1.13c0.77,0.35,1.47,0.66,2.07,0.91l-3.36,3.44
				c1.36,0.85,2.85,1.76,4.46,2.71c1.61,0.96,3.18,1.85,4.7,2.69c1.52,0.84,2.8,1.53,3.84,2.07l-3.43,3.51
				c-0.75-0.3-1.73-0.74-2.94-1.3c-1.21-0.56-2.51-1.2-3.89-1.91c-1.38-0.71-2.75-1.43-4.09-2.17c-1.35-0.74-2.55-1.45-3.62-2.11
				l2.23-3.97c-1.26-0.52-2.62-1.1-4.09-1.74c-1.47-0.65-2.88-1.29-4.25-1.94C1068.13,464.3,1066.94,463.72,1065.92,463.2z
				 M1077.41,483.2c0.21-0.7,0.4-1.59,0.56-2.66c0.17-1.08,0.23-2.01,0.2-2.8c2.74,1.15,5.48,1.91,8.24,2.29
				c2.75,0.38,5.48,0.4,8.17,0.08c1.25-2.26,2.85-4.67,4.79-7.25c1.94-2.58,4.32-5.43,7.13-8.55l-10.57-10.32l3.32-3.4l10.46,10.21
				c0.93-1,1.89-2.02,2.89-3.07c1-1.05,2.05-2.13,3.14-3.26l3.95,3.86c-2.19,2.2-4.23,4.28-6.11,6.26l4.02,3.93
				c0.2-1.04,0.35-2.24,0.44-3.6c0.09-1.36,0.12-2.51,0.08-3.45l4.67,0.49c0.06,0.67,0.08,1.48,0.08,2.4c0,0.93-0.01,1.84-0.04,2.75
				c-0.02,0.9-0.07,1.66-0.14,2.26c-0.63-0.14-1.38-0.23-2.26-0.28c-0.88-0.05-1.66-0.07-2.33-0.06l3.26,3.18l-3.32,3.4l-7.72-7.54
				c-1.71,1.85-3.26,3.63-4.64,5.34c-1.38,1.7-2.6,3.32-3.67,4.85c2.71-0.97,5.43-2.34,8.16-4.11l2.7,4.85
				c-2.49,1.38-4.95,2.55-7.37,3.52c-2.42,0.97-4.83,1.7-7.21,2.18c-0.49,1.19-0.89,2.32-1.19,3.41c-0.3,1.09-0.48,2.15-0.54,3.19
				c0.84-0.42,1.69-0.89,2.57-1.42c0.87-0.53,1.62-1.01,2.24-1.46c0.08,0.41,0.22,0.93,0.44,1.57c0.21,0.64,0.45,1.28,0.71,1.94
				c0.26,0.66,0.47,1.23,0.62,1.71c-1.03,0.66-2.27,1.38-3.73,2.14c-1.46,0.77-2.75,1.36-3.88,1.78c-1.42,0.52-2.57,0.39-3.46-0.41
				c-0.89-0.8-1.33-2-1.33-3.62c0.01-1.33,0.12-2.65,0.33-3.96c0.21-1.32,0.54-2.66,0.98-4.04c-2.43,0.1-4.86-0.03-7.29-0.4
				C1082.36,484.75,1079.9,484.11,1077.41,483.2z M1084.76,466.16l9.18-9.4l9.4,9.18l-9.18,9.4L1084.76,466.16z M1091.05,466.3
				l2.89,2.82l3.18-3.26l-2.89-2.82L1091.05,466.3z"/>
			
				<radialGradient id="SVGID_00000104696528234303684470000012243339954256528282_" cx="1044.4042" cy="489.7776" r="257.95" gradientUnits="userSpaceOnUse">
				<stop  offset="0" style="stop-color:#1BA1BC"/>
				<stop  offset="1" style="stop-color:#1BA1BC"/>
			</radialGradient>
			<path style="fill:url(#SVGID_00000104696528234303684470000012243339954256528282_);" d="M1102.56,507.73l-0.5-6.6
				c1.29-0.03,2.73-0.15,4.34-0.39c1.6-0.23,3.25-0.53,4.96-0.88c1.7-0.35,3.32-0.74,4.86-1.16c1.54-0.42,2.87-0.86,3.99-1.32
				c-0.02,0.85,0,1.91,0.06,3.19c0.06,1.28,0.16,2.3,0.29,3.07c-1.17,0.45-2.53,0.89-4.08,1.33c-1.55,0.43-3.17,0.84-4.85,1.22
				c-1.68,0.38-3.31,0.71-4.88,0.98C1105.18,507.44,1103.78,507.63,1102.56,507.73z M1110.07,516.33l15.15-12.09l6.12,7.67
				l5.31-4.24l-8.33-10.43l4.24-3.38l8.33,10.43l4.8-3.83c-1.3-1.36-2.55-2.69-3.75-4c-1.2-1.31-2.23-2.47-3.08-3.49
				c0.46-0.63,1.01-1.38,1.66-2.27c0.64-0.89,1.12-1.69,1.42-2.41c1.19,1.49,2.54,3.09,4.06,4.8c1.52,1.71,3.1,3.39,4.75,5.04
				c1.65,1.65,3.26,3.19,4.83,4.62c1.57,1.43,3.01,2.6,4.32,3.52l-1.53,5.87c-1.05-0.77-2.33-1.81-3.82-3.1
				c-1.49-1.3-3.03-2.71-4.6-4.25l-5.27,4.21l8.42,10.55l-4.24,3.38l-8.42-10.55l-5.31,4.24l6.19,7.75l-15.15,12.09L1110.07,516.33z
				 M1117.95,517.76l8.58,10.75l6.95-5.55l-8.58-10.75L1117.95,517.76z M1122.42,495.74c0.04-0.82,0.02-1.91-0.07-3.28
				c-0.09-1.37-0.23-2.75-0.43-4.14c-0.2-1.39-0.42-2.55-0.68-3.48l5.98-0.78c0.26,1.1,0.51,2.31,0.74,3.63
				c0.23,1.32,0.41,2.64,0.56,3.94c0.14,1.3,0.21,2.46,0.19,3.48c-0.44,0-1.08,0.03-1.92,0.09c-0.84,0.06-1.68,0.15-2.5,0.26
				C1123.47,495.57,1122.84,495.66,1122.42,495.74z M1133.07,490.31c0.06-0.79,0.05-1.87-0.04-3.24c-0.09-1.37-0.23-2.75-0.43-4.14
				c-0.2-1.39-0.44-2.54-0.72-3.45l5.93-0.68c0.28,0.95,0.54,2.13,0.77,3.54c0.23,1.41,0.41,2.8,0.55,4.17
				c0.14,1.37,0.19,2.48,0.17,3.33c-0.41-0.02-1.03-0.01-1.86,0.05c-0.83,0.05-1.66,0.12-2.5,0.19
				C1134.12,490.16,1133.49,490.24,1133.07,490.31z"/>
			
				<radialGradient id="SVGID_00000083808527991982519010000014473771194998655372_" cx="1044.4042" cy="489.7776" r="257.95" gradientUnits="userSpaceOnUse">
				<stop  offset="0" style="stop-color:#1BA1BC"/>
				<stop  offset="1" style="stop-color:#1BA1BC"/>
			</radialGradient>
			<path style="fill:url(#SVGID_00000083808527991982519010000014473771194998655372_);" d="M1134.38,550.07l39.55-24.6l3.13,5.04
				l-7.6,4.73l2.01,0.91c-0.24,0.83-0.59,1.85-1.05,3.06c-0.45,1.21-0.87,2.25-1.25,3.12c1.67-0.35,3.29-0.78,4.89-1.29
				c1.59-0.51,3-1.06,4.23-1.67l2.12,5.25c-0.95,0.47-1.94,0.91-2.98,1.31c-1.03,0.4-2.09,0.78-3.16,1.12l1.65,2.65l9.16-5.7
				l3.24,5.21l-9.16,5.7l5.91,9.51l-4.56,2.84l-5.91-9.51l-6.69,4.16l4.97,7.99l-4.69,2.92l-4.97-7.99l-8.12,5.05l6.4,10.29
				l-4.69,2.92l-16.01-25.75l4.69-2.92l6.37,10.25l8.12-5.05l-4.97-7.99l4.69-2.92l4.97,7.99l6.69-4.16l-2.59-4.17
				c-2.77,0.52-5.35,0.72-7.75,0.61c0.04-0.51,0.04-1.13-0.01-1.86c-0.05-0.73-0.13-1.45-0.24-2.17c-0.11-0.72-0.24-1.31-0.41-1.76
				c1.95,0.11,4.13-0.04,6.53-0.45l-2.91-1.2c0.32-0.52,0.66-1.15,1.02-1.9c0.36-0.75,0.7-1.5,1.03-2.27l-28.52,17.74
				L1134.38,550.07z M1150.79,536.19c-0.05-0.41-0.16-0.93-0.32-1.58c-0.16-0.64-0.33-1.28-0.52-1.9c-0.19-0.63-0.35-1.12-0.49-1.47
				c0.76-0.19,1.71-0.5,2.83-0.92c1.12-0.42,2.3-0.9,3.53-1.44c1.23-0.54,2.39-1.08,3.49-1.6c1.1-0.52,2-1,2.69-1.43l2.25,4.68
				c-1,0.58-2.16,1.19-3.48,1.81c-1.32,0.62-2.64,1.2-3.95,1.73c-1.31,0.54-2.51,0.99-3.6,1.37
				C1152.12,535.81,1151.32,536.06,1150.79,536.19z"/>
			
				<radialGradient id="SVGID_00000047750971964615314120000006719837234321918887_" cx="1044.4042" cy="489.7776" r="257.95" gradientUnits="userSpaceOnUse">
				<stop  offset="0" style="stop-color:#1BA1BC"/>
				<stop  offset="1" style="stop-color:#1BA1BC"/>
			</radialGradient>
			<path style="fill:url(#SVGID_00000047750971964615314120000006719837234321918887_);" d="M1161.78,596.44l23.66-10.84
				c-1.45-0.39-2.84-0.81-4.18-1.26c-1.33-0.46-2.57-0.95-3.71-1.48c0.34-0.64,0.68-1.52,1.02-2.63c0.34-1.11,0.55-2.08,0.66-2.92
				c1.26,0.62,2.77,1.21,4.52,1.76c1.75,0.55,3.62,1.02,5.6,1.43c1.98,0.4,3.97,0.73,5.96,0.98c1.99,0.25,3.86,0.41,5.61,0.47
				c1.75,0.06,3.24,0,4.47-0.19l0.42,5.94c-3.07,0.25-6.38,0.19-9.92-0.18l-31.56,14.46L1161.78,596.44z M1170.71,613.84
				c-0.87-1.89-1.18-3.34-0.95-4.34c0.23-1.01,1.01-1.81,2.35-2.43l36.63-16.78l2.56,5.58l-14.83,6.79c1.38,1.21,2.82,2.4,4.32,3.59
				c1.5,1.19,2.98,2.27,4.44,3.25c1.46,0.98,2.79,1.74,3.97,2.29l-2.78,5.72c-1.54-0.91-3.24-2.03-5.09-3.38
				c-1.85-1.34-3.69-2.79-5.5-4.34c-1.82-1.55-3.48-3.07-4.98-4.55l-13.25,6.07c-0.43,0.2-0.7,0.45-0.8,0.76
				c-0.1,0.31,0,0.8,0.32,1.49l2.81,6.14c0.43,0.93,0.94,1.58,1.54,1.94c0.6,0.36,1.42,0.46,2.47,0.3c1.05-0.16,2.49-0.55,4.31-1.16
				c0.03,0.96,0.11,2.07,0.25,3.31c0.14,1.25,0.27,2.26,0.4,3.02c-2.88,0.91-5.18,1.4-6.89,1.47c-1.71,0.07-3.07-0.3-4.08-1.11
				c-1.01-0.81-1.9-2.07-2.69-3.77L1170.71,613.84z"/>
			
				<radialGradient id="SVGID_00000020377060574787321100000010550683586833912225_" cx="1044.4042" cy="489.7776" r="257.95" gradientUnits="userSpaceOnUse">
				<stop  offset="0" style="stop-color:#1BA1BC"/>
				<stop  offset="1" style="stop-color:#1BA1BC"/>
			</radialGradient>
			<path style="fill:url(#SVGID_00000020377060574787321100000010550683586833912225_);" d="M1191.5,676.88
				c-0.12-1.39-0.12-3.03-0.02-4.9c0.1-1.87,0.29-3.77,0.57-5.68c0.27-1.91,0.61-3.59,1.01-5.04l2.57,1.01l-3.62-11.46l-1.61,2.38
				c-1.08-0.91-2.24-2.06-3.5-3.45c-1.26-1.39-2.49-2.86-3.67-4.42s-2.2-3.04-3.04-4.45c0.55-0.42,1.17-1.04,1.88-1.85
				c0.71-0.81,1.26-1.57,1.64-2.26c0.45,0.86,1.05,1.88,1.8,3.05c0.75,1.18,1.58,2.38,2.51,3.61c0.92,1.23,1.83,2.34,2.72,3.35
				l-1.74-5.51l19.99-6.32c-1.58-1.93-2.86-3.64-3.87-5.11l4.41-3c0.44,0.72,1.02,1.6,1.75,2.64c0.72,1.04,1.49,2.12,2.31,3.24
				c0.82,1.12,1.62,2.19,2.41,3.21c0.79,1.02,1.5,1.86,2.14,2.52l-3.83,1.96c2.71,5.08,6.19,7.64,10.42,7.7l-1.03-3.27
				c-0.98-0.26-1.95-0.59-2.91-0.98c-0.96-0.39-1.88-0.84-2.76-1.35c0.21-0.71,0.42-1.56,0.64-2.56c0.22-1,0.33-1.91,0.32-2.73
				c0.97,0.59,2.14,1.1,3.49,1.55c1.36,0.45,2.74,0.8,4.16,1.04c1.42,0.25,2.7,0.39,3.86,0.42l0.58,5.56
				c-0.46,0-0.92-0.01-1.38-0.05c-0.46-0.03-0.92-0.07-1.4-0.09l5.84,18.48l-1.59,3.29c-0.75-0.23-1.71-0.56-2.89-0.99
				c-1.17-0.43-2.33-0.88-3.46-1.35c-1.13-0.47-2.03-0.86-2.71-1.18c0.12-0.29,0.28-0.76,0.47-1.41c0.19-0.65,0.37-1.32,0.54-2.02
				c0.17-0.7,0.28-1.27,0.32-1.71c0.66,0.29,1.29,0.54,1.87,0.75c0.58,0.21,1.19,0.41,1.83,0.6l-1.97-6.24l-0.48-0.01
				c-1.86,2.59-3,5.45-3.4,8.58c-0.4,3.13-0.31,6.48,0.28,10.05c-0.45-0.18-1.03-0.33-1.75-0.44c-0.72-0.11-1.43-0.19-2.14-0.24
				c-0.71-0.04-1.31-0.04-1.79,0c-0.07-1.01-0.12-2.01-0.16-2.98c-0.04-0.97-0.05-1.93-0.02-2.86l-18.43,5.82l-1.46-4.63
				c-0.2,1.85-0.32,3.82-0.36,5.9c-0.04,2.08,0.04,3.88,0.23,5.4c-0.68-0.36-1.58-0.69-2.68-1
				C1193.26,677.14,1192.31,676.95,1191.5,676.88z M1195.05,645.84l5.93,18.77l2-0.63l-5.93-18.77L1195.05,645.84z M1200.31,644.18
				l5.93,18.77l2-0.63l-5.93-18.77L1200.31,644.18z M1205.58,642.51l5.93,18.77l1.85-0.59l-5.93-18.77L1205.58,642.51z
				 M1209.85,636.02l2.23,7.07c0.37-0.4,0.75-0.84,1.14-1.3c0.39-0.46,0.7-0.91,0.92-1.34l-0.23,0.13
				c-0.62-0.59-1.27-1.29-1.97-2.08C1211.25,637.69,1210.55,636.87,1209.85,636.02z M1213.69,648.16l4.02,12.73
				c0.3-1.42,0.72-2.78,1.25-4.1c0.53-1.31,1.2-2.61,2.01-3.91C1218.25,651.95,1215.82,650.38,1213.69,648.16z M1218.96,635.66
				c0.08-0.64,0.15-1.44,0.2-2.42c0.05-0.98,0.07-2.01,0.07-3.08c0-1.07-0.01-2.09-0.02-3.05c-0.02-0.96-0.05-1.74-0.09-2.33
				l5.07,0.27c0.04,0.7,0.07,1.56,0.09,2.57c0.02,1.01,0.01,2.07-0.02,3.17c-0.03,1.1-0.06,2.14-0.09,3.11
				c-0.03,0.98-0.08,1.76-0.14,2.35c-0.4-0.12-0.93-0.23-1.6-0.32c-0.67-0.09-1.33-0.16-1.97-0.21
				C1219.82,635.67,1219.32,635.65,1218.96,635.66z"/>
			
				<radialGradient id="SVGID_00000093165955594524033200000004474186844324298398_" cx="1044.4042" cy="489.7776" r="257.95" gradientUnits="userSpaceOnUse">
				<stop  offset="0" style="stop-color:#1BA1BC"/>
				<stop  offset="1" style="stop-color:#1BA1BC"/>
			</radialGradient>
			<path style="fill:url(#SVGID_00000093165955594524033200000004474186844324298398_);" d="M1196.49,687.73l5.18-0.95l1.93,10.51
				c1.13-0.83,2.29-1.82,3.48-2.98c1.19-1.15,2.18-2.24,2.96-3.25l3.54,3.98l-1.29-7.04l5.38-0.99l2.77,15.09l3.97-0.73l-1.51-8.2
				l4.02-0.74c-1.48-1.46-2.87-2.94-4.17-4.43c-1.3-1.49-2.41-2.88-3.34-4.17c0.67-0.5,1.43-1.17,2.28-2.01
				c0.85-0.83,1.54-1.7,2.07-2.59c1.15,1.94,2.6,3.89,4.33,5.86c1.73,1.97,3.59,3.84,5.58,5.6s3.97,3.32,5.95,4.65
				c1.98,1.33,3.77,2.32,5.38,2.96l0.19,5.84c-1.39,1.47-2.7,3.2-3.93,5.19c-1.23,1.99-2.35,4.1-3.36,6.31
				c-1.01,2.21-1.87,4.43-2.58,6.63c-0.7,2.21-1.21,4.26-1.52,6.15c-0.82-0.51-1.78-1.03-2.86-1.58c-1.09-0.55-2.22-1.02-3.41-1.43
				c0.73-3.18,1.95-6.67,3.64-10.44l-4.12,0.76l-1.48-8.05l-3.97,0.73l2.74,14.89l-5.38,0.99l-1.38-7.49l-1.15,5.36
				c-1.46-0.39-2.97-0.84-4.54-1.35c-1.57-0.51-2.98-0.99-4.24-1.45l1.77,9.6l-5.18,0.95L1196.49,687.73z M1203.97,699.3l1.04,5.63
				l10.06-1.85l-1.41-7.64c-0.62,0.77-1.36,1.58-2.23,2.44c-0.87,0.85-1.74,1.68-2.61,2.48c-0.88,0.8-1.65,1.46-2.32,1.96
				L1203.97,699.3z M1206.18,711.27l1.17,6.39l1.03-3.99c0.82,0.33,1.79,0.67,2.89,1c1.1,0.33,2.21,0.64,3.32,0.92
				c1.11,0.28,2.08,0.52,2.91,0.71l-1.27-6.89L1206.18,711.27z M1228.53,694.01l3.53,19.21c1.04-2.1,2.16-4.11,3.36-6.03
				c1.21-1.92,2.48-3.59,3.81-5.02c-1.53-0.79-3.24-1.92-5.12-3.37C1232.23,697.35,1230.37,695.75,1228.53,694.01z"/>
		</g>
	</g>
	
		<linearGradient id="SVGID_00000163041990657084145340000012279085272272285070_" gradientUnits="userSpaceOnUse" x1="913.4292" y1="498.0204" x2="1459.3715" y2="498.0204">
		<stop  offset="0" style="stop-color:#00A290"/>
		<stop  offset="1" style="stop-color:#00A290"/>
	</linearGradient>
	
		<path style="fill:none;stroke:url(#SVGID_00000163041990657084145340000012279085272272285070_);stroke-width:12.8736;stroke-miterlimit:10;" d="
		M914.69,129.16c165.64,33.17,318.93,128.65,421.66,279.22c96.48,141.41,131.46,306.62,110.91,463.99"/>
	
		<linearGradient id="SVGID_00000020391550936149601530000004998121930873052569_" gradientUnits="userSpaceOnUse" x1="106.8733" y1="698.037" x2="526.2763" y2="698.037">
		<stop  offset="0" style="stop-color:#00A290"/>
		<stop  offset="1" style="stop-color:#00A290"/>
	</linearGradient>
	
		<path style="fill:none;stroke:url(#SVGID_00000020391550936149601530000004998121930873052569_);stroke-width:12.8736;stroke-miterlimit:10;" d="
		M281.32,1229.53c-18.27-20.72-35.46-42.79-51.43-66.2C21.41,857.79,100.1,441.1,405.64,232.62c37.87-25.84,77.46-47.27,118.14-64.4
		"/>
	<g>
		<path class="st10" d="M1216.29,411.22c-1.3-1.49-1.99-2.74-2.08-3.75c-0.09-1.01,0.38-1.96,1.41-2.86l2.89-2.52l-9.7-11.15
			l12.07-10.51l22.99,26.42l-12.07,10.51l-9.43-10.84l-1,0.87c-0.33,0.29-0.51,0.59-0.51,0.89c-0.01,0.3,0.23,0.73,0.73,1.3
			l7.38,8.49c0.85,0.98,1.73,1.4,2.63,1.27c0.9-0.13,2.24-0.83,4.02-2.11c0.15,0.69,0.43,1.57,0.85,2.65
			c0.42,1.08,0.81,1.96,1.18,2.64c-2.13,1.4-3.84,2.29-5.15,2.69c-1.31,0.39-2.42,0.36-3.34-0.11c-0.92-0.46-1.91-1.3-2.96-2.51
			L1216.29,411.22z M1215.58,392.73l5.91,6.79l1.74-1.51l-5.91-6.79L1215.58,392.73z M1219.98,388.9l5.91,6.79l1.74-1.51l-5.91-6.79
			L1219.98,388.9z M1231.82,390.52l7.25-6.31l-9.4-10.8l-5.32,4.63l-3.83-4.4l8.37-7.28l13.22,15.2l1.77-1.54l-11.18-12.84
			l3.36-2.92l26.35,30.28l-3.36,2.92l-11.34-13.04l-1.77,1.54l13.22,15.2l-8.37,7.28l-3.83-4.4l5.32-4.63l-9.4-10.8l-7.25,6.31
			L1231.82,390.52z M1223.87,380.91l2.35-2.05l6.78,7.79l-2.35,2.05L1223.87,380.91z M1225.35,403.95l5.67,6.52l1.74-1.51
			l-5.67-6.52L1225.35,403.95z M1227.34,377.89l2.39-2.08l6.78,7.79l-2.39,2.08L1227.34,377.89z M1229.74,400.13l5.67,6.52
			l1.74-1.51l-5.67-6.52L1229.74,400.13z M1237.23,396.26l2.35-2.05l6.78,7.79l-2.35,2.05L1237.23,396.26z M1240.7,393.24l2.39-2.08
			l6.78,7.79l-2.39,2.08L1240.7,393.24z"/>
		<path class="st10" d="M1236.66,434.46c0.48-0.85,0.91-1.89,1.29-3.1c0.38-1.22,0.62-2.22,0.73-3.01c2.72,1.74,5.27,3.06,7.65,3.97
			c2.38,0.91,4.74,1.4,7.07,1.46c2.33,0.06,4.77-0.34,7.32-1.21c2.55-0.87,5.31-2.23,8.3-4.09l-9.12-12.65l4.81-3.47l9.27,12.86
			l7.63-5.5l3.83,5.31l-6.97,5.02c-0.11,0.08-0.23,0.15-0.35,0.22c-0.12,0.07-0.24,0.14-0.35,0.22l10.76,14.93
			c-2.99,2.15-5.85,4.12-8.6,5.91c-2.74,1.79-5.21,3.33-7.38,4.63c-2.18,1.29-3.94,2.26-5.29,2.9c-2.42,1.19-4.47,1.87-6.17,2.02
			c-1.7,0.15-3.23-0.21-4.6-1.1c-1.37-0.88-2.75-2.29-4.15-4.23l-2.39-3.32c0.49-0.43,1.02-0.96,1.61-1.57
			c0.59-0.61,1.15-1.24,1.68-1.87c0.53-0.63,0.93-1.2,1.21-1.69l3.23,4.48c0.88,1.22,1.77,1.95,2.68,2.19
			c0.91,0.25,2.21-0.03,3.91-0.83c0.76-0.34,1.58-0.72,2.46-1.14c0.87-0.42,1.9-0.96,3.08-1.62c1.18-0.66,2.59-1.53,4.23-2.61
			c1.64-1.08,3.58-2.42,5.82-4.04l-7.02-9.75c-4.17,2.55-8.17,4.32-11.98,5.33c-3.81,1-7.68,1.14-11.59,0.41
			C1245.38,438.78,1241.17,437.09,1236.66,434.46z"/>
		<path class="st10" d="M1272.16,487.77l8.81-5.09c-0.82-0.67-1.75-1.46-2.79-2.37c-1.04-0.91-2.11-1.87-3.2-2.88
			c-1.09-1-2.12-1.96-3.07-2.86c-0.96-0.9-1.76-1.68-2.41-2.33l4-4.32c0.28,0.35,0.69,0.8,1.23,1.36c0.54,0.56,1.15,1.19,1.83,1.89
			l23.95-13.84l-1.79-3.1l4.65-2.69l12.51,21.65l-3.1,1.79l9.77,16.91c-8.78,4.56-17.23,6.84-25.33,6.85
			c-0.92,2.15-1.62,4.35-2.09,6.61c-0.47,2.26-0.71,4.56-0.74,6.89c-0.89-0.31-1.96-0.58-3.21-0.8c-1.25-0.22-2.31-0.34-3.18-0.35
			c0.22-2.21,0.57-4.39,1.07-6.53c0.5-2.14,1.16-4.23,1.98-6.28c-4.28-0.6-8.5-1.84-12.66-3.72c0.21-0.39,0.47-1.01,0.79-1.85
			c0.32-0.84,0.59-1.65,0.8-2.44l-4.78,2.76L1272.16,487.77z M1280.93,475.67c0.86,0.88,1.68,1.7,2.46,2.47
			c0.78,0.77,1.46,1.42,2.04,1.95l3.72-2.15l-3.04-5.27L1280.93,475.67z M1281.31,489.5c2.01,0.96,4.05,1.73,6.12,2.31
			c2.07,0.58,4.12,0.96,6.16,1.16c1.5-2.64,3.27-5.15,5.31-7.53c2.03-2.38,4.35-4.59,6.94-6.64l3.58,4.25
			c-3.69,2.8-6.77,6.14-9.22,10c2.55-0.22,5.04-0.66,7.47-1.33c2.43-0.67,4.73-1.54,6.91-2.61l-6.98-12.09l3.23-1.87l-1.18-2.04
			L1281.31,489.5z M1290.5,470.14l3.04,5.27l4.34-2.51l-3.04-5.27L1290.5,470.14z M1299.22,465.1l3.04,5.27l4.34-2.51l-3.04-5.27
			L1299.22,465.1z"/>
		<path class="st10" d="M1294.69,527.24c0.54-0.29,1.16-0.69,1.87-1.2c0.7-0.5,1.37-1.02,2.01-1.55s1.13-1.01,1.49-1.45l2.76,5.82
			c0.66,1.39,1.38,2.3,2.15,2.74c0.78,0.44,1.9,0.5,3.37,0.18c1-0.21,2.15-0.53,3.45-0.96c1.3-0.43,2.49-0.88,3.55-1.35l-7.68-16.17
			c0.81-0.2,1.94-0.5,3.39-0.9c1.45-0.41,2.98-0.85,4.58-1.33c1.6-0.48,3.1-0.94,4.5-1.37c1.4-0.44,2.46-0.81,3.18-1.11l6.71,14.13
			l4.85-2.3l-7.17-15.1l4.9-2.32l9.92,20.88l-14.6,6.93l-7.11-14.96c-0.26,0.09-0.72,0.22-1.37,0.4c-0.65,0.18-1.32,0.37-2.01,0.59
			c-0.69,0.21-1.25,0.39-1.68,0.51l7.63,16.07c-1.35,0.57-2.83,1.16-4.42,1.79c-1.59,0.62-3.18,1.22-4.76,1.78
			c-1.58,0.56-3.06,1.02-4.44,1.37c-2.28,0.59-4.2,0.76-5.74,0.49c-1.54-0.27-2.85-0.94-3.93-2.01c-1.08-1.07-2.05-2.53-2.93-4.38
			L1294.69,527.24z M1306.56,552.23l41.57-19.74l2.83,5.96l-41.57,19.74L1306.56,552.23z"/>
	</g>
	<g>
		<path class="st10" d="M192.94,689.95l-9.48-1.59l-2.37,14.12l6.96,1.17l-0.97,5.75l-10.94-1.84l3.34-19.87l-2.32-0.39l-2.82,16.79
			l-4.39-0.74l6.66-39.58l4.39,0.74l-2.87,17.04l2.32,0.39l3.34-19.87l10.94,1.84l-0.97,5.75l-6.96-1.17l-2.37,14.12l9.48,1.59
			L192.94,689.95z M186.03,701.44l-3.13-0.53l1.71-10.19l3.13,0.53L186.03,701.44z M189.4,681.37l-3.13-0.53l1.71-10.19l3.13,0.53
			L189.4,681.37z M190.57,702.2l-3.08-0.52l1.71-10.19l3.08,0.52L190.57,702.2z M193.94,682.13l-3.08-0.52l1.71-10.19l3.08,0.52
			L193.94,682.13z M218.8,688.8c-0.33,1.95-0.85,3.28-1.58,3.99c-0.72,0.71-1.76,0.95-3.1,0.72l-3.78-0.64l-2.45,14.57l-15.78-2.65
			l5.81-34.54l15.78,2.65l-2.38,14.17l1.31,0.22c0.44,0.07,0.77,0.02,1.01-0.17c0.24-0.18,0.42-0.65,0.54-1.39l1.87-11.09
			c0.21-1.28-0.02-2.22-0.69-2.84c-0.67-0.61-2.07-1.2-4.19-1.77c0.44-0.55,0.94-1.33,1.51-2.34c0.57-1.01,1-1.87,1.29-2.58
			c2.43,0.75,4.21,1.51,5.35,2.27c1.13,0.76,1.81,1.65,2.04,2.65c0.23,1.01,0.21,2.3-0.06,3.88L218.8,688.8z M199.21,700.13
			l1.49-8.87l-2.27-0.38l-1.49,8.87L199.21,700.13z M201.68,685.45l1.43-8.52l-2.27-0.38l-1.43,8.52L201.68,685.45z M204.96,701.09
			l1.49-8.87l-2.27-0.38l-1.49,8.87L204.96,701.09z M207.43,686.42l1.43-8.52l-2.27-0.38l-1.43,8.52L207.43,686.42z"/>
		<path class="st10" d="M223.79,658.31c-0.96,0.17-2.03,0.5-3.22,0.98c-1.18,0.48-2.11,0.93-2.79,1.35c-0.39-3.2-0.99-6.01-1.8-8.43
			c-0.81-2.42-1.93-4.54-3.37-6.39c-1.44-1.84-3.3-3.47-5.59-4.88c-2.29-1.41-5.1-2.68-8.43-3.81l-3.98,15.08l-5.74-1.51l4.04-15.33
			l-9.1-2.4l1.67-6.33l8.31,2.19c0.13,0.03,0.26,0.08,0.39,0.13c0.13,0.05,0.26,0.09,0.39,0.13l4.69-17.8
			c3.56,0.94,6.9,1.9,10.03,2.88c3.12,0.98,5.88,1.9,8.26,2.76c2.38,0.86,4.25,1.6,5.6,2.24c2.46,1.11,4.29,2.27,5.48,3.48
			c1.2,1.21,1.89,2.63,2.08,4.25c0.19,1.62-0.02,3.58-0.63,5.89l-1.04,3.96c-0.64-0.1-1.39-0.18-2.24-0.25s-1.68-0.1-2.51-0.11
			c-0.83-0.01-1.52,0.04-2.07,0.14l1.41-5.34c0.38-1.45,0.38-2.61-0.01-3.47c-0.39-0.86-1.43-1.69-3.12-2.49
			c-0.75-0.37-1.56-0.76-2.44-1.17c-0.88-0.41-1.95-0.86-3.21-1.35c-1.26-0.49-2.83-1.03-4.71-1.61c-1.87-0.58-4.15-1.22-6.81-1.93
			l-3.06,11.62c4.62,1.61,8.53,3.56,11.73,5.87c3.2,2.31,5.76,5.2,7.68,8.69C221.59,648.84,222.96,653.16,223.79,658.31z"/>
		<path class="st10" d="M245.3,585.71c-0.96,2.63-2.07,4.9-3.36,6.83c-1.28,1.93-2.71,3.29-4.29,4.1c-1.58,0.8-3.3,0.87-5.16,0.19
			c-1.54-0.56-2.77-1.53-3.7-2.92c-0.93-1.39-1.61-3.09-2.06-5.1c-0.45-2.01-0.72-4.22-0.83-6.61l-0.38-0.14
			c-1.12-0.41-2.05-0.43-2.78-0.06c-0.73,0.37-1.29,0.97-1.67,1.81c-0.63,1.44-0.94,2.92-0.91,4.46c0.02,1.53,0.47,3.2,1.34,5
			c0.24,0.52,0.55,1.2,0.92,2.02c0.37,0.82,0.73,1.65,1.09,2.46c0.35,0.82,0.64,1.52,0.86,2.11l-5.65,2.68
			c-0.66-2.78-1.75-5.57-3.27-8.37c-1.52-2.8-3.29-5.35-5.32-7.65c-0.59,1.82-1.13,3.47-1.61,4.96c-0.49,1.49-0.88,2.6-1.18,3.32
			l-5.6-1.82c0.49-1.05,1.09-2.55,1.8-4.49c0.7-1.94,1.42-4.06,2.15-6.37c-1.85-1.51-3.68-2.64-5.5-3.42l2.37-5.61
			c1.66,0.71,3.31,1.68,4.94,2.88c0.67-2.44,1.25-4.72,1.75-6.84c0.5-2.12,0.79-3.78,0.86-4.99l5.46,1.6
			c-0.17,0.96-0.42,2.19-0.77,3.69c-0.35,1.51-0.76,3.16-1.23,4.96c-0.47,1.8-0.98,3.64-1.52,5.52c0.75,0.74,1.48,1.54,2.2,2.41
			s1.39,1.73,2.02,2.61c-0.05-1.47,0.17-2.86,0.65-4.17c0.69-1.89,1.76-3.3,3.23-4.24c1.47-0.94,3.39-1.15,5.78-0.64
			c0.04-2.01,0.16-4.05,0.34-6.1c0.19-2.05,0.39-4.04,0.61-5.95l5.88,0.29c-0.5,2.36-0.9,4.68-1.2,6.96
			c-0.3,2.28-0.5,4.44-0.59,6.48l6.39,2.32l-2.06,5.67l-4.23-1.54c0.19,1.88,0.51,3.45,0.98,4.71s1.07,2.02,1.81,2.29
			c1.09,0.4,2.09,0.02,3-1.14c0.91-1.16,1.85-3.08,2.83-5.77c0.4-1.09,0.77-2.34,1.12-3.75c0.35-1.41,0.65-2.84,0.91-4.29
			c0.25-1.45,0.42-2.74,0.51-3.87c0.39,0.22,0.97,0.49,1.74,0.82c0.77,0.33,1.54,0.64,2.3,0.92c0.77,0.28,1.35,0.47,1.75,0.58
			c-0.19,1.71-0.53,3.58-1.03,5.61C246.48,582.14,245.92,584.01,245.3,585.71z"/>
		<path class="st10" d="M260.01,547.04c-0.8,2.41-1.85,4.39-3.16,5.92c-1.31,1.53-2.75,2.53-4.32,2.99c-1.58,0.46-3.2,0.3-4.86-0.48
			c-2.19-1.03-3.92-2.93-5.2-5.7c-1.28-2.77-1.85-6.02-1.7-9.76l-6.98-3.29c-0.68,1.75-1.36,3.44-2.04,5.06
			c-0.69,1.62-1.38,3.09-2.08,4.42l-5.45-2.23c0.68-1.11,1.39-2.53,2.14-4.25c0.75-1.72,1.47-3.55,2.16-5.48l-7.45-3.51l2.46-5.11
			l6.8,3.2c0.48-1.66,0.89-3.23,1.23-4.71c0.34-1.48,0.54-2.73,0.61-3.75l5.35,1.84c-0.11,1.27-0.34,2.68-0.7,4.25
			c-0.36,1.56-0.78,3.18-1.26,4.83l6.06,2.85c0.26-1.2,0.61-2.41,1.04-3.64c0.43-1.23,0.94-2.48,1.54-3.74
			c1.39-2.96,3.04-5.27,4.93-6.92c1.89-1.65,3.85-2.66,5.89-3.02c2.03-0.36,4.01-0.09,5.92,0.81c2.96,1.39,4.87,3.39,5.72,5.97
			c0.85,2.59,0.55,5.4-0.92,8.44c-1.12,2.37-2.65,4.09-4.6,5.15c-1.95,1.06-4.26,1.39-6.94,1c0.12-0.81,0.19-1.83,0.23-3.06
			c0.03-1.23-0.01-2.23-0.14-3c2.92,0.44,4.9-0.44,5.93-2.63c0.64-1.36,0.73-2.57,0.28-3.65c-0.45-1.08-1.26-1.9-2.44-2.45
			c-1.51-0.71-3.09-0.62-4.73,0.26c-1.64,0.89-3.1,2.68-4.38,5.4c-1.16,2.47-1.95,4.94-2.37,7.42l11.52,5.43
			c1.14,0.54,1.86,1.2,2.15,1.97C260.52,544.64,260.45,545.7,260.01,547.04z M249.68,513.41c-1.09,0.39-2.37,1.01-3.84,1.86
			c-1.48,0.85-2.92,1.75-4.33,2.71c-1.41,0.96-2.56,1.86-3.46,2.72l-2.79-4.88c0.96-0.91,2.11-1.85,3.48-2.83
			c1.36-0.98,2.76-1.9,4.19-2.77c1.43-0.87,2.73-1.56,3.91-2.06c0.19,0.47,0.48,1.06,0.85,1.79c0.38,0.72,0.75,1.41,1.12,2.06
			C249.19,512.66,249.48,513.12,249.68,513.41z M253.53,548.06c0.31-0.57,0.45-1.02,0.41-1.36c-0.03-0.33-0.25-0.6-0.65-0.79
			l-7.08-3.33c0.2,1.83,0.61,3.39,1.23,4.71c0.63,1.31,1.45,2.21,2.46,2.69c0.71,0.33,1.37,0.33,1.99-0.02
			C252.53,549.6,253.07,548.97,253.53,548.06z"/>
		<path class="st10" d="M300.81,476.65c-1.55,1.02-3.4,1.94-5.54,2.76c-2.14,0.82-4.21,1.41-6.21,1.78l-0.88-4.25l-4.33,7.36l4-0.85
			c0.33,1.38,0.56,2.95,0.68,4.7c0.12,1.75,0.16,3.46,0.12,5.14c-0.04,1.68-0.16,3.13-0.37,4.35c-0.67-0.08-1.53-0.1-2.6-0.07
			c-1.06,0.03-2,0.08-2.8,0.16c0.2-1.07,0.34-2.34,0.43-3.81c0.09-1.47,0.12-2.94,0.09-4.43c-0.04-1.48-0.14-2.79-0.31-3.92
			l-2.67,4.54l-16.04-9.44c0.65,0.78,1.45,1.78,2.41,3.02c0.96,1.24,1.9,2.48,2.85,3.72c0.95,1.25,1.72,2.34,2.31,3.29
			c-0.59,0.4-1.29,0.92-2.1,1.55c-0.81,0.63-1.44,1.21-1.91,1.73c-0.34-0.56-0.77-1.19-1.29-1.89c-0.52-0.7-1.04-1.38-1.56-2.04
			c-0.52-0.66-0.94-1.19-1.27-1.58l-1.61,2.73l18.02,10.61c1.44,0.85,2.24,1.88,2.41,3.11c0.17,1.23-0.25,2.69-1.25,4.4l-1.76,3
			c-0.68-0.32-1.57-0.66-2.66-1.03c-1.09-0.36-1.97-0.59-2.64-0.66l1.66-2.82c0.33-0.56,0.48-1.01,0.45-1.37
			c-0.03-0.35-0.32-0.69-0.88-1.02l-16.13-9.49l-3.73,6.35l-4.32-2.54l4.93-8.37c-1.65,0.65-3.27,1.34-4.86,2.06
			c-1.59,0.72-2.88,1.37-3.85,1.95l-1.47-4.66c0.65-0.37,1.39-0.75,2.22-1.15c0.83-0.4,1.7-0.81,2.62-1.22
			c-0.26-0.83-0.55-1.65-0.86-2.47c-0.31-0.82-0.58-1.47-0.81-1.96l-5.96,10.14l-4.14-2.44l9.13-15.51l2.61-1.01l-1.54-0.91
			l13.25-22.52l4.27,2.52l-5.11,8.68c0.4,0.39,0.81,0.83,1.22,1.31c0.41,0.48,0.81,0.95,1.21,1.42l4.56-7.76l22.74,13.38l-3.03,5.16
			c1.06-0.25,2.2-0.62,3.45-1.12c1.24-0.5,2.44-1.06,3.61-1.7c1.17-0.64,2.2-1.29,3.1-1.94c0.16,0.73,0.46,1.59,0.88,2.59
			C299.98,475.19,300.39,476.01,300.81,476.65z M264.39,480.67l-6.7-3.94l3.5-5.95c-0.38-0.42-0.79-0.88-1.21-1.37
			c-0.42-0.49-0.84-0.93-1.24-1.32l-5.06,8.59l-2.25-1.32c0.41,0.92,0.88,2.01,1.41,3.29c0.53,1.28,1.05,2.6,1.56,3.95
			c0.51,1.35,0.96,2.57,1.34,3.67c1.26-0.52,2.39-0.93,3.38-1.21c0.02,0.17,0.05,0.34,0.08,0.52c0.03,0.18,0.08,0.38,0.14,0.62
			l2.62-4.45L264.39,480.67z M267.25,475.71l5.29-8.99l-2.56-1.5l-5.29,8.99L267.25,475.71z M273.24,479.23l5.29-8.99l-2.6-1.53
			l-5.29,8.99L273.24,479.23z M279.28,482.79l5.29-8.99l-2.64-1.56l-5.29,8.99L279.28,482.79z"/>
		<path class="st10" d="M306.2,463.48c-0.43,0.07-1.01,0.24-1.73,0.52c-0.72,0.28-1.44,0.58-2.14,0.92
			c-0.7,0.33-1.25,0.66-1.64,0.96c-0.41-2.06-1.12-4.27-2.12-6.63c-1.01-2.36-2.21-4.79-3.62-7.27c-1.4-2.48-2.95-4.89-4.62-7.23
			c-0.85,1.53-1.64,3.03-2.36,4.51c-0.72,1.47-1.29,2.72-1.68,3.74c-0.38-0.23-0.91-0.51-1.6-0.84c-0.69-0.33-1.38-0.64-2.07-0.93
			c-0.69-0.29-1.24-0.47-1.65-0.56c0.4-0.68,0.93-1.56,1.58-2.64c0.65-1.08,1.37-2.29,2.14-3.63c0.77-1.33,1.56-2.65,2.38-3.96
			c-1.38-1.75-2.8-3.39-4.24-4.91c-1.44-1.52-2.85-2.86-4.2-4l4.4-4.27c1.17,1.06,2.38,2.26,3.61,3.61
			c1.23,1.35,2.45,2.79,3.65,4.33c0.37-0.57,0.71-1.09,1.01-1.54c0.31-0.45,0.58-0.84,0.82-1.18c0.8-1.11,1.68-1.97,2.65-2.59
			c0.97-0.62,2.08-0.88,3.33-0.78c1.25,0.1,2.67,0.66,4.27,1.69c1.59,1.02,3.42,2.61,5.48,4.77c2.59,2.7,4.47,5.02,5.65,6.94
			c1.18,1.92,1.74,3.66,1.67,5.2c-0.07,1.55-0.69,3.14-1.86,4.77c-0.56,0.77-1.18,1.48-1.87,2.12c-0.69,0.64-1.43,1.15-2.22,1.55
			c-0.62-0.49-1.4-1.05-2.37-1.7c-0.96-0.65-1.79-1.12-2.5-1.42c1.6-0.94,2.88-2.08,3.84-3.41c0.48-0.66,0.7-1.37,0.68-2.13
			c-0.03-0.75-0.44-1.75-1.24-3c-0.8-1.25-2.14-2.88-4-4.9c-1.72-1.87-3.1-3.12-4.14-3.74c-1.04-0.62-1.87-0.82-2.5-0.6
			c-0.62,0.22-1.17,0.67-1.65,1.33c-0.56,0.77-1.18,1.73-1.88,2.87c1.96,2.71,3.78,5.51,5.49,8.39c1.7,2.89,3.18,5.67,4.44,8.36
			C304.64,458.88,305.58,461.31,306.2,463.48z M317.23,425.49c-1.07-0.09-2.39-0.12-3.97-0.09c-1.58,0.04-3.22,0.14-4.91,0.31
			c-1.69,0.17-3.29,0.36-4.78,0.59c-1.49,0.23-2.68,0.5-3.58,0.82l-0.44-5.86c0.98-0.31,2.2-0.6,3.69-0.87
			c1.48-0.28,3.06-0.53,4.73-0.75c1.67-0.22,3.28-0.39,4.83-0.49c1.55-0.1,2.84-0.12,3.88-0.04L317.23,425.49z"/>
		<path class="st10" d="M348.32,412.39c-0.93-0.18-2.05-0.25-3.37-0.22c-1.31,0.03-2.46,0.16-3.43,0.4
			c1.68-4.73,1.96-9.26,0.85-13.6c-1.11-4.33-3.67-8.25-7.68-11.74c-2.44-2.13-4.52-3.18-6.23-3.16c-1.71,0.02-3.06,0.67-4.03,1.95
			c-0.78,1-1.02,2.35-0.72,4.05c0.3,1.71,1.24,3.58,2.82,5.6c1.58,2.03,3.91,4.05,7,6.06c-0.29,0.38-0.63,0.91-1.03,1.58
			c-0.4,0.67-0.77,1.32-1.1,1.96c-0.33,0.64-0.56,1.13-0.68,1.48c-1.11-0.65-2.43-1.54-3.97-2.68c-1.54-1.14-3.17-2.4-4.9-3.79
			c-1.73-1.39-3.43-2.81-5.11-4.25c-1.68-1.44-3.21-2.8-4.58-4.09c-1.37-1.28-2.45-2.36-3.23-3.22l4.52-4.34
			c0.5,0.67,1.19,1.48,2.05,2.43s1.8,1.94,2.81,2.96c1.01,1.02,2.01,1.98,2.99,2.87c-1.1-2-1.7-4.03-1.8-6.07
			c-0.09-2.05,0.44-3.76,1.6-5.15c1.34-1.59,2.94-2.66,4.8-3.21c1.86-0.55,3.89-0.5,6.1,0.16c2.21,0.66,4.49,2.02,6.86,4.07
			c4.96,4.32,8.12,8.98,9.48,13.99C349.7,401.45,349.69,406.76,348.32,412.39z"/>
		<path class="st10" d="M381.35,377.04c-0.77-0.21-1.73-0.43-2.88-0.65c-1.15-0.22-2.28-0.27-3.4-0.15c1.91-3.23,3.1-6.01,3.58-8.32
			c0.48-2.32,0.35-4.4-0.38-6.25c-0.41,1.15-1.01,2.1-1.8,2.85c-1.87,1.79-3.89,2.7-6.05,2.73c-2.16,0.03-4.13-0.81-5.93-2.54
			c-1.23-1.19-2.03-2.52-2.42-4.02c-0.39-1.49-0.36-2.99,0.09-4.5c0.44-1.51,1.3-2.86,2.55-4.06c0.2-0.19,0.38-0.35,0.54-0.48
			c0.16-0.13,0.34-0.26,0.53-0.4c-0.47-0.4-0.96-0.81-1.45-1.23c-0.5-0.42-0.99-0.89-1.49-1.41c-1.93,1.98-3.77,3.95-5.53,5.91
			c-1.76,1.96-3.34,3.79-4.74,5.48c-1.4,1.69-2.5,3.15-3.3,4.39l-4.72-3.69c0.82-0.92,1.99-2.19,3.51-3.81
			c1.52-1.62,3.26-3.46,5.23-5.52c1.96-2.06,4-4.19,6.1-6.39l-4.98-5.22l4.29-4.09l4.8,5.03c1.85-1.91,3.62-3.73,5.32-5.46
			c1.69-1.73,3.21-3.28,4.56-4.63c1.35-1.35,2.42-2.4,3.24-3.12l3.83,4.61c-1.59,1.19-3.59,2.89-5.98,5.1
			c-2.39,2.21-4.88,4.6-7.47,7.17c0.85,0.89,1.74,1.76,2.67,2.61c0.93,0.85,1.82,1.68,2.67,2.47c2.57,0.28,4.99,1.6,7.25,3.97
			c3.13,3.28,4.81,6.94,5.04,10.99C384.86,368.45,383.77,372.66,381.35,377.04z M372.98,360.78c0.64-0.71,0.96-1.46,0.96-2.26
			c-0.01-0.8-0.33-1.53-0.96-2.19c-0.21-0.22-0.46-0.44-0.74-0.67c-0.28-0.22-0.59-0.46-0.92-0.71c-1.08-0.1-2.02,0.23-2.81,0.98
			c-0.69,0.66-1.06,1.43-1.1,2.32c-0.04,0.89,0.27,1.67,0.96,2.34c0.68,0.72,1.46,1.1,2.32,1.14
			C371.55,361.79,372.31,361.47,372.98,360.78z"/>
		<path class="st10" d="M426.57,334.79c-3.21,2.54-6.05,3.81-8.54,3.8c-2.49-0.01-4.43-0.9-5.82-2.66c-0.91-1.15-1.4-2.35-1.48-3.59
			c-0.07-1.25,0.17-2.45,0.73-3.61c0.56-1.16,1.36-2.15,2.4-2.98c1.98-1.57,4.06-2.22,6.25-1.95c2.19,0.27,4.18,1.17,5.96,2.71
			c0.63-1.24,0.89-2.57,0.77-4.01c-0.11-1.43-0.69-2.8-1.73-4.11c-0.89-1.12-1.95-1.91-3.18-2.37c-1.23-0.46-2.54-0.56-3.93-0.31
			c-1.39,0.25-2.72,0.89-4.01,1.9c-1.79,1.42-3.18,2.87-4.16,4.34c-0.98,1.48-1.64,3.1-1.97,4.89c-0.14,0.81-0.34,1.86-0.6,3.15
			c-0.26,1.29-0.52,2.48-0.8,3.57l-6.08-0.92c0.65-1.65,1.24-3.54,1.75-5.69c0.52-2.15,0.95-4.43,1.3-6.84
			c0.35-2.41,0.6-4.81,0.74-7.21c0.14-2.4,0.17-4.67,0.08-6.82c-0.94,1.18-1.99,2.42-3.14,3.73c-1.16,1.31-2.3,2.54-3.41,3.68
			c-1.12,1.14-2.08,2.08-2.89,2.81l-4.5-3.87c0.76-0.52,1.66-1.24,2.69-2.16c1.03-0.92,2.12-1.94,3.28-3.06
			c1.16-1.11,2.26-2.24,3.3-3.37c1.04-1.13,1.96-2.17,2.75-3.12c0.79-0.95,1.33-1.71,1.61-2.29l5.51-0.45
			c0.51,2.51,0.75,5.38,0.71,8.6c-0.03,3.22-0.24,6.46-0.62,9.72c0.29-0.57,0.66-1.14,1.13-1.71c0.47-0.56,0.97-1.06,1.5-1.48
			c2.11-1.67,4.26-2.72,6.44-3.15c2.18-0.43,4.28-0.27,6.28,0.47c2,0.74,3.75,2.06,5.26,3.96c1.59,2,2.53,4.22,2.82,6.64
			c0.29,2.42-0.09,4.84-1.15,7.24C430.79,330.67,429.03,332.85,426.57,334.79z M422.56,330.8c-0.94-0.91-1.9-1.48-2.88-1.7
			c-0.98-0.22-1.87-0.02-2.67,0.62c-0.43,0.34-0.7,0.73-0.83,1.18c-0.12,0.45-0.02,0.88,0.32,1.31c0.44,0.56,1.12,0.79,2.01,0.69
			c0.9-0.1,2.08-0.69,3.53-1.76c0.1-0.04,0.19-0.09,0.27-0.15C422.4,330.92,422.48,330.86,422.56,330.8z"/>
	</g>
	<polygon class="st10" points="563.83,147.09 513.89,221.91 474.07,141.25 	"/>
	<polygon class="st10" points="1437.03,911.13 1406.67,826.45 1495.18,842.5 	"/>
	<polygon class="st10" points="1222.18,1284.3 1133.07,1296.6 1188.27,1367.62 	"/>
	<polygon class="st10" points="337.76,1284.3 426.87,1296.6 371.67,1367.62 	"/>
	
		<radialGradient id="SVGID_00000135662006887769674520000006075549733504846007_" cx="789.0266" cy="1382.7416" r="296.821" gradientUnits="userSpaceOnUse">
		<stop  offset="0" style="stop-color:#00A290"/>
		<stop  offset="1" style="stop-color:#00A290"/>
	</radialGradient>
	
		<path style="fill:none;stroke:url(#SVGID_00000135662006887769674520000006075549733504846007_);stroke-width:12.8736;stroke-miterlimit:10;" d="
		M381.06,1307.11c6.61,5.19,6.59,19.13,13.37,24.04c6.8,4.93,20.04,0.58,27,5.22c6.98,4.66,8.05,18.56,15.18,22.94
		c7.16,4.39,20.03-0.97,27.33,3.13c7.32,4.11,9.45,17.88,16.9,21.7c7.47,3.82,19.89-2.51,27.49,1.02
		c7.61,3.53,10.79,17.11,18.52,20.34c7.74,3.24,19.64-4.02,27.48-1.09c7.86,2.94,12.06,16.23,20.02,18.87
		c7.96,2.64,19.27-5.51,27.32-3.18c8.06,2.33,13.26,15.26,21.39,17.29c8.14,2.02,18.79-6.96,27-5.25
		c8.21,1.71,14.38,14.21,22.65,15.61c8.27,1.4,18.21-8.37,26.52-7.29c8.31,1.08,15.42,13.07,23.77,13.84
		c8.35,0.76,17.51-9.73,25.89-9.29c8.37,0.45,16.37,11.86,24.76,11.99c8.38,0.13,16.72-11.04,25.1-11.24
		c8.37-0.19,17.22,10.58,25.6,10.06c8.36-0.51,15.82-12.29,24.17-13.12c8.33-0.83,17.98,9.23,26.29,8.07
		c8.29-1.15,14.83-13.47,23.09-14.94c8.24-1.47,18.63,7.82,26.84,6.02c8.18-1.79,13.74-14.57,21.87-16.68
		c8.1-2.1,19.18,6.36,27.22,3.94c8.01-2.41,12.57-15.58,20.52-18.31c7.91-2.72,19.61,4.86,27.44,1.82
		c7.8-3.02,11.33-16.5,19.05-19.84c7.67-3.32,19.92,3.34,27.5-0.3c7.54-3.61,10.03-17.32,17.47-21.25c7.39-3.89,20.11,1.81,27.4-2.4
		c7.24-4.17,8.67-18.04,15.8-22.52c7.07-4.44,20.19,0.28,27.14-4.47c6.96-4.75,7.34-18.68,14.06-23.64c6.77-5,20.2-1.29,26.73-6.5"
		/>
	
		<radialGradient id="SVGID_00000141453898230569889330000008316282164263901867_" cx="233.5072" cy="469.4347" r="1287.9064" gradientUnits="userSpaceOnUse">
		<stop  offset="0" style="stop-color:#00A290"/>
		<stop  offset="1" style="stop-color:#00A290"/>
	</radialGradient>
	<path style="opacity:0.2;fill:url(#SVGID_00000141453898230569889330000008316282164263901867_);" d="M1333.24,403.69
		C1124.76,98.15,708.06,19.46,402.52,227.94S18.29,853.11,226.77,1158.65c45.71,66.99,101.42,123.06,163.77,167.6
		c3.4,2.43,6.84,4.8,10.28,7.16c6.88,0.99,15.47-0.49,20.62,2.95c4.91,3.28,6.92,11.07,10.14,16.96c4.37,2.66,8.76,5.27,13.19,7.82
		c6.59,0.1,14.19-1.52,19.18,1.28c4.77,2.68,7.34,9.44,10.61,14.9c5.3,2.71,10.64,5.33,16,7.9c6.21-0.59,12.96-2.31,17.78-0.07
		c4.63,2.15,7.63,8.02,11,13.01c6.13,2.58,12.3,5.05,18.5,7.45c5.78-1.11,11.85-2.95,16.5-1.21c4.49,1.68,7.79,6.75,11.28,11.27
		c6.87,2.32,13.78,4.5,20.72,6.6c5.36-1.53,10.85-3.48,15.33-2.18c4.35,1.26,7.87,5.61,11.47,9.67c7.51,1.93,15.06,3.73,22.63,5.4
		c4.96-1.86,9.97-3.93,14.3-3.03c4.21,0.88,7.88,4.59,11.58,8.19c8.05,1.45,16.12,2.77,24.22,3.93c4.58-2.14,9.18-4.35,13.36-3.8
		c4.08,0.53,7.86,3.69,11.65,6.85c8.49,0.88,16.99,1.65,25.51,2.21c4.23-2.39,8.46-4.72,12.5-4.51c3.95,0.21,7.83,2.87,11.69,5.63
		c8.82,0.26,17.64,0.37,26.48,0.28c3.89-2.6,7.79-5.07,11.69-5.16c3.84-0.09,7.79,2.14,11.74,4.52c9.02-0.4,18.03-0.99,27.04-1.76
		c3.59-2.81,7.2-5.44,10.99-5.82c3.76-0.38,7.78,1.46,11.83,3.49c9.08-1.09,18.14-2.38,27.19-3.84c3.32-3.03,6.67-5.86,10.37-6.52
		c3.69-0.66,7.81,0.84,11.97,2.53c9-1.77,17.98-3.76,26.94-5.92c3.07-3.26,6.18-6.33,9.81-7.27c3.64-0.94,7.88,0.24,12.17,1.62
		c8.8-2.44,17.55-5.09,26.28-7.9c2.83-3.52,5.72-6.87,9.29-8.09c3.61-1.24,8-0.34,12.45,0.72c8.46-3.05,16.87-6.33,25.25-9.74
		c2.6-3.81,5.25-7.47,8.79-9c3.59-1.55,8.17-0.92,12.81-0.19c8.02-3.6,15.97-7.42,23.89-11.36c2.35-4.12,4.76-8.15,8.27-10
		c3.57-1.88,8.38-1.52,13.22-1.13c7.48-4.06,14.89-8.33,22.26-12.71c2.11-4.45,4.23-8.89,7.72-11.08c3.56-2.23,8.64-2.15,13.7-2.12
		c4.95-3.19,9.87-6.45,14.76-9.79c1.91-1.3,3.78-2.65,5.67-3.97c1.85-4.8,3.63-9.69,7.07-12.23c3.57-2.64,9-2.86,14.29-3.24
		C1467.5,1100.88,1535.42,700.01,1333.24,403.69z M1045.35,1223.59c-244.34,146.55-561.22,67.27-707.77-177.07
		C191.03,802.18,270.31,485.3,514.65,338.75c244.34-146.55,561.22-67.27,707.77,177.07
		C1368.97,760.16,1289.69,1077.04,1045.35,1223.59z"/>
	<g>
		<circle class="st13" cx="1436.4" cy="680.07" r="97.26"/>
		<g>
			<g>
				<path class="st10" d="M1407.42,647.66v-9.61h-14.32v7.06h-5.83v-11.1h20.15v-2.35h-17.03v-4.45h40.14v4.45h-17.28v2.35h20.15
					v11.1h-5.83v-7.06h-14.32v9.61H1407.42z M1412.84,672.97c-1.98,0-3.37-0.3-4.19-0.89c-0.82-0.6-1.23-1.58-1.23-2.94v-3.83
					h-14.78v-16h35.02v16h-14.37v1.33c0,0.44,0.11,0.77,0.33,0.97c0.22,0.2,0.71,0.31,1.46,0.31h11.25c1.29,0,2.19-0.38,2.68-1.15
					c0.49-0.77,0.84-2.24,1.05-4.42c0.61,0.34,1.47,0.71,2.56,1.1c1.09,0.39,2.01,0.67,2.76,0.84c-0.34,2.52-0.79,4.41-1.35,5.65
					s-1.32,2.06-2.28,2.45c-0.95,0.39-2.23,0.59-3.83,0.59H1412.84z M1394.95,642.76v-3.17h10.33v3.17H1394.95z M1394.95,647.36
					v-3.12h10.33v3.12H1394.95z M1398.43,655.54h9v-2.3h-9V655.54z M1398.43,661.37h9v-2.3h-9V661.37z M1413.3,655.54h8.64v-2.3
					h-8.64V655.54z M1413.3,661.37h8.64v-2.3h-8.64V661.37z M1415.3,642.76v-3.17h10.33v3.17H1415.3z M1415.3,647.36v-3.12h10.33
					v3.12H1415.3z"/>
				<path class="st10" d="M1444.85,672.21c-0.41-0.89-1-1.84-1.76-2.86c-0.77-1.02-1.44-1.81-2.02-2.35c3-1.19,5.56-2.49,7.7-3.89
					c2.13-1.4,3.9-3.02,5.32-4.88c1.41-1.86,2.51-4.07,3.3-6.65c0.78-2.57,1.29-5.62,1.53-9.13h-15.59v-5.93h15.85v-9.41h6.54v8.59
					c0,0.14-0.01,0.27-0.03,0.41c-0.02,0.14-0.03,0.27-0.03,0.41h18.41c0,3.68-0.08,7.16-0.23,10.43s-0.34,6.17-0.56,8.69
					c-0.22,2.52-0.47,4.52-0.74,5.98c-0.44,2.66-1.1,4.72-1.97,6.19c-0.87,1.47-2.06,2.5-3.58,3.09c-1.52,0.6-3.47,0.89-5.85,0.89
					h-4.09c-0.07-0.65-0.18-1.39-0.33-2.22s-0.33-1.65-0.54-2.45c-0.2-0.8-0.43-1.46-0.67-1.97h5.52c1.5,0,2.62-0.3,3.35-0.89
					c0.73-0.6,1.27-1.82,1.61-3.66c0.17-0.82,0.34-1.7,0.51-2.66c0.17-0.95,0.33-2.1,0.49-3.45c0.15-1.35,0.27-3,0.36-4.96
					c0.08-1.96,0.13-4.32,0.13-7.08h-12.02c-0.38,4.88-1.27,9.15-2.68,12.83c-1.42,3.68-3.56,6.89-6.44,9.64
					C1453.45,667.67,1449.62,670.09,1444.85,672.21z"/>
				<path class="st10" d="M1389.22,707.37c-0.24-0.48-0.58-1.04-1.02-1.69c-0.44-0.65-0.92-1.28-1.43-1.89
					c-0.51-0.61-0.99-1.11-1.43-1.48c2.11-0.82,4.29-1.88,6.52-3.2c2.23-1.31,4.39-2.76,6.47-4.35c2.08-1.58,3.94-3.2,5.57-4.86
					c1.64-1.65,2.9-3.21,3.78-4.68l5.78,0.82c1.09,1.47,2.49,2.97,4.19,4.5c1.7,1.53,3.57,2.99,5.6,4.37
					c2.03,1.38,4.1,2.63,6.21,3.76c2.11,1.12,4.14,2.05,6.08,2.76c-0.51,0.41-1.06,0.96-1.64,1.66c-0.58,0.7-1.12,1.41-1.61,2.12
					c-0.49,0.72-0.86,1.33-1.1,1.84c-1.33-0.58-2.7-1.26-4.12-2.05c-1.41-0.78-2.84-1.64-4.27-2.56v4.35h-24.7v-4.5
					c-1.57,1.06-3.12,2.02-4.65,2.89C1391.93,706.06,1390.52,706.79,1389.22,707.37z M1425.93,733.04
					c-0.41-0.78-0.95-1.65-1.61-2.61c-0.67-0.95-1.41-1.93-2.22-2.91c-1.57,0.27-3.37,0.56-5.42,0.87
					c-2.05,0.31-4.21,0.61-6.49,0.92c-2.28,0.31-4.54,0.59-6.77,0.84c-2.23,0.26-4.31,0.48-6.24,0.66
					c-1.93,0.19-3.57,0.33-4.93,0.43l-1.18-6.08c0.75,0,1.68-0.03,2.79-0.08c1.11-0.05,2.31-0.13,3.6-0.23
					c0.78-1.19,1.59-2.61,2.43-4.24c0.83-1.64,1.58-3.19,2.22-4.65h-12.58v-5.47h41.88v5.47h-12.32c0.92,0.72,1.94,1.62,3.07,2.71
					c1.12,1.09,2.27,2.26,3.43,3.5c1.16,1.24,2.22,2.46,3.2,3.66c0.97,1.19,1.75,2.23,2.33,3.12c-0.44,0.27-1.01,0.66-1.69,1.18
					c-0.68,0.51-1.35,1.03-1.99,1.56C1426.77,732.21,1426.27,732.66,1425.93,733.04z M1399.55,701.28h21.58
					c-2.08-1.43-4.06-2.97-5.93-4.63c-1.88-1.65-3.46-3.31-4.76-4.99c-1.16,1.53-2.71,3.14-4.65,4.83S1401.77,699.78,1399.55,701.28
					z M1404.97,724.24c2.28-0.2,4.55-0.43,6.8-0.69c2.25-0.26,4.29-0.5,6.14-0.74c-1.47-1.5-2.76-2.66-3.89-3.48l3.99-3.37h-8.74
					c-0.58,1.33-1.25,2.72-2.02,4.17C1406.48,721.57,1405.72,722.95,1404.97,724.24z"/>
				<path class="st10" d="M1449.3,732.27v-17.03c-0.95,0.85-1.94,1.7-2.97,2.53c-1.02,0.84-2.08,1.63-3.17,2.38
					c-0.44-0.68-1.09-1.48-1.94-2.4c-0.85-0.92-1.58-1.64-2.2-2.15c1.36-0.78,2.8-1.76,4.32-2.94c1.52-1.18,3.01-2.47,4.47-3.89
					c1.46-1.41,2.79-2.85,3.99-4.29c1.19-1.45,2.15-2.8,2.86-4.06h-12.94v-5.52h7.52v-8.95h5.93v8.95h4.7l2.76,2.3
					c-1.43,3.2-3.29,6.34-5.57,9.41c0.89,0.61,1.85,1.25,2.89,1.92c1.04,0.66,2.04,1.28,2.99,1.84c0.95,0.56,1.74,1.01,2.35,1.35
					c-0.34,0.34-0.74,0.81-1.2,1.41c-0.46,0.6-0.9,1.21-1.33,1.84c-0.43,0.63-0.76,1.17-1,1.61c-0.92-0.61-1.96-1.32-3.12-2.12
					c-1.16-0.8-2.3-1.59-3.43-2.38v20.2H1449.3z M1459.48,730.63v-5.88h11.5v-17.79h-8.64v-5.88h8.64V686h6.19v15.08h8.9v5.88h-8.9
					v17.79h10.28v5.88H1459.48z"/>
			</g>
		</g>
	</g>
	<g>
		<circle class="st14" cx="1128.99" cy="221.16" r="97.26"/>
	</g>
	<polygon class="st15" points="1293.38,852.92 1251.32,773.58 1339.13,776.02 	"/>
	
		<linearGradient id="SVGID_00000155145815082542794670000006768804026705830789_" gradientUnits="userSpaceOnUse" x1="-1505.2357" y1="7020.4722" x2="-1310.373" y2="7020.4722" gradientTransform="matrix(-0.5144 0.8576 -0.8576 -0.5144 6565.7104 5489.7153)">
		<stop  offset="0" style="stop-color:#1BA1BC"/>
		<stop  offset="1" style="stop-color:#1BA1BC"/>
	</linearGradient>
	
		<path style="fill:none;stroke:url(#SVGID_00000155145815082542794670000006768804026705830789_);stroke-width:12.8736;stroke-miterlimit:10;stroke-dasharray:22.7249,11.3624;" d="
		M1239.61,546.41c36.04,70.41,56.37,150.19,56.37,234.72c0,5.4-0.08,10.78-0.25,16.13"/>
	
		<linearGradient id="SVGID_00000161615100060539752690000003943764562390614967_" gradientUnits="userSpaceOnUse" x1="-1584.5328" y1="7362.165" x2="-1538.2219" y2="7362.165" gradientTransform="matrix(-0.5144 0.8576 -0.8576 -0.5144 6565.7104 5489.7153)">
		<stop  offset="0" style="stop-color:#1BA1BC"/>
		<stop  offset="1" style="stop-color:#1BA1BC"/>
	</linearGradient>
	
		<path style="fill:none;stroke:url(#SVGID_00000161615100060539752690000003943764562390614967_);stroke-width:12.8736;stroke-miterlimit:10;stroke-dasharray:22.7249,11.3624;" d="
		M913.97,282.78c108.98,29.21,203.72,93.21,271.59,179.37"/>
	<g>
		<path class="st15" d="M1226.46,483.69c-1.72-2.64-4.42-4.48-7.53-5.05c-7.82-1.44-23.26-2.95-34.58,4.42
			c-9.01,5.87-9.1,15.58-6.18,20.06l20.54,31.54c2.93,4.5,11.84,8.33,20.85,2.46c11.32-7.37,16.19-22.11,18.03-29.84
			c0.73-3.07,0.15-6.28-1.57-8.93L1226.46,483.69z"/>
		<path class="st15" d="M1252.1,493.48l-2.17-3.34c-1.08-1.66-1.48-3.61-1.63-5.58c-0.1-1.34-0.54-2.65-1.29-3.81
			c-0.75-1.15-1.77-2.08-2.96-2.72c-1.75-0.94-3.36-2.09-4.44-3.75l-2.17-3.34c-0.49-0.74-1.31-1.2-2.2-1.21
			c-0.89-0.02-1.73,0.41-2.24,1.13l-3.23,4.22c-0.8,1.04-0.85,2.46-0.14,3.56l12.29,18.87c0.71,1.1,2.04,1.62,3.31,1.31l5.16-1.25
			c0.87-0.18,1.6-0.78,1.94-1.59S1252.58,494.23,1252.1,493.48L1252.1,493.48z"/>
		<g>
			<g>
				<path class="st18" d="M1214.11,490.1l2.46,3.79l-4.81,10.01l10.97-0.54l2.47,3.79l-12.38,0.65l2.59,3.98l-3.12,2.04l-3.52-5.4
					l-1.04,0.68l3.52,5.4l-2.94,1.91l-3.52-5.4l-3.6,2.34l-2.4-3.69l3.59-2.34l-3.51-5.4l2.94-1.91l3.51,5.4l1.14-0.74l-3.52-5.4
					l3.03-1.97l2.53,3.88L1214.11,490.1z"/>
			</g>
		</g>
	</g>
	<g>
		<g>
			<path class="st18" d="M1084.25,277.71c-1.95-2.74-3.47-5.64-4.54-8.69c-1.07-3.05-1.61-6.2-1.61-9.43c0-3.29,0.54-6.47,1.61-9.56
				c1.08-3.09,2.59-5.94,4.54-8.56l3.37,1.74c-1.73,2.47-3.11,5.04-4.13,7.71c-1.03,2.67-1.54,5.56-1.54,8.67
				c0,3.06,0.51,5.91,1.54,8.54s2.42,5.23,4.17,7.8L1084.25,277.71z"/>
			<path class="st18" d="M1094.63,274.63c-0.32-0.64-0.75-1.31-1.28-2c-0.53-0.69-1.08-1.27-1.65-1.74
				c3.04-1.41,5.58-3.14,7.62-5.19c2.04-2.05,3.65-4.35,4.82-6.89c1.17-2.54,1.95-5.24,2.32-8.08l2.63,0.44
				c-0.1-0.84-0.18-1.69-0.24-2.56c-0.06-0.86-0.08-1.75-0.06-2.67h-8.6v-4.15h13.16c-0.32,4.35-0.11,8.32,0.63,11.9
				c0.74,3.58,2.19,6.8,4.35,9.64c2.16,2.84,5.2,5.35,9.1,7.52c-0.54,0.42-1.14,1-1.78,1.74c-0.64,0.74-1.17,1.42-1.59,2.04
				c-3.29-2.13-6.17-4.73-8.64-7.82c-2.47-3.09-4.28-6.76-5.41-11.01c-0.72,2.69-1.8,5.23-3.24,7.62c-1.45,2.39-3.19,4.53-5.25,6.43
				C1099.47,271.75,1097.17,273.35,1094.63,274.63z"/>
			<path class="st18" d="M1138.63,274.41v-13.38c-0.67,1.14-1.34,2.21-2.02,3.22c-0.68,1.01-1.34,1.88-1.98,2.59
				c-0.44-0.44-1.01-0.94-1.69-1.48c-0.68-0.54-1.29-0.94-1.83-1.19c0.67-0.62,1.37-1.41,2.09-2.39c0.73-0.98,1.45-2.04,2.15-3.19
				c0.7-1.15,1.35-2.29,1.93-3.41c0.58-1.12,1.03-2.14,1.35-3.06v-0.19h-6.41v-3.85h6.41v-7.12h4.26v7.12h5.45v3.85h-5.45v1.22
				c0.49,0.64,1.12,1.38,1.87,2.21c0.75,0.83,1.52,1.61,2.3,2.35c0.78,0.74,1.43,1.32,1.95,1.74c-0.27,0.22-0.6,0.53-0.98,0.93
				c-0.38,0.4-0.75,0.79-1.09,1.19c-0.35,0.4-0.61,0.73-0.78,1c-0.42-0.42-0.92-0.95-1.5-1.59c-0.58-0.64-1.17-1.31-1.76-2v15.42
				H1138.63z M1154.6,273.71c-1.51,0-2.58-0.23-3.21-0.69c-0.63-0.46-0.94-1.23-0.94-2.32v-29.39h4.45v27.21
				c0,0.37,0.09,0.63,0.28,0.78c0.19,0.15,0.55,0.22,1.09,0.22h2.45c1.06,0,1.77-0.31,2.13-0.93c0.36-0.62,0.61-1.75,0.76-3.41
				c0.49,0.25,1.15,0.52,1.98,0.82c0.83,0.3,1.55,0.53,2.17,0.7c-0.27,1.93-0.63,3.39-1.07,4.39s-1.05,1.69-1.82,2.06
				c-0.77,0.37-1.79,0.56-3.08,0.56H1154.6z"/>
			<path class="st18" d="M1173.73,277.71l-3.41-1.78c1.75-2.57,3.14-5.17,4.17-7.8c1.02-2.63,1.54-5.48,1.54-8.54
				c0-3.11-0.51-6-1.54-8.67c-1.03-2.67-2.4-5.24-4.13-7.71l3.37-1.74c1.93,2.62,3.43,5.47,4.52,8.56c1.09,3.09,1.63,6.28,1.63,9.56
				c0,3.24-0.54,6.38-1.61,9.43C1177.19,272.07,1175.68,274.97,1173.73,277.71z"/>
		</g>
	</g>
	<path class="st18" d="M1089.69,206.33l-17.11,0c-1.77-0.03-3.19-1.47-3.19-3.24c0-1.79,1.45-3.24,3.24-3.24l10.35,0
		c-1.41-4.37-5.51-7.54-10.35-7.54c-6,0-10.87,4.87-10.87,10.87s4.87,10.87,10.87,10.87c3.13,0,5.94-1.32,7.93-3.44l4.56,4.61
		c-3.15,3.27-7.58,5.3-12.48,5.3c-9.58,0-17.35-7.77-17.35-17.35s7.77-17.35,17.35-17.35c9.58,0,17.35,7.77,17.35,17.35
		C1089.97,204.25,1089.87,205.3,1089.69,206.33z M1099.81,211.36c-2.64,0-4.78,2.14-4.78,4.78c0,2.64,2.14,4.78,4.78,4.78
		c2.64,0,4.78-2.14,4.78-4.78C1104.59,213.5,1102.45,211.36,1099.81,211.36z M1198.09,190.84c-3.08-3.23-7.4-4.27-11.96-4.27h-13.99
		v33.21h13.99c4.55,0,8.73-1.14,11.86-4.36c2.99-3.08,4.7-7.92,4.7-12.34C1202.7,198.72,1201.37,194.26,1198.09,190.84z
		 M1193.95,210.19c-1.59,2.1-4.38,3.08-7.7,3.08h-7.24v-20.19h7.24c3.27,0,5.93,0.85,7.57,2.81c1.59,1.92,2.3,4.73,2.3,7.15
		C1196.12,205.41,1195.46,208.22,1193.95,210.19z M1160.48,186.57h-6.86v33.21h6.86V186.57z M1140.26,202.8
		c1.76-1.8,2.56-4.17,2.56-6.55c0-9.59-8.59-9.68-10.72-9.68h-18.41v0.05v33.16l18.98-0.05c1.99,0,11.15-0.09,11.15-9.77
		C1143.82,207.21,1142.44,204.13,1140.26,202.8z M1131.15,213.63h-10.6v-7.23h10.51c2.12,0,5.43,0.18,5.43,3.48
		C1136.48,213.45,1133.44,213.63,1131.15,213.63z M1131.15,199.96h-10.6v-7.23h10.51c2.12,0,5.43,0.18,5.43,3.48
		C1136.48,199.79,1133.44,199.96,1131.15,199.96z"/>
	<g>
		<path class="st10" d="M643.58,1376.32c-1.88,0.55-3.52,0.57-4.94,0.05c-1.42-0.52-2.5-1.75-3.24-3.71
			c-0.67-1.83-1.18-3.92-1.55-6.28c-0.37-2.36-0.58-4.82-0.64-7.39c-0.06-2.57,0.03-5.1,0.27-7.6c0.24-2.5,0.62-4.81,1.14-6.93
			l6.07,1.44c-0.47,1.61-0.83,3.4-1.07,5.37c-0.24,1.97-0.37,3.99-0.39,6.05c-0.02,2.06,0.08,4,0.3,5.81
			c0.21,1.81,0.54,3.37,0.98,4.66c0.28,0.9,0.69,1.48,1.21,1.72c0.52,0.24,1.14,0.24,1.87-0.02c0.92-0.35,1.93-0.89,3.02-1.62
			c1.09-0.73,2.04-1.46,2.83-2.18c0.05,0.54,0.2,1.16,0.43,1.88c0.24,0.72,0.51,1.43,0.82,2.13c0.31,0.7,0.61,1.28,0.89,1.73
			c-1.2,1.12-2.5,2.12-3.91,2.99C646.25,1375.29,644.89,1375.92,643.58,1376.32z M664.55,1371.31c-0.11-1.04-0.35-2.35-0.72-3.94
			c-0.37-1.59-0.83-3.26-1.37-5.01s-1.11-3.38-1.71-4.9c-0.6-1.52-1.19-2.73-1.79-3.64l5.48-1.94c0.64,1.02,1.31,2.34,2,3.97
			c0.69,1.63,1.35,3.34,1.97,5.15c0.62,1.8,1.14,3.53,1.57,5.18c0.43,1.65,0.69,3.03,0.78,4.14c-1.08-0.04-2.19,0.04-3.33,0.23
			C666.28,1370.75,665.32,1371,664.55,1371.31z"/>
		<path class="st10" d="M697.87,1386.59c-1.82,0.72-3.46,0.88-4.92,0.5c-1.46-0.39-2.65-1.52-3.56-3.4
			c-0.83-1.76-1.53-3.8-2.11-6.12c-0.58-2.31-1.02-4.75-1.31-7.3c-0.29-2.55-0.43-5.08-0.42-7.59c0.01-2.51,0.18-4.84,0.51-7
			l6.17,0.89c-0.33,1.64-0.52,3.46-0.58,5.44c-0.06,1.99-0.01,4.01,0.16,6.06c0.17,2.05,0.44,3.97,0.82,5.76
			c0.38,1.79,0.84,3.31,1.4,4.55c0.36,0.88,0.82,1.41,1.36,1.6c0.54,0.19,1.16,0.13,1.86-0.19c0.88-0.43,1.84-1.06,2.86-1.88
			c1.02-0.82,1.9-1.63,2.63-2.43c0.1,0.53,0.3,1.14,0.6,1.84c0.3,0.69,0.64,1.38,1.01,2.05c0.37,0.67,0.72,1.22,1.04,1.64
			c-1.1,1.23-2.3,2.34-3.62,3.33C700.44,1385.32,699.14,1386.07,697.87,1386.59z M718.3,1379.7c-0.21-1.02-0.56-2.31-1.08-3.86
			c-0.51-1.55-1.12-3.17-1.82-4.86c-0.7-1.69-1.41-3.27-2.15-4.73c-0.73-1.46-1.44-2.61-2.11-3.46l5.28-2.43
			c0.73,0.96,1.51,2.22,2.35,3.78c0.84,1.56,1.65,3.21,2.43,4.95c0.78,1.74,1.46,3.41,2.03,5.02c0.57,1.61,0.96,2.96,1.15,4.05
			c-1.08,0.06-2.17,0.24-3.3,0.53C719.97,1378.98,719.04,1379.32,718.3,1379.7z"/>
		<path class="st10" d="M737.66,1400.03c-0.41-0.73-1-1.64-1.77-2.71c-0.77-1.07-1.48-1.95-2.14-2.63c1.11-0.33,2.38-0.82,3.83-1.47
			c1.44-0.65,2.93-1.42,4.45-2.29c1.52-0.87,2.96-1.78,4.32-2.73c1.35-0.95,2.49-1.84,3.42-2.69l4.31,4.44
			c-1.35,1.2-2.97,2.46-4.85,3.75c-1.88,1.3-3.83,2.51-5.84,3.63C741.37,1398.46,739.46,1399.36,737.66,1400.03z M734.39,1383.46
			l0.25-5.67l12,0.53l0.4-9.09l-8.94-0.39l0.24-5.57l8.94,0.39l0.4-9.09l6.49,0.28l-0.4,9.09l9.09,0.4l0.4-9.09l6.49,0.28l-0.4,9.09
			l9.04,0.4l-0.24,5.57l-9.04-0.4l-0.4,9.09l12.06,0.53l-0.25,5.67L734.39,1383.46z M753.13,1378.6l9.09,0.4l0.4-9.09l-9.09-0.4
			L753.13,1378.6z M775.86,1401.71c-1.74-0.83-3.56-1.89-5.46-3.18c-1.91-1.29-3.73-2.67-5.47-4.13c-1.75-1.46-3.25-2.85-4.53-4.16
			l4.68-4.04c0.85,0.92,1.9,1.92,3.17,2.98c1.27,1.06,2.62,2.09,4.06,3.1c1.44,1,2.85,1.89,4.23,2.67c1.38,0.78,2.61,1.38,3.68,1.8
			c-0.71,0.62-1.5,1.43-2.36,2.43C777.01,1400.16,776.34,1401.01,775.86,1401.71z"/>
		<path class="st10" d="M790.3,1399.69l-0.26-5.46l19.97-0.95l-0.45-9.5l-12.92,0.61l-0.26-5.57l12.92-0.61l-0.38-7.92l-10.67,0.51
			c-0.88,1.65-1.79,3.21-2.72,4.69c-0.94,1.48-1.86,2.77-2.76,3.87c-0.36-0.32-0.88-0.68-1.56-1.08c-0.68-0.39-1.38-0.77-2.1-1.13
			c-0.72-0.36-1.33-0.61-1.85-0.76c0.94-0.97,1.95-2.28,3.01-3.96c1.06-1.67,2.08-3.49,3.04-5.47c0.96-1.97,1.8-3.9,2.52-5.78
			c0.71-1.88,1.17-3.52,1.38-4.93l5.97,1.66c-0.47,2.34-1.24,4.77-2.32,7.28l7.81-0.37l-0.48-10.11l6.44-0.31l0.48,10.11l16.6-0.79
			l0.26,5.46l-16.6,0.79l0.38,7.92l12.77-0.61l0.26,5.57l-12.77,0.61l0.45,9.5l18.44-0.87l0.26,5.46L790.3,1399.69z"/>
		<path class="st10" d="M847.11,1398.67l-6.27-44.87l19.8-2.77l2.28,16.31l-14.08,1.97l3.99,28.56L847.11,1398.67z M847.45,1359.33
			l8.56-1.2l-0.3-2.13l-8.56,1.2L847.45,1359.33z M848.25,1365.11l8.56-1.2l-0.3-2.13l-8.56,1.2L848.25,1365.11z M881.24,1393.85
			c-0.13-0.67-0.35-1.45-0.66-2.33c-0.31-0.89-0.62-1.65-0.92-2.3c-0.69,1.23-1.19,2.35-1.49,3.36c-2.16-0.42-4.16-1.23-5.99-2.42
			c-1.84-1.19-3.4-2.57-4.68-4.15c-0.78,2.07-1.96,3.92-3.56,5.56c-1.6,1.63-3.64,3.02-6.13,4.16c-0.36-0.57-0.9-1.28-1.64-2.12
			c-0.74-0.84-1.38-1.5-1.93-1.98c2.25-0.9,4.03-1.94,5.35-3.12c1.31-1.18,2.24-2.55,2.78-4.11l-9.12,1.27l-0.59-4.2l10.43-1.46
			c0.02-0.38,0.01-0.78-0.01-1.21c-0.03-0.43-0.05-0.86-0.08-1.31l-9.32,1.3l-0.59-4.2l5.57-0.78c-0.46-0.59-0.94-1.16-1.43-1.71
			c-0.49-0.55-0.95-1.02-1.38-1.41l4.08-2.58c0.6,0.6,1.31,1.4,2.12,2.39c0.81,0.99,1.47,1.84,1.98,2.56l2.94-0.41
			c0.36-0.84,0.73-1.84,1.1-2.99c0.37-1.15,0.63-2.1,0.76-2.84l4.92,0.86c-0.15,0.67-0.34,1.38-0.58,2.12
			c-0.24,0.74-0.49,1.44-0.74,2.09l5.27-0.74l0.59,4.2l-9.72,1.36c0.06,0.44,0.1,0.86,0.1,1.28s0,0.83-0.01,1.24l11.34-1.59
			l0.59,4.2l-9.11,1.27c1.11,1.08,2.43,2.01,3.95,2.78c1.52,0.77,3.25,1.31,5.18,1.62c-0.06,0.08-0.12,0.17-0.19,0.29
			c-0.07,0.11-0.13,0.23-0.19,0.34l2.03-0.28c0.67-0.09,1.09-0.25,1.25-0.46c0.16-0.21,0.2-0.62,0.11-1.23l-2.98-21.32l-14.18,1.98
			l-2.28-16.31l19.9-2.78l5.55,39.65c0.25,1.75-0.04,3.12-0.85,4.09c-0.81,0.97-2.26,1.61-4.35,1.9L881.24,1393.85z M870.59,1356.1
			l8.66-1.21l-0.3-2.13l-8.66,1.21L870.59,1356.1z M871.4,1361.87l8.66-1.21l-0.3-2.13l-8.66,1.21L871.4,1361.87z"/>
		<path class="st10" d="M907.48,1389.34l-5.96-25.39c-0.8,2.11-1.64,3.96-2.53,5.53c-0.76-0.42-1.64-0.85-2.64-1.3
			c-1-0.45-1.93-0.8-2.79-1.05c1.07-1.72,2.03-3.67,2.88-5.85c0.85-2.18,1.6-4.42,2.23-6.72c0.63-2.3,1.12-4.49,1.48-6.57
			c0.35-2.08,0.53-3.84,0.55-5.28l6.11,0.3c-0.28,3.11-0.89,6.51-1.81,10.19l8.17,34.79L907.48,1389.34z M926.86,1384.63
			l-3.98-16.92c-2.19,0.66-4.27,1.26-6.22,1.8c-1.96,0.55-3.56,0.97-4.82,1.26l-1.94-5.11c1.37-0.29,2.83-0.64,4.4-1.06
			c1.56-0.42,3.19-0.86,4.86-1.33c0.14-0.28,0.31-0.58,0.5-0.9c0.19-0.32,0.37-0.68,0.56-1.08c-1.17-0.5-2.44-0.98-3.81-1.47
			c-1.37-0.48-2.7-0.92-3.98-1.3c-1.28-0.38-2.38-0.66-3.29-0.83l2.23-5.25c0.49,0.13,1,0.28,1.55,0.45
			c0.55,0.17,1.12,0.34,1.72,0.51c0.38-0.93,0.8-1.98,1.25-3.16c0.46-1.18,0.86-2.29,1.21-3.36c-1.4,0.43-2.75,0.85-4.04,1.24
			c-1.29,0.39-2.51,0.74-3.67,1.05c-0.28-0.74-0.67-1.59-1.18-2.56c-0.51-0.97-1.01-1.77-1.52-2.43c1.59-0.37,3.45-0.87,5.56-1.49
			c2.11-0.62,4.27-1.31,6.47-2.07c2.2-0.76,4.24-1.54,6.12-2.33c1.88-0.79,3.37-1.53,4.47-2.21l4.48,4.09
			c-1.52,0.81-3.35,1.66-5.47,2.55c-2.12,0.88-4.34,1.74-6.67,2.57l1.98,0.38c-0.3,0.95-0.68,2-1.12,3.15
			c-0.45,1.16-0.91,2.29-1.38,3.4s-0.92,2.1-1.35,2.97c0.53,0.19,1.04,0.39,1.5,0.59c0.47,0.21,0.92,0.4,1.34,0.58
			c0.9-1.96,1.76-3.92,2.56-5.88c0.8-1.96,1.36-3.51,1.69-4.68l5.74,1.64c-0.43,1.15-1.03,2.54-1.8,4.18
			c-0.77,1.63-1.59,3.32-2.47,5.04c-0.87,1.73-1.7,3.3-2.49,4.71c1.38-0.39,2.69-0.78,3.93-1.16c1.24-0.38,2.37-0.72,3.38-1.03
			c-0.48-0.41-0.96-0.81-1.43-1.19c-0.47-0.38-0.92-0.71-1.34-1l3.61-3.63c1.12,0.75,2.28,1.63,3.48,2.62c1.2,1,2.33,2,3.41,3.01
			s1.98,1.93,2.7,2.78c-0.59,0.49-1.29,1.12-2.1,1.91c-0.81,0.79-1.43,1.47-1.85,2.06c-0.34-0.41-0.72-0.85-1.12-1.31
			c-0.41-0.46-0.84-0.94-1.31-1.43c-1.1,0.4-2.38,0.84-3.86,1.33c-1.48,0.49-3.03,0.99-4.66,1.52l4.08,17.37L926.86,1384.63z
			 M918.25,1383.97c-0.88-0.46-1.81-0.87-2.79-1.24c-0.98-0.37-1.85-0.62-2.62-0.75c0.57-0.87,1.13-1.91,1.71-3.13
			c0.57-1.22,1.09-2.51,1.56-3.86c0.47-1.35,0.83-2.64,1.07-3.85l5.35,1.11c-0.27,1.25-0.62,2.6-1.07,4.03
			c-0.45,1.44-0.96,2.82-1.52,4.16C919.38,1381.79,918.82,1382.96,918.25,1383.97z M940.52,1378.63c-0.97-0.68-2.03-1.55-3.19-2.61
			c-1.16-1.06-2.27-2.15-3.35-3.28c-1.07-1.13-1.95-2.11-2.63-2.93l4.25-3.36c0.69,0.85,1.56,1.78,2.6,2.78
			c1.04,1,2.12,1.93,3.23,2.79c1.11,0.86,2.1,1.56,2.96,2.09c-0.72,0.66-1.41,1.39-2.06,2.19
			C941.69,1377.09,941.08,1377.87,940.52,1378.63z"/>
	</g>
</g>
</svg>
