<svg xmlns="http://www.w3.org/2000/svg" xmlns:xlink="http://www.w3.org/1999/xlink" width="120" height="85.381" viewBox="0 0 120 85.381">
  <defs>
    <radialGradient id="radial-gradient" cx="0.089" cy="0.248" r="0.77" gradientTransform="translate(0.144) scale(0.712 1)" gradientUnits="objectBoundingBox">
      <stop offset="0" stop-color="#1ba1bc"/>
      <stop offset="1" stop-color="#00a290"/>
    </radialGradient>
  </defs>
  <path id="パス_39" data-name="パス 39" d="M-1608.618,2104.272l-41.633-.005a7.885,7.885,0,0,1-7.768-7.882,7.889,7.889,0,0,1,7.876-7.888h25.19a26.458,26.458,0,0,0-25.18-18.344,26.445,26.445,0,0,0-26.445,26.445,26.444,26.444,0,0,0,26.445,26.445,26.364,26.364,0,0,0,19.286-8.36l11.094,11.223a42.088,42.088,0,0,1-30.38,12.907,42.214,42.214,0,0,1-42.214-42.214,42.214,42.214,0,0,1,42.214-42.214,42.214,42.214,0,0,1,42.214,42.214A42.453,42.453,0,0,1-1608.618,2104.272Zm24.645,12.241a11.626,11.626,0,0,0-11.626,11.626,11.626,11.626,0,0,0,11.626,11.626,11.626,11.626,0,0,0,11.626-11.626A11.626,11.626,0,0,0-1583.973,2116.513Z" transform="translate(1692.347 -2054.384)" fill="url(#radial-gradient)"/>
</svg>
