<svg id="レイヤー_1" data-name="レイヤー 1" xmlns="http://www.w3.org/2000/svg" xmlns:xlink="http://www.w3.org/1999/xlink" viewBox="0 0 600 200"><defs><style>.cls-1{fill:url(#名称未設定グラデーション_43);}.cls-2{clip-path:url(#clip-path);}.cls-3{fill:url(#名称未設定グラデーション_43-3);}.cls-4{opacity:0.15;}.cls-5{fill:url(#名称未設定グラデーション_43-4);}.cls-6{fill:#fff;}.cls-7{fill:url(#名称未設定グラデーション_43-5);}.cls-8{fill:url(#名称未設定グラデーション_11);}.cls-9{fill:none;}</style><linearGradient id="名称未設定グラデーション_43" x1="242.21" y1="90.04" x2="296.33" y2="155.38" gradientUnits="userSpaceOnUse"><stop offset="0.32" stop-color="#2098b2"/><stop offset="1" stop-color="#0ebb90"/></linearGradient><clipPath id="clip-path"><path class="cls-1" d="M389.74,101.69H212.13a7.91,7.91,0,0,0-5.84,2.57L181.5,131.32a12.66,12.66,0,0,0-3.33,8.56v44.88a5,5,0,0,0,5,5H418.69a5,5,0,0,0,5-5V139.88a12.65,12.65,0,0,0-3.32-8.56l-24.79-27.06A7.91,7.91,0,0,0,389.74,101.69Z"/></clipPath><linearGradient id="名称未設定グラデーション_43-3" x1="210.16" y1="-0.12" x2="365.35" y2="230.8" xlink:href="#名称未設定グラデーション_43"/><linearGradient id="名称未設定グラデーション_43-4" x1="263.67" y1="39.04" x2="329.75" y2="107.39" xlink:href="#名称未設定グラデーション_43"/><linearGradient id="名称未設定グラデーション_43-5" x1="159.33" y1="20.12" x2="229.74" y2="80.28" xlink:href="#名称未設定グラデーション_43"/><radialGradient id="名称未設定グラデーション_11" cx="125.46" cy="103.85" r="62.67" xlink:href="#名称未設定グラデーション_43"/></defs><path class="cls-1" d="M389.74,101.69H212.13a7.91,7.91,0,0,0-5.84,2.57L181.5,131.32a12.66,12.66,0,0,0-3.33,8.56v44.88a5,5,0,0,0,5,5H418.69a5,5,0,0,0,5-5V139.88a12.65,12.65,0,0,0-3.32-8.56l-24.79-27.06A7.91,7.91,0,0,0,389.74,101.69Z"/><g class="cls-2"><path class="cls-3" d="M423.69,135H178.17l28.12-30.69a7.91,7.91,0,0,1,5.84-2.57H389.74a7.91,7.91,0,0,1,5.84,2.57Z"/></g><rect class="cls-4" x="246.29" y="112.77" width="109.3" height="7.92" rx="3.96"/><path class="cls-5" d="M267.92,31.49h66a5,5,0,0,1,5,5v84.2a0,0,0,0,1,0,0h-76a0,0,0,0,1,0,0V36.49A5,5,0,0,1,267.92,31.49Z"/><path class="cls-6" d="M309.16,63.17a2.14,2.14,0,0,0-3.38-2.46l-17.13,15a2.14,2.14,0,0,0,1.41,3.75h7.46l-5.14,12a2.14,2.14,0,0,0,3.38,2.46l17.12-15a2.13,2.13,0,0,0-1.41-3.74H304Z"/><path class="cls-7" d="M235.13,77.75A42.11,42.11,0,1,0,222.87,90l13.19,4.26A2.64,2.64,0,0,0,239.39,91Z"/><path class="cls-8" d="M168.16,76.59V60.75a2.64,2.64,0,0,0-2.64-2.64h-13.2a2.64,2.64,0,0,0-2.64,2.64V76.59h-6.29a2.64,2.64,0,0,0-1.87,4.51l14.6,14.59a4,4,0,0,0,5.6,0L176.31,81.1a2.64,2.64,0,0,0-1.87-4.51Z"/><path class="cls-6" d="M191.09,34a3.39,3.39,0,0,0-5.64,3.77l8.08,12.12H188a3.39,3.39,0,0,0,0,6.78h8.48v3.39H188a3.4,3.4,0,0,0,0,6.79h8.48v6.78a3.4,3.4,0,0,0,6.79,0V66.84h8.47a3.4,3.4,0,1,0,0-6.79h-8.47V56.66h8.47a3.39,3.39,0,1,0,0-6.78H206.2l8.08-12.12A3.4,3.4,0,0,0,208.63,34l-8.77,13.16Z"/><rect class="cls-9" width="600" height="200"/></svg>