<?xml version="1.0" encoding="utf-8"?>
<!-- Generator: Adobe Illustrator 25.4.1, SVG Export Plug-In . SVG Version: 6.00 Build 0)  -->
<svg version="1.1" id="レイヤー_1" xmlns="http://www.w3.org/2000/svg" xmlns:xlink="http://www.w3.org/1999/xlink" x="0px"
	 y="0px" viewBox="0 0 600 200" style="enable-background:new 0 0 600 200;" xml:space="preserve">
<style type="text/css">
	.st0{fill:url(#SVGID_1_);}
	.st1{fill:#FFFFFF;}
	.st2{fill:url(#SVGID_00000168083112677124127090000014885291919587560376_);}
	.st3{fill:url(#SVGID_00000030482467231769784430000016396669600155615893_);}
	.st4{fill:url(#SVGID_00000134217361873396591930000012188688573428335252_);}
	.st5{fill:url(#SVGID_00000051359289825632447580000000827229058122338219_);}
	.st6{fill:none;}
	.st7{opacity:0.1;clip-path:url(#SVGID_00000024680463549020479890000003431540922610735015_);}
	.st8{fill:url(#SVGID_00000105429156859409077770000006413765836025669011_);}
	.st9{fill:url(#SVGID_00000106830097772159213590000012558789215468225466_);}
	.st10{fill:url(#SVGID_00000133518658398788134510000009114790103455055751_);}
	.st11{opacity:0.1;clip-path:url(#SVGID_00000114059714227306535850000009876317500414684302_);}
	.st12{fill:url(#SVGID_00000112610376862002382060000015782106308120456588_);}
</style>
<g>
	<g id="レイヤー_1_00000002353676324231545280000004109626826377534859_">
		<g>
			<g>
				
					<radialGradient id="SVGID_1_" cx="249.81" cy="153.77" r="109.83" gradientTransform="matrix(1 0 0 -1 0 200)" gradientUnits="userSpaceOnUse">
					<stop  offset="0.32" style="stop-color:#2098B2"/>
					<stop  offset="1" style="stop-color:#0EBB90"/>
				</radialGradient>
				<path class="st0" d="M346.9,29.7h-93.1c-2.8,0-5,2.2-5,5v130.8c0,2.8,2.2,5,5,5h27.3v-31.8h38.6v31.8h27.3c2.8,0,5-2.2,5-5V34.7
					C351.9,32,349.7,29.7,346.9,29.7z"/>
				<rect x="281.1" y="138.8" class="st1" width="38.6" height="31.8"/>
			</g>
			
				<radialGradient id="SVGID_00000093159817476434941040000015570328102648894599_" cx="221.48" cy="40.64" r="69.22" gradientTransform="matrix(0.94 0 0 -1 71.99 200)" gradientUnits="userSpaceOnUse">
				<stop  offset="0.32" style="stop-color:#2098B2"/>
				<stop  offset="1" style="stop-color:#0EBB90"/>
			</radialGradient>
			<path style="fill:url(#SVGID_00000093159817476434941040000015570328102648894599_);" d="M277.5,132.5h46.7
				c2.4,0.1,4.2,2,4.1,4.4l0,0c0.1,2.4-1.8,4.3-4.1,4.4h-46.7c-2.4-0.1-4.2-2-4.1-4.4c0,0,0,0,0,0l0,0
				C273.3,134.6,275.2,132.6,277.5,132.5C277.5,132.5,277.5,132.5,277.5,132.5z"/>
			<path class="st1" d="M271.5,49.8h9.6c1.6,0,2.8,1.3,2.8,2.8v9.6c0,1.6-1.3,2.8-2.8,2.8h-9.6c-1.6,0-2.8-1.3-2.8-2.8v-9.6
				C268.6,51.1,269.9,49.8,271.5,49.8z"/>
			<path class="st1" d="M295.6,49.7h9.6c1.6,0,2.8,1.3,2.8,2.8v9.6c0,1.6-1.3,2.8-2.8,2.8h-9.6c-1.6,0-2.8-1.3-2.8-2.8v-9.6
				C292.7,51,294,49.7,295.6,49.7z"/>
			<path class="st1" d="M319.6,49.7h9.6c1.6,0,2.8,1.3,2.8,2.8v9.6c0,1.6-1.3,2.8-2.8,2.8h-9.6c-1.6,0-2.8-1.3-2.8-2.8v-9.6
				C316.8,51,318.1,49.7,319.6,49.7z"/>
			<path class="st1" d="M271.5,74h9.6c1.6,0,2.8,1.3,2.8,2.8v9.6c0,1.6-1.3,2.8-2.8,2.8h-9.6c-1.6,0-2.8-1.3-2.8-2.8v-9.6
				C268.6,75.3,269.9,74,271.5,74z"/>
			<path class="st1" d="M295.6,73.9h9.6c1.6,0,2.8,1.3,2.8,2.8v9.6c0,1.6-1.3,2.8-2.8,2.8h-9.6c-1.6,0-2.8-1.3-2.8-2.8v-9.6
				C292.7,75.2,294,73.9,295.6,73.9z"/>
			<path class="st1" d="M319.6,73.9h9.6c1.6,0,2.8,1.3,2.8,2.8v9.6c0,1.6-1.3,2.8-2.8,2.8h-9.6c-1.6,0-2.8-1.3-2.8-2.8v-9.6
				C316.8,75.2,318.1,73.9,319.6,73.9z"/>
			<path class="st1" d="M271.5,98.2h9.6c1.6,0,2.8,1.3,2.8,2.8v9.6c0,1.6-1.3,2.8-2.8,2.8h-9.6c-1.6,0-2.8-1.3-2.8-2.8V101
				C268.6,99.5,269.9,98.2,271.5,98.2z"/>
			<path class="st1" d="M295.6,98.1h9.6c1.6,0,2.8,1.3,2.8,2.8v9.6c0,1.6-1.3,2.8-2.8,2.8h-9.6c-1.6,0-2.8-1.3-2.8-2.8V101
				C292.7,99.4,294,98.1,295.6,98.1z"/>
			<path class="st1" d="M319.6,98.1h9.6c1.6,0,2.8,1.3,2.8,2.8v9.6c0,1.6-1.3,2.8-2.8,2.8h-9.6c-1.6,0-2.8-1.3-2.8-2.8v-9.6
				C316.8,99.4,318.1,98.1,319.6,98.1z"/>
		</g>
		
			<radialGradient id="SVGID_00000034807402715263613890000003171585095480465079_" cx="359.83" cy="50.2" r="9.984756e-03" gradientTransform="matrix(1 0 0 -1 0 200)" gradientUnits="userSpaceOnUse">
			<stop  offset="0.32" style="stop-color:#2098B2"/>
			<stop  offset="1" style="stop-color:#0EBB90"/>
		</radialGradient>
		<polygon style="fill:url(#SVGID_00000034807402715263613890000003171585095480465079_);" points="359.8,149.8 359.8,149.8 
			359.8,149.8 		"/>
		
			<radialGradient id="SVGID_00000126317407894350430460000007885101396938541703_" cx="391.13" cy="50.2" r="1.000000e-02" gradientTransform="matrix(1 0 0 -1 0 200)" gradientUnits="userSpaceOnUse">
			<stop  offset="0.32" style="stop-color:#2098B2"/>
			<stop  offset="1" style="stop-color:#0EBB90"/>
		</radialGradient>
		<polygon style="fill:url(#SVGID_00000126317407894350430460000007885101396938541703_);" points="391.1,149.8 391.1,149.8 
			391.1,149.8 		"/>
		
			<linearGradient id="SVGID_00000111884503331310941280000008095880768984292791_" gradientUnits="userSpaceOnUse" x1="146.2377" y1="182.9827" x2="216.6577" y2="122.8227" gradientTransform="matrix(1 0 0 -1 0 200)">
			<stop  offset="0.32" style="stop-color:#2098B2"/>
			<stop  offset="1" style="stop-color:#0EBB90"/>
		</linearGradient>
		<path style="fill:url(#SVGID_00000111884503331310941280000008095880768984292791_);" d="M222,74.8c12.7-19.4,7.3-45.5-12.1-58.3
			s-45.5-7.3-58.3,12.1c-12.7,19.4-7.3,45.5,12.1,58.3c13.9,9.1,32,9.2,46,0.1l13.2,4.3c1.4,0.4,2.9-0.3,3.3-1.7
			c0.2-0.5,0.2-1,0-1.5L222,74.8z"/>
		<path class="st1" d="M196.4,35c0.6-1.3,0.1-2.8-1.2-3.4c-0.9-0.4-2.1-0.3-2.8,0.4l-20.6,18c-0.8,0.7-1.1,1.8-0.7,2.8
			c0.4,1,1.3,1.7,2.4,1.7h8.9l-6.2,14.4c-0.6,1.3,0,2.8,1.3,3.4c0.9,0.4,1.9,0.2,2.7-0.4l20.6-18c1.1-0.9,1.2-2.5,0.3-3.6
			c-0.5-0.6-1.2-0.9-2-0.9h-9L196.4,35z"/>
		<g>
			<g>
				<path class="st6" d="M0,0v200h600V0H0z"/>
			</g>
		</g>
	</g>
</g>
<g>
	<defs>
		<path id="SVGID_00000158000236801536657310000009638103839187276931_" d="M343.9,184.4c0,2.8,2.2,5,5,5h12.8v-21.8
			c0-5.4,4.4-9.8,9.8-9.8h2c5.4,0,9.8,4.4,9.8,9.8v21.8h49.1c2.8,0,5-2.2,5-5v-59.9h-93.5V184.4z"/>
	</defs>
	
		<radialGradient id="SVGID_00000138538891628856682350000003397154538310310045_" cx="346.9586" cy="181.7973" r="67.7444" gradientUnits="userSpaceOnUse">
		<stop  offset="0.32" style="stop-color:#2098B2"/>
		<stop  offset="1" style="stop-color:#0EBB90"/>
	</radialGradient>
	
		<use xlink:href="#SVGID_00000158000236801536657310000009638103839187276931_"  style="overflow:visible;fill:url(#SVGID_00000138538891628856682350000003397154538310310045_);"/>
	<clipPath id="SVGID_00000171709311318479005590000008009631046871367838_">
		<use xlink:href="#SVGID_00000158000236801536657310000009638103839187276931_"  style="overflow:visible;"/>
	</clipPath>
	<g style="opacity:0.1;clip-path:url(#SVGID_00000171709311318479005590000008009631046871367838_);">
		<path d="M390.6,144.7c-1.6,0-3.3-0.2-4.9-0.5c-5-1.2-9.4-4.1-12.3-8.3c-4,5.6-10.4,8.9-17.3,8.9c-1.7,0-3.5-0.2-5.2-0.6
			c-9.3-2.2-16-11-16-20.9v-17.3c0-7.1,5.7-12.8,12.8-12.8h85.8c7.1,0,12.8,5.7,12.8,12.8v17.6c0,5.6-2.2,11-6.2,15
			c-4,4-9.4,6.2-15,6.2l0,0c-1.7,0-3.5-0.2-5.2-0.6c-4.9-1.2-9.1-4.1-12-8.2C403.9,141.4,397.5,144.7,390.6,144.7z"/>
	</g>
</g>
<radialGradient id="SVGID_00000137843539646197560720000014535967100598232737_" cx="338.75" cy="94.21" r="34.41" gradientTransform="matrix(1 0 0 -1 0 200)" gradientUnits="userSpaceOnUse">
	<stop  offset="0.32" style="stop-color:#2098B2"/>
	<stop  offset="1" style="stop-color:#0EBB90"/>
</radialGradient>
<path style="fill:url(#SVGID_00000137843539646197560720000014535967100598232737_);" d="M338.9,102.6v20.6
	c-0.1,9.5,7.5,17.3,17.1,17.4s17.3-7.5,17.4-17.1V97.1h-29C341.3,97.1,338.9,99.6,338.9,102.6z"/>
<radialGradient id="SVGID_00000109747907196799962270000014014534583644741259_" cx="373.21" cy="94.21" r="34.41" gradientTransform="matrix(1 0 0 -1 0 200)" gradientUnits="userSpaceOnUse">
	<stop  offset="0.32" style="stop-color:#2098B2"/>
	<stop  offset="1" style="stop-color:#0EBB90"/>
</radialGradient>
<path style="fill:url(#SVGID_00000109747907196799962270000014014534583644741259_);" d="M373.4,97.1v25.9c0,8.1,5.4,15.4,13.2,17.2
	c9.3,2.2,18.5-3.5,20.8-12.8c0.3-1.3,0.5-2.6,0.5-3.9V97.1H373.4z"/>
<radialGradient id="SVGID_00000033350934571240740660000017386894262784519861_" cx="407.68" cy="94.21" r="34.41" gradientTransform="matrix(1 0 0 -1 0 200)" gradientUnits="userSpaceOnUse">
	<stop  offset="0.32" style="stop-color:#2098B2"/>
	<stop  offset="1" style="stop-color:#0EBB90"/>
</radialGradient>
<path style="fill:url(#SVGID_00000033350934571240740660000017386894262784519861_);" d="M407.8,97.1v26.1
	c-0.3,9.5,7.2,17.5,16.7,17.8s17.5-7.2,17.8-16.7c0-0.3,0-0.5,0-0.8v-20.9c0-3-2.5-5.5-5.5-5.5H407.8z"/>
<g>
	<defs>
		<path id="SVGID_00000152233246148132229690000017582273642040192156_" d="M177.4,184.4c0,2.8,2.2,5,5,5H208v-15
			c0-4.5,3.6-8.1,8.1-8.1h1.6c4.5,0,8.1,3.6,8.1,8.1v15h25.6c2.8,0,5-2.2,5-5v-45.3h-79V184.4z"/>
	</defs>
	
		<radialGradient id="SVGID_00000076567658119468174200000005559098290955747979_" cx="180.0181" cy="183.51" r="57.2065" gradientUnits="userSpaceOnUse">
		<stop  offset="0.32" style="stop-color:#2098B2"/>
		<stop  offset="1" style="stop-color:#0EBB90"/>
	</radialGradient>
	
		<use xlink:href="#SVGID_00000152233246148132229690000017582273642040192156_"  style="overflow:visible;fill:url(#SVGID_00000076567658119468174200000005559098290955747979_);"/>
	<clipPath id="SVGID_00000177471892671520129630000006760835082679936651_">
		<use xlink:href="#SVGID_00000152233246148132229690000017582273642040192156_"  style="overflow:visible;"/>
	</clipPath>
	<g style="opacity:0.1;clip-path:url(#SVGID_00000177471892671520129630000006760835082679936651_);">
		<path d="M171.7,151.6c-5,0-9-4-9-9c0-2.6,1.2-5.1,3.2-6.8l45.2-38.6c3.4-2.9,8.3-2.9,11.7,0l45.2,38.6c3.8,3.2,4.2,8.9,1,12.7
			c-1.7,2-4.2,3.1-6.8,3.2H171.7z"/>
	</g>
</g>
<radialGradient id="SVGID_00000158707102108000513730000009984961024614566578_" cx="189.58" cy="86.91" r="48.27" gradientTransform="matrix(1 0 0 -1 0 200)" gradientUnits="userSpaceOnUse">
	<stop  offset="0.32" style="stop-color:#2098B2"/>
	<stop  offset="1" style="stop-color:#0EBB90"/>
</radialGradient>
<path style="fill:url(#SVGID_00000158707102108000513730000009984961024614566578_);" d="M213,100.7l-44.5,38c-2.1,1.8-2.3,5-0.6,7
	c0.9,1.1,2.3,1.7,3.8,1.8h90.4c2.8,0,5-2.2,5-5c0-1.5-0.6-2.9-1.8-3.8l-44.6-38C218.6,98.8,215.2,98.8,213,100.7z"/>
<path class="st1" d="M401.9,151.6h14c2.2,0,4,1.8,4,4v14c0,2.2-1.8,4-4,4h-14c-2.2,0-4-1.8-4-4v-14
	C397.9,153.4,399.7,151.6,401.9,151.6z"/>
</svg>
