<?xml version="1.0" encoding="utf-8"?>
<!-- Generator: Adobe Illustrator 25.4.1, SVG Export Plug-In . SVG Version: 6.00 Build 0)  -->
<svg version="1.1" id="レイヤー_1" xmlns="http://www.w3.org/2000/svg" xmlns:xlink="http://www.w3.org/1999/xlink" x="0px"
	 y="0px" viewBox="0 0 600 200" style="enable-background:new 0 0 600 200;" xml:space="preserve">
<style type="text/css">
	.st0{fill:url(#SVGID_1_);}
	.st1{fill:url(#SVGID_00000098219658315486610550000014511487483559339411_);}
	.st2{fill:#FFFFFF;}
	.st3{fill:url(#SVGID_00000027590325399712349890000003964598864996795027_);}
	.st4{fill:url(#SVGID_00000010281749042859858750000009998848079497861035_);}
	.st5{fill:url(#SVGID_00000154406782043901145220000005161839542853566853_);}
	.st6{fill:url(#SVGID_00000033353891032593309590000008000040052623168410_);}
	.st7{fill:url(#SVGID_00000034085756981681956030000014289891895931536024_);}
	.st8{fill:none;}
</style>
<g>
	<g>
		
			<linearGradient id="SVGID_1_" gradientUnits="userSpaceOnUse" x1="237.9482" y1="115.7982" x2="298.9082" y2="56.7182" gradientTransform="matrix(1 0 0 -1 0 200)">
			<stop  offset="0.32" style="stop-color:#2098B2"/>
			<stop  offset="1" style="stop-color:#0EBB90"/>
		</linearGradient>
		<path class="st0" d="M353.5,118.9h-19.3c-3.1,0-5.6-2.5-5.6-5.6V86.5c0-3.1-2.5-5.6-5.6-5.6h-46c-3.1,0-5.6,2.5-5.6,5.6v26.8
			c0,3.1-2.5,5.6-5.6,5.6h-19.3c-3.1,0-5.6,2.5-5.6,5.6v48.2c0,3.1,2.5,5.6,5.6,5.6h33.2v-28.7h40.5v28.7h33.2
			c3.1,0,5.6-2.5,5.6-5.6v-48.2C359,121.4,356.5,118.9,353.5,118.9z"/>
	</g>
	
		<radialGradient id="SVGID_00000135649088159959995000000015455810690358568347_" cx="220" cy="28.92" r="72.69" gradientTransform="matrix(0.94 0 0 -1 71.99 200)" gradientUnits="userSpaceOnUse">
		<stop  offset="0.32" style="stop-color:#2098B2"/>
		<stop  offset="1" style="stop-color:#0EBB90"/>
	</radialGradient>
	<path style="fill:url(#SVGID_00000135649088159959995000000015455810690358568347_);" d="M276,142.9h49.1c2.5,0.1,4.4,2.1,4.3,4.6
		l0,0c0.1,2.5-1.9,4.5-4.3,4.6H276c-2.5-0.1-4.4-2.1-4.3-4.6l0,0C271.6,145.1,273.5,143,276,142.9z"/>
</g>
<path class="st2" d="M308.8,97.8c0.5-1.1-0.1-2.5-1.2-2.9c-0.8-0.3-1.7-0.2-2.3,0.4l-18,15.7c-0.9,0.8-1,2.2-0.2,3.2
	c0.4,0.5,1,0.8,1.7,0.8h7.8l-5.4,12.6c-0.5,1.1,0,2.5,1.2,3c0.8,0.3,1.7,0.2,2.4-0.4l18-15.7c0.9-0.8,1-2.2,0.2-3.2
	c-0.4-0.5-1-0.8-1.7-0.8h-7.8L308.8,97.8z"/>
<linearGradient id="SVGID_00000145747217008386120100000007385744540120963495_" gradientUnits="userSpaceOnUse" x1="300.0072" y1="163.81" x2="300.0072" y2="132.7" gradientTransform="matrix(1 0 0 -1 0 200)">
	<stop  offset="0.32" style="stop-color:#2098B2"/>
	<stop  offset="1" style="stop-color:#0EBB90"/>
</linearGradient>
<path style="fill:url(#SVGID_00000145747217008386120100000007385744540120963495_);" d="M300,62.6c-2.1,0-3.7-1.7-3.7-3.7
	c0,0,0,0,0,0V45.5c0-2.1,1.7-3.7,3.7-3.7c2.1,0,3.7,1.7,3.7,3.7v13.4C303.7,60.9,302.1,62.6,300,62.6C300,62.6,300,62.6,300,62.6z
	 M283.4,64.8c1.9-0.7,2.9-2.8,2.2-4.8c0,0,0,0,0,0L281,47.4c-0.6-2-2.6-3.1-4.6-2.6c-2,0.6-3.1,2.6-2.6,4.6c0.1,0.2,0.1,0.3,0.2,0.5
	l4.6,12.6c0.5,1.5,1.9,2.4,3.5,2.4C282.5,65,282.9,64.9,283.4,64.8z M321.4,62.6L326,50c0.9-1.9,0.1-4.1-1.8-5
	c-1.9-0.9-4.1-0.1-5,1.8c-0.1,0.2-0.2,0.4-0.2,0.6L314.4,60c-0.7,1.9,0.3,4.1,2.2,4.8c0,0,0,0,0,0c0.4,0.2,0.8,0.2,1.3,0.2
	C319.5,65,320.9,64,321.4,62.6z"/>
<linearGradient id="SVGID_00000135670727974893616350000013276490895708678542_" gradientUnits="userSpaceOnUse" x1="380.1323" y1="126.6819" x2="443.9623" y2="49.2819" gradientTransform="matrix(1 0 0 -1 0 200)">
	<stop  offset="0.32" style="stop-color:#2098B2"/>
	<stop  offset="1" style="stop-color:#0EBB90"/>
</linearGradient>
<path style="fill:url(#SVGID_00000135670727974893616350000013276490895708678542_);" d="M447.8,75.7c-17.3-17.3-45.3-17.3-62.5,0
	c-14.8,14.8-17.2,37.9-5.8,55.4L375,145c-0.5,1.5,0.3,3,1.8,3.5c0.6,0.2,1.2,0.2,1.7,0l13.9-4.5c20.5,13.3,47.8,7.6,61.2-12.9
	C464.9,113.6,462.5,90.5,447.8,75.7L447.8,75.7z"/>
<path class="st2" d="M426.7,89.4c0.6-1.4-0.1-3-1.4-3.5c-0.9-0.4-2-0.2-2.8,0.4l-21.6,18.9c-0.9,0.7-1.2,1.9-0.8,3
	c0.4,1.1,1.4,1.8,2.5,1.8h9.4l-6.5,15.1c-0.6,1.4,0.1,3,1.4,3.5c1,0.4,2.1,0.2,2.8-0.5l21.6-18.9c1.1-1,1.2-2.7,0.3-3.8
	c-0.5-0.6-1.3-0.9-2-0.9h-9.4L426.7,89.4z"/>
<radialGradient id="SVGID_00000095302849427280633760000008238436905438714522_" cx="483.99" cy="116.17" r="39.48" gradientTransform="matrix(1 0 0 -1 0 200)" gradientUnits="userSpaceOnUse">
	<stop  offset="0.32" style="stop-color:#2098B2"/>
	<stop  offset="1" style="stop-color:#0EBB90"/>
</radialGradient>
<path style="fill:url(#SVGID_00000095302849427280633760000008238436905438714522_);" d="M446.8,84.1v16.6c0,1.5,1.2,2.8,2.8,2.8
	h13.9c1.5,0,2.8-1.2,2.8-2.8V84.1h6.6c1.5,0,2.8-1.2,2.8-2.8c0-0.7-0.3-1.5-0.8-2L459.4,64c-1.6-1.6-4.3-1.6-5.9,0l-15.3,15.3
	c-1.1,1.1-1.1,2.8,0,3.9c0.5,0.5,1.2,0.8,2,0.8H446.8z"/>
<linearGradient id="SVGID_00000044886735572385161470000014368808589606730624_" gradientUnits="userSpaceOnUse" x1="153.9758" y1="170.4119" x2="227.9058" y2="107.2519" gradientTransform="matrix(1 0 0 -1 0 200)">
	<stop  offset="0.32" style="stop-color:#2098B2"/>
	<stop  offset="1" style="stop-color:#0EBB90"/>
</linearGradient>
<path style="fill:url(#SVGID_00000044886735572385161470000014368808589606730624_);" d="M233.5,90.2c13.4-20.4,7.6-47.8-12.8-61.2
	s-47.8-7.6-61.2,12.8c-13.4,20.4-7.6,47.8,12.8,61.2c14.7,9.6,33.6,9.6,48.3,0.1l13.9,4.5c1.5,0.5,3-0.3,3.5-1.8
	c0.2-0.6,0.2-1.1,0-1.7L233.5,90.2z"/>
<path class="st2" d="M206.7,48.4c0.6-1.4-0.1-3-1.4-3.5c-0.9-0.4-2-0.2-2.8,0.4l-21.6,18.9c-0.9,0.7-1.2,1.9-0.8,3
	c0.4,1.1,1.4,1.8,2.5,1.8h9.4L185.5,84c-0.6,1.4,0.1,3,1.4,3.5c1,0.4,2.1,0.2,2.8-0.5l21.6-18.9c1.1-1,1.2-2.7,0.3-3.8
	c-0.5-0.6-1.3-0.9-2-0.9h-9.4L206.7,48.4z"/>
<radialGradient id="SVGID_00000047061960392211886620000010788452944554662840_" cx="120.89" cy="117.62" r="63.3" gradientTransform="matrix(1 0 0 -1 0 200)" gradientUnits="userSpaceOnUse">
	<stop  offset="0.32" style="stop-color:#2098B2"/>
	<stop  offset="1" style="stop-color:#0EBB90"/>
</radialGradient>
<path style="fill:url(#SVGID_00000047061960392211886620000010788452944554662840_);" d="M143.8,43.1v16.6c0,1.5,1.2,2.8,2.8,2.8
	l0,0h13.9c1.5,0,2.8-1.2,2.8-2.8v0V43.1h6.6c1.5,0,2.8-1.2,2.8-2.8c0-0.7-0.3-1.5-0.8-2L156.4,23c-1.6-1.6-4.3-1.6-5.9,0l-15.3,15.3
	c-1.1,1.1-1.1,2.8,0,3.9c0.5,0.5,1.2,0.8,2,0.8L143.8,43.1z"/>
<rect class="st8" width="600" height="200"/>
</svg>
