<?xml version="1.0" encoding="utf-8"?>
<!-- Generator: Adobe Illustrator 25.4.1, SVG Export Plug-In . SVG Version: 6.00 Build 0)  -->
<svg version="1.1" id="レイヤー_1" xmlns="http://www.w3.org/2000/svg" xmlns:xlink="http://www.w3.org/1999/xlink" x="0px"
	 y="0px" viewBox="0 0 600 200" style="enable-background:new 0 0 600 200;" xml:space="preserve">
<style type="text/css">
	.st0{fill:url(#SVGID_1_);}
	.st1{fill:url(#SVGID_00000127030891399007445710000015259630239182434239_);}
	.st2{fill:#FFFFFF;}
	.st3{fill:url(#SVGID_00000155108381674243362220000001619586852493620410_);}
	.st4{fill:url(#SVGID_00000174559759156471191720000009777679519508545214_);}
	.st5{fill:none;stroke:#FFFFFF;stroke-width:4;stroke-miterlimit:10;}
	.st6{fill:url(#SVGID_00000010998261820914620080000001092878900096919970_);}
	.st7{fill:none;stroke:#FFFFFF;stroke-width:4;stroke-linecap:round;stroke-linejoin:round;}
	.st8{fill:url(#SVGID_00000098205953476114654810000017646514939436379322_);}
	.st9{fill:none;stroke:#FFFFFF;stroke-width:5;stroke-linecap:round;stroke-linejoin:round;}
	.st10{fill:url(#SVGID_00000167362206349086438470000010015040960090886039_);}
	.st11{fill:none;}
</style>
<linearGradient id="SVGID_1_" gradientUnits="userSpaceOnUse" x1="239.4958" y1="131.7553" x2="300.4558" y2="72.6753" gradientTransform="matrix(1 0 0 -1 0 200)">
	<stop  offset="0.32" style="stop-color:#2098B2"/>
	<stop  offset="1" style="stop-color:#0EBB90"/>
</linearGradient>
<path class="st0" d="M355,102.9h-19.3c-3.1,0-5.6-2.5-5.6-5.6V70.5c0-3.1-2.5-5.5-5.6-5.5h-46c-3.1,0-5.6,2.5-5.6,5.5v26.8
	c0,3.1-2.5,5.6-5.6,5.6h-19.3c-3.1,0-5.6,2.5-5.6,5.6v48.2c0,3.1,2.5,5.6,5.6,5.6h33.2v-28.7h40.5v28.7H355c3.1,0,5.6-2.5,5.6-5.6
	v-48.1C360.6,105.4,358.1,102.9,355,102.9z"/>
<radialGradient id="SVGID_00000089537111027783224450000017145298396579074743_" cx="221.66" cy="44.89" r="72.69" gradientTransform="matrix(0.94 0 0 -1 71.99 200)" gradientUnits="userSpaceOnUse">
	<stop  offset="0.32" style="stop-color:#2098B2"/>
	<stop  offset="1" style="stop-color:#0EBB90"/>
</radialGradient>
<path style="fill:url(#SVGID_00000089537111027783224450000017145298396579074743_);" d="M277.6,126.9h49.1c2.5,0.1,4.4,2.1,4.3,4.6
	l0,0c0.1,2.5-1.9,4.5-4.3,4.6h-49.1c-2.5-0.1-4.4-2.1-4.3-4.6l0,0C273.2,129.1,275.1,127,277.6,126.9z"/>
<path class="st2" d="M310.4,81.8c0.5-1.1,0-2.5-1.2-3c-0.8-0.3-1.7-0.2-2.4,0.4l-18,15.7c-0.7,0.6-1,1.6-0.6,2.5
	c0.3,0.9,1.2,1.5,2.1,1.5h7.8l-5.4,12.6c-0.4,1-0.1,2.1,0.7,2.7c0.9,0.6,2,0.6,2.8-0.1l18-15.7c0.9-0.8,1-2.2,0.2-3.2
	c-0.4-0.5-1-0.8-1.7-0.8H305L310.4,81.8z"/>
<linearGradient id="SVGID_00000055683032536436956340000011363753501823095941_" gradientUnits="userSpaceOnUse" x1="301.575" y1="179.79" x2="301.575" y2="148.67" gradientTransform="matrix(1 0 0 -1 0 200)">
	<stop  offset="0.32" style="stop-color:#2098B2"/>
	<stop  offset="1" style="stop-color:#0EBB90"/>
</linearGradient>
<path style="fill:url(#SVGID_00000055683032536436956340000011363753501823095941_);" d="M301.6,46.6c-2.1,0-3.7-1.7-3.7-3.7
	c0,0,0,0,0,0V29.5c0-2.1,1.7-3.7,3.7-3.7c2.1,0,3.7,1.7,3.7,3.7v13.4C305.3,44.9,303.6,46.6,301.6,46.6
	C301.6,46.6,301.6,46.6,301.6,46.6z M284.9,48.8c1.9-0.7,2.9-2.9,2.2-4.8l-4.6-12.6c-0.5-2-2.6-3.2-4.6-2.6s-3.2,2.6-2.6,4.6
	c0.1,0.2,0.1,0.4,0.2,0.6l4.6,12.6c0.5,1.5,1.9,2.5,3.5,2.5C284.1,49,284.5,49,284.9,48.8L284.9,48.8z M323,46.6l4.6-12.6
	c0.9-1.9,0.1-4.1-1.8-5c-1.9-0.9-4.1-0.1-5,1.8c-0.1,0.2-0.2,0.4-0.2,0.6L316,44c-0.7,1.9,0.3,4.1,2.2,4.8c0,0,0,0,0,0
	c0.4,0.1,0.8,0.2,1.3,0.2C321.1,49,322.5,48,323,46.6z"/>
<linearGradient id="SVGID_00000177470622725463228320000007922238185413569969_" gradientUnits="userSpaceOnUse" x1="156.8434" y1="177.7522" x2="218.9034" y2="125.6822" gradientTransform="matrix(1 0 0 -1 0 200)">
	<stop  offset="0.32" style="stop-color:#2098B2"/>
	<stop  offset="1" style="stop-color:#0EBB90"/>
</linearGradient>
<path style="fill:url(#SVGID_00000177470622725463228320000007922238185413569969_);" d="M223.4,72.4c11.1-17,6.3-39.9-10.7-51
	s-39.9-6.3-51,10.7s-6.3,39.9,10.7,51c12.2,8,28,8,40.2,0l11.6,3.7c1.2,0.4,2.5-0.3,2.9-1.5c0.1-0.5,0.1-0.9,0-1.4L223.4,72.4z"/>
<path class="st5" d="M192.6,68.1L192.6,68.1c5.8,0,10.4-4.7,10.4-10.5c0,0,0,0,0-0.1c0-7.6-3.6-13.9-8.5-20.3
	c-0.8-1-2.2-1.2-3.3-0.4c-0.2,0.1-0.3,0.3-0.4,0.4c-4.9,6.4-8.5,12.7-8.5,20.3C182.2,63.3,186.8,68,192.6,68.1z"/>
<linearGradient id="SVGID_00000129169860086661095690000008686196239655638171_" gradientUnits="userSpaceOnUse" x1="1899.766" y1="240.1133" x2="1854.516" y2="186.1733" gradientTransform="matrix(6.123234e-17 -1 -1 -6.123234e-17 401.51 2014.14)">
	<stop  offset="0.32" style="stop-color:#2098B2"/>
	<stop  offset="1" style="stop-color:#0EBB90"/>
</linearGradient>
<path style="fill:url(#SVGID_00000129169860086661095690000008686196239655638171_);" d="M223.4,127.6l3.7-11.5
	c0.4-1.2-0.3-2.5-1.5-2.9c-0.5-0.1-0.9-0.1-1.4,0l-11.6,3.7c-17-11.1-39.9-6.3-51,10.7s-6.3,39.9,10.7,51c17,11.1,39.9,6.3,51-10.7
	C231.4,155.7,231.4,139.9,223.4,127.6L223.4,127.6z"/>
<line class="st7" x1="192.4" y1="129.8" x2="192.4" y2="127.5"/>
<line class="st7" x1="179.9" y1="135.4" x2="178.2" y2="133.8"/>
<line class="st7" x1="175" y1="148.2" x2="172.6" y2="148.2"/>
<line class="st7" x1="180.6" y1="160.8" x2="178.9" y2="162.4"/>
<line class="st7" x1="193.4" y1="165.6" x2="193.4" y2="168"/>
<line class="st7" x1="205.9" y1="160.1" x2="207.6" y2="161.7"/>
<line class="st7" x1="210.8" y1="147.2" x2="213.1" y2="147.2"/>
<line class="st7" x1="205.2" y1="134.7" x2="206.9" y2="133.1"/>
<circle class="st5" cx="192.6" cy="147.8" r="8.3"/>
<linearGradient id="SVGID_00000094581944387821259230000003040606245747796363_" gradientUnits="userSpaceOnUse" x1="2190.3787" y1="172.6815" x2="2136.4487" y2="127.4315" gradientTransform="matrix(-1 0 0 -1 2559.48 200)">
	<stop  offset="0.32" style="stop-color:#2098B2"/>
	<stop  offset="1" style="stop-color:#0EBB90"/>
</linearGradient>
<path style="fill:url(#SVGID_00000094581944387821259230000003040606245747796363_);" d="M433.5,26.2c-14.4-14.4-37.7-14.4-52.1,0
	c-12.3,12.3-14.3,31.6-4.8,46.2l-3.7,11.5c-0.4,1.2,0.3,2.5,1.5,2.9c0.5,0.1,0.9,0.1,1.4,0l11.5-3.7c17,11.1,39.9,6.3,51-10.7
	C447.8,57.8,445.8,38.5,433.5,26.2L433.5,26.2z"/>
<path class="st9" d="M408.1,32.8c2.9,0,5.2,2.3,5.2,5.2s-2.3,5.2-5.2,5.2H390"/>
<path class="st9" d="M402.2,71.6c2.9,0,5.2-2.3,5.2-5.2c0-2.9-2.3-5.2-5.2-5.2H390"/>
<path class="st9" d="M419.7,62.6c2.9,0.1,5.3-2.1,5.4-4.9c0.1-2.9-2.1-5.3-4.9-5.4c-0.2,0-0.3,0-0.5,0H390"/>
<linearGradient id="SVGID_00000113337170987957626460000011436561775596242820_" gradientUnits="userSpaceOnUse" x1="1903.4773" y1="-1794.7924" x2="1851.4073" y2="-1732.7423" gradientTransform="matrix(0 -1 1 0 2157.98 2014.14)">
	<stop  offset="0.32" style="stop-color:#2098B2"/>
	<stop  offset="1" style="stop-color:#0EBB90"/>
</linearGradient>
<path style="fill:url(#SVGID_00000113337170987957626460000011436561775596242820_);" d="M433.5,121.7
	c-12.3-12.3-31.6-14.3-46.2-4.8l-11.5-3.7c-1.2-0.4-2.5,0.3-2.9,1.5c-0.1,0.5-0.1,0.9,0,1.4l3.7,11.5c-11.1,17-6.3,39.9,10.7,51
	c17,11.1,39.9,6.3,51-10.7C447.8,153.3,445.8,134,433.5,121.7z"/>
<path class="st7" d="M426.3,158.1l-11.8-10.6l-0.8-18.4c-0.1-1.1-1-2-2.1-2h-4.8c-1.1,0-2.1,0.9-2.1,2l-0.4,9.1l-9.2-8.4
	c-0.9-0.8-2.2-0.8-3,0.1l-3.7,3.7c-0.8,0.8-0.9,2.1-0.1,3l28.2,31.2c0.8,0.9,2.2,0.9,3,0.1c0,0,0,0,0.1-0.1l6.6-6.6
	c0.9-0.8,0.9-2.2,0.1-3C426.4,158.2,426.3,158.2,426.3,158.1z"/>
<g>
	<path class="st11" d="M0,0v200h600V0H0z"/>
</g>
</svg>
