<svg id="レイヤー_1" data-name="レイヤー 1" xmlns="http://www.w3.org/2000/svg" xmlns:xlink="http://www.w3.org/1999/xlink" viewBox="0 0 600 200"><defs><style>.cls-1{fill:url(#名称未設定グラデーション_43);}.cls-2{fill:url(#名称未設定グラデーション_43-2);}.cls-3{fill:url(#名称未設定グラデーション_43-3);}.cls-4{fill:url(#名称未設定グラデーション_43-4);}.cls-5{fill:#fff;}.cls-6{opacity:0.1;}.cls-7{fill:url(#名称未設定グラデーション_43-5);}.cls-8{fill:none;}</style><linearGradient id="名称未設定グラデーション_43" x1="241.17" y1="78.85" x2="312.99" y2="159.29" gradientUnits="userSpaceOnUse"><stop offset="0.32" stop-color="#2098b2"/><stop offset="1" stop-color="#0ebb90"/></linearGradient><linearGradient id="名称未設定グラデーション_43-2" x1="172.26" y1="90.47" x2="220.46" y2="144.46" xlink:href="#名称未設定グラデーション_43"/><linearGradient id="名称未設定グラデーション_43-3" x1="458.02" y1="109" x2="327.25" y2="107.76" xlink:href="#名称未設定グラデーション_43"/><linearGradient id="名称未設定グラデーション_43-4" x1="374.19" y1="89.94" x2="423.42" y2="145.07" xlink:href="#名称未設定グラデーション_43"/><linearGradient id="名称未設定グラデーション_43-5" x1="300" y1="24.31" x2="300" y2="53.95" xlink:href="#名称未設定グラデーション_43"/></defs><path class="cls-1" d="M265.76,76.12l-12.83,6.7h-35v61.32h42.76l25,22.83a13.12,13.12,0,0,0,18.56-.85,13.32,13.32,0,0,0,3-5.64l4.65,4.27a13.16,13.16,0,0,0,18.57-.79,13.33,13.33,0,0,0,2.71-4.52,13.15,13.15,0,0,0,16.2-20.61L311.93,104l4.35-32.34h-32.2A39.59,39.59,0,0,0,265.76,76.12Z"/><path class="cls-2" d="M168.19,82.82h62.57a0,0,0,0,1,0,0V154.1a5,5,0,0,1-5,5H168.19a0,0,0,0,1,0,0V82.82A0,0,0,0,1,168.19,82.82Z"/><path class="cls-3" d="M386.25,82.82H341.34l-11.26-7.2a26.18,26.18,0,0,0-30.5,1.7l-26.5,21.46a13.73,13.73,0,0,0,17.06,21.51l21.35-16.61,37.91,35.15a13.08,13.08,0,0,1,3.5,5.31h33.35Z"/><path class="cls-4" d="M369.24,82.84h62.57a0,0,0,0,1,0,0v76.28a0,0,0,0,1,0,0H374.24a5,5,0,0,1-5-5V82.84A0,0,0,0,1,369.24,82.84Z"/><circle class="cls-5" cx="217.88" cy="147.14" r="4.95"/><circle class="cls-5" cx="382.4" cy="147.41" r="4.95"/><rect class="cls-6" x="203.06" y="110.52" width="60.9" height="5.5" transform="translate(346.78 -120.24) rotate(90)"/><rect class="cls-6" x="336.04" y="110.52" width="60.9" height="5.5" transform="translate(479.76 -253.22) rotate(90)"/><path class="cls-7" d="M300,49.47a3.56,3.56,0,0,1-3.56-3.57V33.16a3.56,3.56,0,1,1,7.12,0V45.9A3.56,3.56,0,0,1,300,49.47Zm-15.85,2.09A3.56,3.56,0,0,0,286.28,47l-4.36-12a3.56,3.56,0,1,0-6.69,2.44l4.36,12a3.56,3.56,0,0,0,3.35,2.35A3.44,3.44,0,0,0,284.15,51.56Zm36.26-2.13,4.36-12A3.56,3.56,0,1,0,318.08,35l-4.36,12a3.56,3.56,0,0,0,2.13,4.57,3.44,3.44,0,0,0,1.21.22A3.56,3.56,0,0,0,320.41,49.43Z"/><rect class="cls-8" width="600" height="200"/><rect class="cls-8" width="600" height="200"/></svg>