<svg id="レイヤー_1" data-name="レイヤー 1" xmlns="http://www.w3.org/2000/svg" xmlns:xlink="http://www.w3.org/1999/xlink" viewBox="0 0 600 200"><defs><style>.cls-1{fill:url(#名称未設定グラデーション_43);}.cls-12,.cls-2,.cls-4,.cls-6{fill:none;}.cls-2,.cls-4,.cls-6{stroke:#fff;}.cls-2{stroke-miterlimit:10;}.cls-2,.cls-4{stroke-width:4px;}.cls-3{fill:url(#名称未設定グラデーション_43-2);}.cls-4,.cls-6{stroke-linecap:round;stroke-linejoin:round;}.cls-5{fill:url(#名称未設定グラデーション_43-3);}.cls-6{stroke-width:5px;}.cls-7{fill:url(#名称未設定グラデーション_43-4);}.cls-8{fill:url(#名称未設定グラデーション_43-5);}.cls-9{fill:url(#名称未設定グラデーション_43-6);}.cls-10{fill:url(#名称未設定グラデーション_43-7);}.cls-11{fill:#fff;}</style><linearGradient id="名称未設定グラデーション_43" x1="156.85" y1="22.24" x2="218.91" y2="74.31" gradientUnits="userSpaceOnUse"><stop offset="0.32" stop-color="#2098b2"/><stop offset="1" stop-color="#0ebb90"/></linearGradient><linearGradient id="名称未設定グラデーション_43-2" x1="2159.77" y1="219.89" x2="2114.52" y2="273.83" gradientTransform="translate(-58.49 2274.14) rotate(-90)" xlink:href="#名称未設定グラデーション_43"/><linearGradient id="名称未設定グラデーション_43-3" x1="2190.38" y1="27.32" x2="2136.45" y2="72.57" gradientTransform="matrix(-1, 0, 0, 1, 2559.48, 0)" xlink:href="#名称未設定グラデーション_43"/><linearGradient id="名称未設定グラデーション_43-4" x1="2163.48" y1="2254.79" x2="2111.41" y2="2192.74" gradientTransform="matrix(0, -1, -1, 0, 2617.98, 2274.14)" xlink:href="#名称未設定グラデーション_43"/><linearGradient id="名称未設定グラデーション_43-5" x1="300" y1="9.34" x2="300" y2="40.45" xlink:href="#名称未設定グラデーション_43"/><linearGradient id="名称未設定グラデーション_43-6" x1="258.42" y1="64.35" x2="334.28" y2="142.82" xlink:href="#名称未設定グラデーション_43"/><linearGradient id="名称未設定グラデーション_43-7" x1="335.72" y1="159.54" x2="346.76" y2="168.73" xlink:href="#名称未設定グラデーション_43"/></defs><path class="cls-1" d="M223.44,72.36a36.83,36.83,0,1,0-10.73,10.73l11.55,3.72a2.32,2.32,0,0,0,2.91-2.91Z"/><path class="cls-2" d="M192.58,68.11h0A10.46,10.46,0,0,0,203,57.55c0-7.61-3.61-13.91-8.53-20.3a2.33,2.33,0,0,0-3.69,0c-4.92,6.4-8.53,12.7-8.53,20.31A10.46,10.46,0,0,0,192.58,68.11Z"/><path class="cls-3" d="M223.44,127.64l3.73-11.54a2.32,2.32,0,0,0-2.91-2.91l-11.55,3.72a36.84,36.84,0,1,0,10.73,10.73Z"/><line class="cls-4" x1="192.39" y1="129.84" x2="192.39" y2="127.47"/><line class="cls-4" x1="179.88" y1="135.43" x2="178.2" y2="133.76"/><line class="cls-4" x1="174.98" y1="148.23" x2="172.62" y2="148.23"/><line class="cls-4" x1="180.57" y1="160.75" x2="178.9" y2="162.42"/><line class="cls-4" x1="193.38" y1="165.64" x2="193.38" y2="168.01"/><line class="cls-4" x1="205.89" y1="160.05" x2="207.56" y2="161.72"/><line class="cls-4" x1="210.79" y1="147.25" x2="213.15" y2="147.25"/><line class="cls-4" x1="205.19" y1="134.73" x2="206.87" y2="133.06"/><circle class="cls-2" cx="192.64" cy="147.77" r="8.32"/><path class="cls-5" d="M433.46,26.18a36.84,36.84,0,0,0-56.9,46.18L372.83,83.9a2.32,2.32,0,0,0,2.91,2.91l11.55-3.72a36.84,36.84,0,0,0,46.17-56.91Z"/><path class="cls-6" d="M408.1,32.81a5.18,5.18,0,0,1,0,10.36H390"/><path class="cls-6" d="M402.19,71.64a5.18,5.18,0,1,0,0-10.36H390"/><path class="cls-6" d="M419.7,62.56a5.18,5.18,0,1,0,0-10.35H390"/><path class="cls-7" d="M433.46,121.72a36.86,36.86,0,0,0-46.17-4.81l-11.55-3.72a2.32,2.32,0,0,0-2.91,2.91l3.73,11.54a36.84,36.84,0,1,0,56.9-5.92Z"/><path class="cls-4" d="M426.29,158.11l-11.77-10.65-.77-18.35a2.15,2.15,0,0,0-2.14-2h-4.79a2.15,2.15,0,0,0-2.14,2l-.38,9.1-9.22-8.35a2.16,2.16,0,0,0-3,.08l-3.66,3.66a2.14,2.14,0,0,0-.08,3l28.25,31.22a2.15,2.15,0,0,0,3.11.08l6.63-6.64A2.13,2.13,0,0,0,426.29,158.11Z"/><path class="cls-8" d="M300,35.75A3.74,3.74,0,0,1,296.26,32V18.62a3.74,3.74,0,0,1,7.48,0V32A3.74,3.74,0,0,1,300,35.75ZM283.36,38a3.75,3.75,0,0,0,2.24-4.8L281,20.57a3.74,3.74,0,0,0-7,2.56l4.58,12.58a3.73,3.73,0,0,0,3.51,2.46A3.79,3.79,0,0,0,283.36,38Zm38.07-2.24L326,23.13a3.74,3.74,0,0,0-7-2.56L314.4,33.15a3.75,3.75,0,0,0,2.24,4.8,3.79,3.79,0,0,0,1.28.22A3.73,3.73,0,0,0,321.43,35.71Z"/><path class="cls-9" d="M340.84,55.09a5.48,5.48,0,0,0-5.48-5.49H264.64a5.48,5.48,0,0,0-5.48,5.49V159.63a5.48,5.48,0,0,0,5.48,5.49h60.45l15.75-15.76Z"/><path class="cls-10" d="M340.84,149.36H330.57a5.48,5.48,0,0,0-5.48,5.49v10.27Z"/><path class="cls-11" d="M308.64,72.54A2.25,2.25,0,0,0,305.09,70l-18,15.74a2.25,2.25,0,0,0,1.48,3.94h7.83l-5.4,12.6a2.25,2.25,0,0,0,3.55,2.58l18-15.74a2.24,2.24,0,0,0-1.48-3.93h-7.83Z"/><rect class="cls-11" x="269.63" y="118.69" width="60.75" height="5.49" rx="2.5" transform="translate(600 242.86) rotate(-180)"/><rect class="cls-11" x="269.63" y="131.86" width="60.75" height="5.49" rx="2.5" transform="translate(600 269.2) rotate(-180)"/><rect class="cls-11" x="269.63" y="145.02" width="38.8" height="5.49" rx="2.5" transform="translate(578.05 295.53) rotate(-180)"/><rect class="cls-12" width="600" height="200"/></svg>