<svg xmlns="http://www.w3.org/2000/svg" width="457.74" height="71.363" viewBox="0 0 457.74 71.363">
  <path id="パス_2" data-name="パス 2" d="M1001.107,101.534l9.236,9.341a35.287,35.287,0,1,1-5.23-53.421l-7.576,10.83c-.57-.411-1.155-.8-1.761-1.159a22.107,22.107,0,1,0-10.813,41.424,21.093,21.093,0,0,0,15.64-6.486Zm145.626.529a21.094,21.094,0,0,1-15.641,6.486,22.1,22.1,0,1,1,10.81-41.424c.61.358,1.2.748,1.765,1.159l7.572-10.83a35.286,35.286,0,1,0,5.234,53.421l-9.235-9.341ZM908.983,86.394a35.288,35.288,0,1,0-9.89,24.494l-9.272-9.378a22.1,22.1,0,1,1,4.925-21.887H873.692A6.591,6.591,0,0,0,873.6,92.8l34.8,0A35.424,35.424,0,0,0,908.983,86.394Zm29.727,26.361A9.715,9.715,0,1,1,929,103.039,9.716,9.716,0,0,1,938.711,112.755Zm250.056-5.1V52.628l-13.953,0v67.549h50.614V107.651ZM1087.919,52.628h-16.194l-17.458,24.949L1036.8,52.628h-16.194l26.678,38.146v29.4h13.953v-29.4Zm208.238,12.517V52.624h-51.55v67.549l51.55-.049V107.651h-37.6V92.941h31.619V79.859h-31.619V65.145Z" transform="translate(-838.417 -51.111)" fill="#009e8c"/>
</svg>
