<svg xmlns="http://www.w3.org/2000/svg" width="119.403" height="61.6" viewBox="0 0 119.403 61.6">
  <path id="logo" d="M89.976,62.389l2.269,2.3A8.669,8.669,0,1,1,90.96,51.558L89.1,54.22q-.209-.152-.433-.285a5.432,5.432,0,1,0-2.657,10.177,5.185,5.185,0,0,0,3.843-1.594Zm35.779.13a5.184,5.184,0,0,1-3.843,1.594,5.431,5.431,0,1,1,2.656-10.177c.15.088.294.183.433.285l1.861-2.661a8.67,8.67,0,1,0,1.285,13.125l-2.269-2.3Zm-58.415-3.85a8.67,8.67,0,1,0-2.43,6.018l-2.278-2.3a5.428,5.428,0,1,1,1.21-5.377H58.67a1.619,1.619,0,0,0-.022,3.238H67.2A8.733,8.733,0,0,0,67.341,58.669Zm4.918,4.089a2.388,2.388,0,1,0,2.388,2.388A2.388,2.388,0,0,0,72.258,62.758Zm63.825,1.133V50.372h-3.428v16.6h12.436V63.891ZM111.306,50.372h-3.979l-4.29,6.131-4.29-6.131H94.768l6.555,9.373v7.223h3.427V59.745Zm51.163,3.077V50.372H149.8v16.6l12.665-.012V63.891h-9.238V60.277H161V57.062h-7.768V53.448ZM57.932,107.508c-.134-.26-.29-.53-.463-.8s-.352-.532-.534-.769a4.523,4.523,0,0,0-.5-.57l-.018-.017-1,.65-.036.024.033.027a2.611,2.611,0,0,1,.43.5c.155.221.313.467.468.732s.3.523.414.769a5.7,5.7,0,0,1,.262.621l.013.039.034-.022a3.362,3.362,0,0,1,.532-.274,3.048,3.048,0,0,1,.63-.191l.035-.006-.01-.033A4.138,4.138,0,0,0,57.932,107.508Zm-3,1.332a3.475,3.475,0,0,1-.249-.382,2.007,2.007,0,0,1-.161-.347l-.02-.059-.036.051a3.412,3.412,0,0,1-.374.44,2.611,2.611,0,0,1-.406.34.31.31,0,0,1-.476-.116,3.557,3.557,0,0,1-.29-.656,7.7,7.7,0,0,1-.246-.893,8.95,8.95,0,0,1-.154-.965,5.116,5.116,0,0,1-.025-.862l0-.033-1.3-.008h-.031v.031a8.46,8.46,0,0,0,.076,1.2,10.1,10.1,0,0,0,.253,1.282,9.422,9.422,0,0,0,.4,1.2,5.219,5.219,0,0,0,.51.97,1.03,1.03,0,0,0,.7.479,1.054,1.054,0,0,0,.142.009A1.633,1.633,0,0,0,54,110.3h0a3.085,3.085,0,0,0,.618-.457,3.932,3.932,0,0,0,.558-.668l.014-.02-.017-.018A3.87,3.87,0,0,1,54.932,108.84Zm12.608-1.332c-.134-.26-.29-.53-.463-.8s-.355-.535-.533-.769a4.65,4.65,0,0,0-.5-.57l-.018-.017-1,.65-.036.024.033.027a2.566,2.566,0,0,1,.43.5c.156.224.314.47.468.732s.294.521.414.769a5.393,5.393,0,0,1,.262.621l.013.039.035-.022a3.331,3.331,0,0,1,.531-.274,3.08,3.08,0,0,1,.631-.191l.035-.006-.01-.033A4.08,4.08,0,0,0,67.54,107.508Zm-3,1.332a3.617,3.617,0,0,1-.25-.381,2.136,2.136,0,0,1-.161-.347l-.02-.059-.036.051a3.329,3.329,0,0,1-.374.44,2.566,2.566,0,0,1-.406.34.311.311,0,0,1-.476-.116,3.637,3.637,0,0,1-.29-.656,7.543,7.543,0,0,1-.246-.893,9.033,9.033,0,0,1-.155-.965,5.294,5.294,0,0,1-.026-.862l0-.033-1.3-.008h-.03v.031a8.251,8.251,0,0,0,.075,1.2,10.309,10.309,0,0,0,.252,1.283,9.542,9.542,0,0,0,.4,1.2,5.155,5.155,0,0,0,.51.97,1.03,1.03,0,0,0,.7.479,1.062,1.062,0,0,0,.142.009,1.629,1.629,0,0,0,.757-.218h0a3.121,3.121,0,0,0,.618-.457,3.984,3.984,0,0,0,.558-.668l.014-.021-.017-.018A3.717,3.717,0,0,1,64.54,108.84Zm12.767-2.633c-.306.008-.639.015-1.016.021v-1.936H74.919l0,.034c.016.262.03.566.041.929.011.321.019.651.025.984-.109,0-.218.006-.324.006h-.628c-.1,0-.19,0-.283-.006,0-.457,0-.811.013-1.08s.02-.5.037-.672l0-.035H72.384l.005.036a6.506,6.506,0,0,1,.041.664q.009.4.017,1.077c-.381-.01-.746-.018-1.083-.024s-.565-.012-.687-.017l-.033,0V107.5l.033,0c.166-.01.407-.019.736-.025l1.033-.017v1.593h1.3v-1.61h1.226a3.524,3.524,0,0,1-.6,1.937,3.674,3.674,0,0,1-1.613,1.2l-.053.022.048.033a2.362,2.362,0,0,1,.468.438,4.338,4.338,0,0,1,.37.508l.015.025.026-.013a4.359,4.359,0,0,0,2.64-4.129l1.034.017c.335.006.584.014.761.025l.034,0v-1.315h-.032Zm8.32-1.977-.018.026a7.234,7.234,0,0,1-.976,1.11,12.365,12.365,0,0,1-1.317,1.075,13.711,13.711,0,0,1-1.5.928,10.527,10.527,0,0,1-1.529.673l-.054.019.046.036a2.094,2.094,0,0,1,.31.309c.111.135.213.269.3.4s.169.253.226.354l.014.025.026-.012a15.81,15.81,0,0,0,2.361-1.286v3.377H84.88V106.9c.361-.3.7-.6,1.014-.91a8.572,8.572,0,0,0,.841-.963l.019-.026-1.1-.748Zm8.9,1.185h-.01c-.119.017-.287.033-.513.051s-.473.031-.707.041-.466.019-.673.024c.07-.121.134-.245.192-.368.068-.144.13-.287.185-.425l.012-.03-1.221-.438-.029-.011-.011.029a5.9,5.9,0,0,1-.65,1.251,7.892,7.892,0,0,1-.973,1.182,5.557,5.557,0,0,1-1.155.9l-.046.027.046.027a2.389,2.389,0,0,1,.343.256c.118.1.233.211.343.318a3.191,3.191,0,0,1,.261.282l.019.024.025-.018a8.6,8.6,0,0,0,.984-.812,9.163,9.163,0,0,0,.865-.951c.114,0,.263,0,.456-.013s.412-.02.65-.034q.327-.019.644-.042a6.759,6.759,0,0,1-1.047,1.473,8.25,8.25,0,0,1-1.494,1.261,9.021,9.021,0,0,1-1.825.923l-.05.018.04.035a2.827,2.827,0,0,1,.3.316,4.766,4.766,0,0,1,.3.4,3.627,3.627,0,0,1,.22.374l.014.027.027-.012a10.228,10.228,0,0,0,2.308-1.375,9.636,9.636,0,0,0,1.829-1.91,8.181,8.181,0,0,0,1.169-2.318l.008-.025-.819-.448Zm5.725-.127-1.236.1-.033,0,0,.032a11.083,11.083,0,0,1,.1,1.48,3.642,3.642,0,0,1-.183,1.167,2.493,2.493,0,0,1-.588.936,4.4,4.4,0,0,1-1.119.786l-.043.022.038.03a4.917,4.917,0,0,1,.5.463,3.173,3.173,0,0,1,.407.51l.016.026.026-.015a4.5,4.5,0,0,0,1.507-1.347,4.17,4.17,0,0,0,.655-1.8,8.96,8.96,0,0,0-.051-2.364Zm5.05,3.427a2.649,2.649,0,0,1-.083-.377c-.027-.164-.049-.341-.067-.542s-.025-.356-.025-.5v-.074l-.053.051a4.925,4.925,0,0,1-.516.421c-.213.153-.449.308-.7.459s-.516.3-.782.44c-.249.13-.485.244-.7.34v-1.645c0-.5,0-.95.013-1.332s.02-.658.038-.8l0-.036h-1.4l0,.035c.016.189.03.458.041.8s.017.814.017,1.4q0,.721,0,1.311c0,.392-.008.722-.017.981a3.9,3.9,0,0,1-.037.51l0,.019.694.54.014.01.017-.006c.248-.1.537-.224.857-.379s.655-.325,1-.512.662-.374.957-.563a7.839,7.839,0,0,0,.733-.522l.017-.014ZM65.664,93.282l.554-.554-3.137-3.173-.559.586a4.517,4.517,0,0,1-3.349,1.383,4.745,4.745,0,1,1,3.361-8.116l.554.553,3.136-3.1-.56-.56a8.994,8.994,0,0,0-6.491-2.683A9.173,9.173,0,0,0,50,86.769a9.065,9.065,0,0,0,9.173,9.15A9.217,9.217,0,0,0,65.664,93.282ZM64.7,80.86l-1.615,1.6A5.82,5.82,0,1,0,59.173,92.6a5.579,5.579,0,0,0,3.917-1.508L64.7,92.72a8.167,8.167,0,0,1-5.531,2.127,8,8,0,0,1-8.1-8.079,8.1,8.1,0,0,1,8.1-8.079A7.935,7.935,0,0,1,64.7,80.86Zm19.429-2.9H79.691v6.6H74.3v-6.6h-4.44V95.576H74.3v-6.6h5.389v6.6h4.439Zm-3.368,9.944H73.231v6.6h-2.3V79.033h2.3v6.6h7.532v-6.6h2.3V94.5h-2.3Zm12.577-9.944H88.9V95.576h4.44Zm-3.369,1.072h2.3V94.5h-2.3Zm16.564,8.639,5.748-9.711h-5.291L104.3,82.511l-2.69-4.549H96.251l5.843,9.826v7.789h4.44Zm-3.369-.179-5.032-8.46H101l3.3,5.583,3.3-5.583h2.8l-4.941,8.345V94.5h-2.3Zm28.226-.747a9.162,9.162,0,1,0-9.151,9.173A9.149,9.149,0,0,0,131.392,86.746Zm-1.072,0a8.091,8.091,0,1,1-8.079-8.056A8.1,8.1,0,0,1,130.321,86.746Zm-2.3,0a5.794,5.794,0,1,0-5.782,5.828A5.789,5.789,0,0,0,128.023,86.746Zm-1.072,0a4.722,4.722,0,1,1-4.71-4.71A4.739,4.739,0,0,1,126.952,86.746Zm21.262,6.483a9.639,9.639,0,0,0,2.491-6.506,9.214,9.214,0,0,0-2.475-6.489,8.953,8.953,0,0,0-6.309-2.272h-6.332V95.576h6.332A8.293,8.293,0,0,0,148.213,93.228Zm-11.555-14.2h5.261A7.906,7.906,0,0,1,147.478,81a8.145,8.145,0,0,1,2.155,5.725,8.53,8.53,0,0,1-2.188,5.759A7.281,7.281,0,0,1,141.92,94.5h-5.261Zm9.41,11.5a6.456,6.456,0,0,0,1.175-3.831,6.142,6.142,0,0,0-1.258-3.849,5.131,5.131,0,0,0-4.134-1.544h-2.9V92.23h2.9A5.285,5.285,0,0,0,146.069,90.53Zm-6.041-8.152h1.824a4.14,4.14,0,0,1,3.314,1.161,5.049,5.049,0,0,1,1.007,3.16,5.357,5.357,0,0,1-.937,3.158,4.256,4.256,0,0,1-3.384,1.3h-1.824Zm22.758-4.417h-4.023l-6.617,17.614h4.8l1.4-3.758h4.843l1.421,3.758h4.8Zm1.14,12.785H157.6L156.2,94.5h-2.509L159.5,79.033h2.54L167.857,94.5h-2.511Zm-3.155-8.879-2.394,6.606h4.844Zm.012,3.111.9,2.423H159.9Zm-49.094,20.887.01,0c.361-.071.713-.152,1.047-.242s.624-.181.878-.273l-.806-.954a5.653,5.653,0,0,1-.992.337c-.384.1-.794.178-1.219.242s-.859.115-1.275.144-.8.045-1.153.046a2.484,2.484,0,0,1,.169.319c.06.131.116.267.167.406s.088.253.119.362c.268-.01.571-.03.9-.06s.668-.071,1.009-.121l.014,0v1.049H107.7v1.117h2.859v2.995h1.132V108.23h2.866v-1.117h-2.866Zm6.334-.094c-.143.26-.3.516-.466.765s-.331.474-.5.681a3.369,3.369,0,0,1-.464.478,2.837,2.837,0,0,1,.417.3,2.628,2.628,0,0,1,.349.354c.107-.1.214-.206.318-.32s.217-.245.328-.381l.022-.028v3.63h1.079l0-5.324a7.766,7.766,0,0,0,.48-1.136l-.989-.339a4.093,4.093,0,0,1-.209.579C118.291,105.262,118.167,105.51,118.023,105.771Zm4.682.326a2.984,2.984,0,0,1,.214-.22c.091-.086.19-.174.3-.262s.189-.152.266-.2a3.486,3.486,0,0,0-.285-.31c-.126-.123-.26-.246-.4-.367a3.067,3.067,0,0,0-.376-.28l-.678.7a3.645,3.645,0,0,1,.492.42A6.719,6.719,0,0,1,122.7,106.1Zm.63,3.151a2.594,2.594,0,0,1-.279-.152c-.011.1-.029.217-.054.351s-.062.29-.1.432l0,.017-.014-.009a2.4,2.4,0,0,1-.795-.912,5.143,5.143,0,0,1-.474-1.615l0-.013h.013l2.051-.21-.11-1.049-2.066.211v-.014c0-.142-.01-.3-.019-.51-.007-.181-.012-.366-.012-.548v-.8h-1.079v.8c0,.21,0,.415.008.608s.013.387.023.563v.012h-.012l-1.137.12.111,1.049,1.149-.12,0,.012a8.461,8.461,0,0,0,.362,1.528,4.764,4.764,0,0,0,.517,1.067,3.094,3.094,0,0,0,.614.689,2.755,2.755,0,0,0,.639.4h0a.921.921,0,0,0,.548.086.56.56,0,0,0,.381-.3,3.253,3.253,0,0,0,.169-.4c.058-.164.113-.339.162-.521a3.687,3.687,0,0,0,.1-.513c-.086-.024-.19-.057-.319-.1A3.249,3.249,0,0,1,123.334,109.248ZM132.6,110.8h-5.979v-5.775H132.6Zm-3.551-2.42h-1.273v1.4h1.273Zm0-2.337h-1.273v1.394h1.273Zm2.4,2.337H130.17v1.4h1.273Zm0-2.337H130.17v1.394h1.273Z" transform="translate(-50 -50)" fill="#fff"/>
</svg>
