<svg id="logo" xmlns="http://www.w3.org/2000/svg" width="199.005" height="102.667" viewBox="0 0 199.005 102.667">
  <path id="logo-2" data-name="logo" d="M116.627,70.648l3.781,3.825A14.449,14.449,0,1,1,118.267,52.6l-3.1,4.435q-.348-.254-.721-.474a9.053,9.053,0,1,0-4.428,16.962,8.641,8.641,0,0,0,6.406-2.656Zm59.632.216a8.641,8.641,0,0,1-6.4,2.656,9.052,9.052,0,1,1,4.427-16.962c.249.147.489.305.722.474l3.1-4.435a14.45,14.45,0,1,0,2.142,21.876l-3.781-3.825ZM78.9,64.448a14.45,14.45,0,1,0-4.05,10.03l-3.8-3.841a9.047,9.047,0,1,1,2.017-8.962H64.45a2.7,2.7,0,0,0-.037,5.4l14.249,0A14.552,14.552,0,0,0,78.9,64.448Zm8.2,6.815a3.979,3.979,0,1,0,3.979,3.979A3.979,3.979,0,0,0,87.1,71.263Zm106.375,1.888V50.62h-5.713v27.66h20.727V73.152Zm-41.3-22.532h-6.631l-7.15,10.218-7.15-10.218h-6.631l10.926,15.622V78.279h5.712V66.241Zm85.272,5.128V50.619H216.339v27.66l21.109-.019V73.152h-15.4V67.128H235V61.771H222.052V55.747ZM63.22,145.847c-.224-.433-.483-.883-.772-1.339s-.586-.886-.89-1.282a7.537,7.537,0,0,0-.837-.95l-.03-.028-1.669,1.084-.059.039.055.045a4.352,4.352,0,0,1,.717.828c.258.369.522.779.78,1.22s.492.872.691,1.281a9.486,9.486,0,0,1,.437,1.034l.022.065.057-.037a5.6,5.6,0,0,1,.886-.457,5.079,5.079,0,0,1,1.05-.318l.058-.01-.017-.056A6.9,6.9,0,0,0,63.22,145.847Zm-5,2.22a5.792,5.792,0,0,1-.415-.637,3.343,3.343,0,0,1-.269-.578l-.033-.1-.059.085a5.685,5.685,0,0,1-.624.733,4.348,4.348,0,0,1-.676.566.517.517,0,0,1-.793-.193,5.928,5.928,0,0,1-.484-1.094,12.834,12.834,0,0,1-.411-1.489,14.921,14.921,0,0,1-.257-1.608,8.531,8.531,0,0,1-.042-1.437l0-.056L52,142.249h-.052v.051a14.1,14.1,0,0,0,.126,2,16.843,16.843,0,0,0,.421,2.137,15.7,15.7,0,0,0,.665,2,8.7,8.7,0,0,0,.85,1.616,1.716,1.716,0,0,0,1.168.8,1.763,1.763,0,0,0,.236.016,2.721,2.721,0,0,0,1.263-.364h0a5.14,5.14,0,0,0,1.03-.762,6.556,6.556,0,0,0,.93-1.114l.024-.034-.029-.03A6.447,6.447,0,0,1,58.22,148.067Zm21.013-2.22c-.224-.433-.483-.883-.771-1.339s-.591-.892-.889-1.282a7.752,7.752,0,0,0-.838-.95l-.03-.028-1.67,1.084-.059.039.055.045a4.277,4.277,0,0,1,.717.828c.261.373.523.783.781,1.22s.489.868.69,1.281a8.992,8.992,0,0,1,.437,1.034l.022.065.058-.037a5.554,5.554,0,0,1,.885-.457,5.131,5.131,0,0,1,1.051-.318l.058-.01-.017-.056A6.8,6.8,0,0,0,79.234,145.847Zm-5,2.22a6.023,6.023,0,0,1-.416-.636,3.556,3.556,0,0,1-.268-.579l-.033-.1-.059.085a5.546,5.546,0,0,1-.623.733,4.27,4.27,0,0,1-.676.566.518.518,0,0,1-.794-.193,6.059,6.059,0,0,1-.484-1.094,12.577,12.577,0,0,1-.41-1.489,15.057,15.057,0,0,1-.258-1.608,8.825,8.825,0,0,1-.043-1.437l0-.056-2.165-.014h-.051l0,.051a13.748,13.748,0,0,0,.126,2,17.177,17.177,0,0,0,.42,2.138,15.9,15.9,0,0,0,.667,2,8.593,8.593,0,0,0,.849,1.617,1.716,1.716,0,0,0,1.168.8,1.776,1.776,0,0,0,.237.016,2.715,2.715,0,0,0,1.262-.364h0a5.2,5.2,0,0,0,1.031-.762,6.647,6.647,0,0,0,.93-1.113l.024-.035-.029-.031A6.187,6.187,0,0,1,74.234,148.067Zm21.278-4.388c-.51.014-1.065.025-1.693.035v-3.227H91.531l0,.056c.026.437.05.944.069,1.549.018.535.032,1.085.042,1.64-.181.007-.363.01-.541.01H90.057c-.159,0-.317,0-.471-.01,0-.762.006-1.351.021-1.8s.034-.841.061-1.121l.006-.058H87.307l.009.059a10.847,10.847,0,0,1,.069,1.106q.014.662.029,1.8c-.636-.017-1.243-.031-1.805-.04s-.941-.019-1.144-.028l-.055,0v2.193l.056,0c.277-.017.678-.031,1.227-.041q.789-.014,1.722-.028v2.655h2.173v-2.683H91.63a5.874,5.874,0,0,1-.993,3.229,6.124,6.124,0,0,1-2.689,1.994l-.089.037.079.055a3.938,3.938,0,0,1,.78.73,7.231,7.231,0,0,1,.617.847l.024.041.044-.022a7.265,7.265,0,0,0,4.4-6.882q.921.013,1.723.028c.559.01.974.024,1.269.041l.057,0v-2.192H96.8Zm13.867-3.3-.03.043a12.058,12.058,0,0,1-1.627,1.85,20.616,20.616,0,0,1-2.194,1.791,22.855,22.855,0,0,1-2.5,1.546,17.548,17.548,0,0,1-2.549,1.122l-.091.031.076.06a3.49,3.49,0,0,1,.516.515c.185.225.355.449.506.667s.281.421.376.59l.024.041.043-.019a26.354,26.354,0,0,0,3.936-2.144v5.628h2.272v-7.279c.6-.492,1.169-1,1.689-1.517a14.286,14.286,0,0,0,1.4-1.606l.032-.044-1.833-1.247Zm14.837,1.974-.017,0c-.2.028-.478.055-.855.085s-.788.051-1.179.069c-.409.018-.777.031-1.122.039.116-.2.223-.409.319-.614.113-.241.216-.479.309-.708l.02-.051-2.035-.731-.049-.018-.018.049a9.83,9.83,0,0,1-1.084,2.085,13.158,13.158,0,0,1-1.621,1.969,9.26,9.26,0,0,1-1.925,1.493l-.077.045.076.045a3.983,3.983,0,0,1,.572.427c.2.174.389.351.571.529a5.331,5.331,0,0,1,.435.47l.031.039.041-.03a14.333,14.333,0,0,0,1.64-1.353,15.274,15.274,0,0,0,1.442-1.585c.189,0,.438-.008.76-.021s.687-.033,1.084-.057q.544-.031,1.074-.07a11.266,11.266,0,0,1-1.745,2.455,13.75,13.75,0,0,1-2.491,2.1,15.034,15.034,0,0,1-3.042,1.538l-.083.031.066.058a4.7,4.7,0,0,1,.5.526,7.941,7.941,0,0,1,.493.665,6.049,6.049,0,0,1,.367.624l.023.044.045-.019a17.048,17.048,0,0,0,3.847-2.292,16.06,16.06,0,0,0,3.049-3.183,13.635,13.635,0,0,0,1.949-3.863l.013-.042-1.365-.747Zm9.542-.212-2.061.172-.055,0,.008.054a18.474,18.474,0,0,1,.174,2.467,6.069,6.069,0,0,1-.3,1.945,4.154,4.154,0,0,1-.98,1.56,7.339,7.339,0,0,1-1.865,1.311l-.072.037.064.051a8.19,8.19,0,0,1,.833.771,5.286,5.286,0,0,1,.678.85l.027.044.044-.025a7.505,7.505,0,0,0,2.512-2.245,6.95,6.95,0,0,0,1.092-3.006,14.933,14.933,0,0,0-.085-3.94Zm8.417,5.712a4.419,4.419,0,0,1-.138-.628c-.045-.273-.082-.569-.112-.9-.027-.316-.041-.594-.041-.828v-.123l-.089.085a8.211,8.211,0,0,1-.861.7c-.355.256-.748.514-1.17.766s-.861.5-1.3.733c-.414.217-.808.407-1.174.567v-2.742c0-.836.007-1.583.021-2.22.014-.659.034-1.1.063-1.337l.007-.059h-2.338l.005.058c.026.315.051.763.068,1.332s.029,1.356.029,2.339q0,1.2-.007,2.185c-.005.654-.014,1.2-.028,1.634a6.5,6.5,0,0,1-.062.85l-.006.032,1.157.9.024.017.028-.01c.413-.161.895-.373,1.429-.631s1.091-.542,1.666-.853,1.1-.623,1.6-.938a13.063,13.063,0,0,0,1.221-.869l.028-.024ZM76.107,122.137l.924-.923L71.8,115.926l-.931.977a7.528,7.528,0,0,1-5.582,2.3,7.908,7.908,0,1,1,5.6-13.527l.924.922,5.226-5.168-.934-.933A14.989,14.989,0,0,0,65.289,96.03,15.288,15.288,0,0,0,50,111.281a15.108,15.108,0,0,0,15.289,15.25A15.362,15.362,0,0,0,76.107,122.137Zm-1.6-20.7-2.691,2.661a9.7,9.7,0,1,0-6.523,16.9,9.3,9.3,0,0,0,6.528-2.513l2.69,2.72a13.612,13.612,0,0,1-9.218,3.545,13.34,13.34,0,0,1-13.5-13.464,13.5,13.5,0,0,1,13.5-13.465A13.226,13.226,0,0,1,74.5,101.433ZM106.884,96.6h-7.4v11H90.5v-11H83.1V125.96h7.4v-11h8.982v11h7.4Zm-5.613,16.573H88.718v11H84.889V98.388h3.829v11h12.554v-11H105.1v25.785h-3.827ZM122.232,96.6h-7.4V125.96h7.4Zm-5.615,1.786h3.828v25.785h-3.828Zm27.607,14.4L153.806,96.6h-8.818l-4.482,7.582L136.024,96.6h-8.938l9.739,16.376V125.96h7.4Zm-5.615-.3-8.386-14.1H135l5.5,9.3,5.5-9.3h4.666L142.439,112.3v11.876H138.61Zm47.043-1.245A15.27,15.27,0,1,0,170.4,126.532,15.249,15.249,0,0,0,185.654,111.243Zm-1.786,0A13.484,13.484,0,1,1,170.4,97.816,13.5,13.5,0,0,1,183.868,111.243Zm-3.829,0a9.656,9.656,0,1,0-9.637,9.713A9.648,9.648,0,0,0,180.039,111.243Zm-1.786,0a7.87,7.87,0,1,1-7.851-7.851A7.9,7.9,0,0,1,178.253,111.243Zm35.436,10.8A16.065,16.065,0,0,0,217.84,111.2a15.356,15.356,0,0,0-4.125-10.815A14.922,14.922,0,0,0,203.2,96.6H192.645V125.96H203.2C207.7,125.96,211.133,124.68,213.689,122.047ZM194.431,98.388H203.2a13.177,13.177,0,0,1,9.263,3.275,13.574,13.574,0,0,1,3.591,9.542,14.217,14.217,0,0,1-3.647,9.6c-2.2,2.267-5.213,3.37-9.208,3.37h-8.768Zm15.683,19.163a10.76,10.76,0,0,0,1.959-6.385,10.238,10.238,0,0,0-2.1-6.414c-1.435-1.708-3.754-2.574-6.89-2.574H198.26v18.2h4.825A8.808,8.808,0,0,0,210.114,117.551Zm-10.068-13.586h3.039c2.585,0,4.443.651,5.523,1.935a8.415,8.415,0,0,1,1.679,5.267,8.928,8.928,0,0,1-1.562,5.263,7.093,7.093,0,0,1-5.64,2.168h-3.039Zm37.93-7.362H231.27L220.242,125.96h8l2.33-6.263h8.071l2.368,6.263h7.995Zm1.9,21.308H229.331L227,124.174H222.82l9.687-25.785h4.233l9.688,25.785h-4.184Zm-5.258-14.8-3.991,11.009H238.7Zm.019,5.185,1.5,4.038h-2.961Zm-81.823,34.811.017,0c.6-.118,1.189-.253,1.744-.4s1.04-.3,1.463-.455l-1.343-1.591a9.422,9.422,0,0,1-1.654.562c-.639.16-1.323.3-2.031.4s-1.432.191-2.125.24-1.331.075-1.922.076a4.153,4.153,0,0,1,.282.531c.1.219.194.446.278.676s.147.421.2.6c.447-.017.952-.051,1.5-.1s1.113-.118,1.682-.2l.024,0v1.748h-4.764v1.861h4.764v4.991h1.886V147.05h4.776v-1.861h-4.776Zm10.557-.156c-.239.433-.5.861-.776,1.275s-.551.789-.833,1.135a5.616,5.616,0,0,1-.774.8,4.727,4.727,0,0,1,.7.5,4.376,4.376,0,0,1,.582.59c.179-.165.357-.344.53-.533s.362-.408.547-.635l.037-.046v6.05h1.8l0-8.874a12.94,12.94,0,0,0,.8-1.893l-1.649-.565a6.819,6.819,0,0,1-.348.965C163.818,142.1,163.612,142.517,163.372,142.952Zm7.8.543a4.97,4.97,0,0,1,.357-.366c.152-.143.317-.29.493-.436s.316-.253.443-.341a5.8,5.8,0,0,0-.475-.516c-.209-.2-.433-.411-.667-.611a5.112,5.112,0,0,0-.626-.467l-1.13,1.167a6.073,6.073,0,0,1,.821.7A11.2,11.2,0,0,1,171.174,143.5Zm1.049,5.251a4.325,4.325,0,0,1-.465-.254c-.018.164-.049.361-.091.585-.046.241-.1.483-.172.72l-.008.028-.024-.016a3.992,3.992,0,0,1-1.325-1.52,8.572,8.572,0,0,1-.789-2.692l0-.022.022,0,3.419-.351-.183-1.748-3.444.352v-.023c-.008-.236-.017-.5-.031-.85-.012-.3-.019-.61-.019-.914V140.7h-1.8v1.34c0,.351,0,.692.013,1.013s.021.644.038.938l0,.02-.02,0-1.9.2.185,1.748,1.915-.2,0,.02a14.1,14.1,0,0,0,.6,2.547,7.942,7.942,0,0,0,.862,1.779,5.157,5.157,0,0,0,1.023,1.148,4.594,4.594,0,0,0,1.066.659h0a1.535,1.535,0,0,0,.913.144.933.933,0,0,0,.636-.5,5.417,5.417,0,0,0,.282-.671c.1-.273.188-.565.27-.869a6.146,6.146,0,0,0,.174-.855c-.144-.04-.317-.1-.531-.166A5.41,5.41,0,0,1,172.223,148.747Zm15.44,2.588H177.7V141.71h9.965Zm-5.919-4.033h-2.122v2.335h2.122Zm0-3.895h-2.122v2.323h2.122Zm4,3.895h-2.122v2.335h2.122Zm0-3.895h-2.122v2.323h2.122Z" transform="translate(-50 -50)" fill="#009e8c"/>
</svg>
